<svg width="20" xmlns="http://www.w3.org/2000/svg" height="20" id="screenshot-2b791fa2-87cf-8065-8006-e4dd508de90a" viewBox="0 0 20 20" xmlns:xlink="http://www.w3.org/1999/xlink" fill="none" version="1.1"><g id="shape-2b791fa2-87cf-8065-8006-e4dd508de90a" width="20" height="20" rx="0" ry="0" style="fill: rgb(0, 0, 0);"><g id="shape-2b791fa2-87cf-8065-8006-e4dd50928968"><g class="fills" id="fills-2b791fa2-87cf-8065-8006-e4dd50928968"><path d="M17,0C17.795654296875,0,18.55859375,0.3160400390625,19.121337890625,0.878662109375C19.68408203125,1.4412841796875,20,2.204345703125,20,3L20,17C20,17.7955322265625,19.68408203125,18.5587158203125,19.121337890625,19.1212158203125C18.55859375,19.683837890625,17.795654296875,20,17,20L3,20C2.204345703125,20,1.44140625,19.683837890625,0.878662109375,19.1212158203125C0.31591796875,18.5587158203125,0,17.7955322265625,0,17L0,3C0,2.204345703125,0.31591796875,1.4412841796875,0.878662109375,0.878662109375C1.44140625,0.3160400390625,2.204345703125,0,3,0L17,0ZM7.613037109375,8.2099609375C7.412109375,8.0545654296875,7.159423828125,7.9814453125,6.906494140625,8.005615234375C6.653564453125,8.0296630859375,6.41943359375,8.149169921875,6.251220703125,8.3397216796875C6.083251953125,8.5302734375,5.994140625,8.777587890625,6.001708984375,9.0316162109375C6.009521484375,9.2855224609375,6.11376953125,9.5269775390625,6.29296875,9.7069091796875L9.29296875,12.7069091796875L9.386962890625,12.7899169921875C9.579345703125,12.939208984375,9.81982421875,13.01318359375,10.062744140625,12.9979248046875C10.3056640625,12.9825439453125,10.53466796875,12.879150390625,10.70703125,12.7069091796875L13.70703125,9.7069091796875L13.7900390625,9.6129150390625C13.939453125,9.4205322265625,14.01318359375,9.1802978515625,13.998046875,8.937255859375C13.982421875,8.6942138671875,13.879150390625,8.4652099609375,13.70703125,8.29296875L13.613037109375,8.2099609375C13.420654296875,8.0606689453125,13.18017578125,7.98681640625,12.937255859375,8.0020751953125C12.6943359375,8.017333984375,12.46533203125,8.120849609375,12.29296875,8.29296875L10,10.5849609375L7.70703125,8.29296875L7.613037109375,8.2099609375Z" style="fill: rgb(173, 181, 189); fill-opacity: 1;"/></g></g></g></svg>