<svg width="36.489" xmlns="http://www.w3.org/2000/svg" height="35" id="screenshot-4c967303-938e-8070-8006-e2ba6e5f3fbd" viewBox="0 0 36.489 35" xmlns:xlink="http://www.w3.org/1999/xlink" fill="none" version="1.1"><g id="shape-4c967303-938e-8070-8006-e2ba6e5f3fbd" width="19" height="18" rx="0" ry="0" style="fill: rgb(0, 0, 0);"><g id="shape-4c967303-938e-8070-8006-e2ba6e60626b" style="display: none;"><g class="fills" id="fills-4c967303-938e-8070-8006-e2ba6e60626b"><rect width="36.48936170212767" height="35" x="0" transform="matrix(1.000000, 0.000000, 0.000000, 1.000000, 0.000000, 0.000000)" style="fill: none;" ry="0" fill="none" rx="0" y="0"/></g></g><g id="shape-4c967303-938e-8070-8006-e2ba6e60fae8"><g class="fills" id="fills-4c967303-938e-8070-8006-e2ba6e60fae8"><path d="M31.38818359375,5.5904541015625C31.38818359375,5.0101318359375,31.1611328125,4.4530029296875,30.75592041015625,4.0428466796875C30.401611328125,3.6839599609375,29.935791015625,3.4639892578125,29.44140625,3.4141845703125L29.2276611328125,3.4029541015625L10.0225830078125,3.4029541015625C9.44952392578125,3.4029541015625,8.89923095703125,3.6324462890625,8.49407958984375,4.0428466796875C8.0888671875,4.4530029296875,7.862060546875,5.0101318359375,7.862060546875,5.5904541015625L7.862060546875,28.9237060546875L7.873291015625,29.1400146484375C7.92242431640625,29.6407470703125,8.13958740234375,30.1124267578125,8.49407958984375,30.4713134765625C8.89923095703125,30.8814697265625,9.44952392578125,31.1112060546875,10.0225830078125,31.1112060546875L29.2276611328125,31.1112060546875C29.80047607421875,31.1112060546875,30.35089111328125,30.8814697265625,30.75592041015625,30.4713134765625C31.1611328125,30.0609130859375,31.38818359375,29.5037841796875,31.38818359375,28.9237060546875L31.38818359375,5.5904541015625ZM34.74908447265625,28.9237060546875C34.74908447265625,30.4063720703125,34.16766357421875,31.8287353515625,33.13238525390625,32.8770751953125C32.0968017578125,33.9256591796875,30.6917724609375,34.5140380859375,29.2276611328125,34.5140380859375L10.0225830078125,34.5140380859375C8.55816650390625,34.5140380859375,7.15325927734375,33.9256591796875,6.11785888671875,32.8770751953125C5.0823974609375,31.8287353515625,4.50115966796875,30.4063720703125,4.50115966796875,28.9237060546875L4.50115966796875,5.5904541015625C4.50115966796875,4.1077880859375,5.0823974609375,2.6851806640625,6.11785888671875,1.6368408203125C7.15325927734375,0.5885009765625,8.55816650390625,0.0001220703125,10.0225830078125,0.0001220703125L29.2276611328125,0.0001220703125C30.6917724609375,0.0001220703125,32.0968017578125,0.5885009765625,33.13238525390625,1.6368408203125C34.16766357421875,2.6851806640625,34.74908447265625,4.1077880859375,34.74908447265625,5.5904541015625L34.74908447265625,28.9237060546875Z" style="fill: rgb(108, 117, 125); fill-opacity: 1;"/></g></g><g id="shape-4c967303-938e-8070-8006-e2ba6e614299"><g class="fills" id="fills-4c967303-938e-8070-8006-e2ba6e614299"><path d="M25.3865966796875,23.3333740234375C26.3145751953125,23.3333740234375,27.0670166015625,24.0953369140625,27.0670166015625,25.0347900390625C27.0670166015625,25.9744873046875,26.3145751953125,26.7362060546875,25.3865966796875,26.7362060546875L13.86358642578125,26.7362060546875C12.93548583984375,26.7362060546875,12.18310546875,25.9744873046875,12.18310546875,25.0347900390625C12.18310546875,24.0953369140625,12.93548583984375,23.3333740234375,13.86358642578125,23.3333740234375L25.3865966796875,23.3333740234375Z" style="fill: rgb(108, 117, 125); fill-opacity: 1;"/></g></g><g id="shape-4c967303-938e-8070-8006-e2ba6e61c24b"><g class="fills" id="fills-4c967303-938e-8070-8006-e2ba6e61c24b"><path d="M21.78570556640625,15.3126220703125C21.78570556640625,14.7322998046875,21.55865478515625,14.1751708984375,21.1534423828125,13.7650146484375C20.74847412109375,13.3548583984375,20.197998046875,13.1251220703125,19.62518310546875,13.1251220703125C19.052001953125,13.1251220703125,18.501708984375,13.3548583984375,18.0965576171875,13.7650146484375C17.69134521484375,14.1751708984375,17.4644775390625,14.7322998046875,17.4644775390625,15.3126220703125C17.4644775390625,15.8927001953125,17.69134521484375,16.4498291015625,18.0965576171875,16.8602294921875C18.501708984375,17.2703857421875,19.052001953125,17.5001220703125,19.62518310546875,17.5001220703125C20.197998046875,17.5001220703125,20.74847412109375,17.2703857421875,21.1534423828125,16.8602294921875C21.55865478515625,16.4498291015625,21.78570556640625,15.8927001953125,21.78570556640625,15.3126220703125ZM25.14654541015625,15.3126220703125C25.14654541015625,16.7952880859375,24.56524658203125,18.2176513671875,23.5299072265625,19.2659912109375C22.494384765625,20.3145751953125,21.08929443359375,20.9029541015625,19.62518310546875,20.9029541015625C18.16064453125,20.9029541015625,16.7557373046875,20.3145751953125,15.72027587890625,19.2659912109375C14.684814453125,18.2176513671875,14.1036376953125,16.7952880859375,14.1036376953125,15.3126220703125C14.1036376953125,13.8299560546875,14.684814453125,12.4075927734375,15.72027587890625,11.3592529296875C16.7557373046875,10.3106689453125,18.16064453125,9.7222900390625,19.62518310546875,9.7222900390625C21.08929443359375,9.7222900390625,22.494384765625,10.3106689453125,23.5299072265625,11.3592529296875C24.56524658203125,12.4075927734375,25.14654541015625,13.8299560546875,25.14654541015625,15.3126220703125Z" style="fill: rgb(108, 117, 125); fill-opacity: 1;"/></g></g><g id="shape-4c967303-938e-8070-8006-e2ba6e6226b6"><g class="fills" id="fills-4c967303-938e-8070-8006-e2ba6e6226b6"><path d="M8.10211181640625,7.7779541015625C9.0301513671875,7.7779541015625,9.782470703125,8.5396728515625,9.782470703125,9.4793701171875C9.782470703125,10.4188232421875,9.0301513671875,11.1805419921875,8.10211181640625,11.1805419921875L2.34063720703125,11.1805419921875C1.41253662109375,11.1805419921875,0.66015625,10.4188232421875,0.66015625,9.4793701171875C0.66015625,8.5396728515625,1.41253662109375,7.7779541015625,2.34063720703125,7.7779541015625L8.10211181640625,7.7779541015625Z" style="fill: rgb(108, 117, 125); fill-opacity: 1;"/></g></g><g id="shape-4c967303-938e-8070-8006-e2ba6e625b4d"><g class="fills" id="fills-4c967303-938e-8070-8006-e2ba6e625b4d"><path d="M8.10211181640625,15.5555419921875C9.0301513671875,15.5555419921875,9.782470703125,16.3172607421875,9.782470703125,17.2569580078125C9.782470703125,18.1966552734375,9.0301513671875,18.9583740234375,8.10211181640625,18.9583740234375L2.34063720703125,18.9583740234375C1.41253662109375,18.9583740234375,0.66015625,18.1966552734375,0.66015625,17.2569580078125C0.66015625,16.3172607421875,1.41253662109375,15.5555419921875,2.34063720703125,15.5555419921875L8.10211181640625,15.5555419921875Z" style="fill: rgb(108, 117, 125); fill-opacity: 1;"/></g></g><g id="shape-4c967303-938e-8070-8006-e2ba6e62a0c4"><g class="fills" id="fills-4c967303-938e-8070-8006-e2ba6e62a0c4"><path d="M8.10211181640625,23.3333740234375C9.0301513671875,23.3333740234375,9.782470703125,24.0953369140625,9.782470703125,25.0347900390625C9.782470703125,25.9744873046875,9.0301513671875,26.7362060546875,8.10211181640625,26.7362060546875L2.34063720703125,26.7362060546875C1.41253662109375,26.7362060546875,0.66015625,25.9744873046875,0.66015625,25.0347900390625C0.66015625,24.0953369140625,1.41253662109375,23.3333740234375,2.34063720703125,23.3333740234375L8.10211181640625,23.3333740234375Z" style="fill: rgb(108, 117, 125); fill-opacity: 1;"/></g></g></g></svg>