<svg width="23.333" xmlns="http://www.w3.org/2000/svg" height="23.333" id="screenshot-2b791fa2-87cf-8065-8006-e4d9b82396d0" viewBox="1583.671 1793.614 23.333 23.333" xmlns:xlink="http://www.w3.org/1999/xlink" fill="none" version="1.1"><g id="shape-2b791fa2-87cf-8065-8006-e4d9b82396d0"><g class="fills" id="fills-2b791fa2-87cf-8065-8006-e4d9b82396d0"><path d="M1595.337158203125,1800.281005859375L1590.337158203125,1800.281005859375C1589.416748046875,1800.281005859375,1588.67041015625,1801.027099609375,1588.67041015625,1801.9476318359375L1588.67041015625,1810.281005859375C1588.67041015625,1811.2015380859375,1589.416748046875,1811.9476318359375,1590.337158203125,1811.9476318359375L1598.67041015625,1811.9476318359375C1599.591064453125,1811.9476318359375,1600.337158203125,1811.2015380859375,1600.337158203125,1810.281005859375L1600.337158203125,1805.281005859375M1594.50390625,1806.1143798828125L1602.00390625,1798.6143798828125M1597.837158203125,1798.6143798828125L1602.00390625,1798.6143798828125L1602.00390625,1802.781005859375" width="24" class="icon icon-tabler icons-tabler-outline icon-tabler-external-link" height="24"/></g><g width="24" class="strokes" height="24" id="strokes-76feacba-b440-8099-8006-ecc6068529b1-2b791fa2-87cf-8065-8006-e4d9b82396d0"><g class="stroke-shape"><path d="M1595.337158203125,1800.281005859375L1590.337158203125,1800.281005859375C1589.416748046875,1800.281005859375,1588.67041015625,1801.027099609375,1588.67041015625,1801.9476318359375L1588.67041015625,1810.281005859375C1588.67041015625,1811.2015380859375,1589.416748046875,1811.9476318359375,1590.337158203125,1811.9476318359375L1598.67041015625,1811.9476318359375C1599.591064453125,1811.9476318359375,1600.337158203125,1811.2015380859375,1600.337158203125,1810.281005859375L1600.337158203125,1805.281005859375M1594.50390625,1806.1143798828125L1602.00390625,1798.6143798828125M1597.837158203125,1798.6143798828125L1602.00390625,1798.6143798828125L1602.00390625,1802.781005859375" style="fill: none; stroke-width: 1.75; stroke: rgb(73, 80, 87); stroke-opacity: 1;"/></g></g></g></svg>