<svg width="19.752" xmlns="http://www.w3.org/2000/svg" height="19.752" id="screenshot-2b791fa2-87cf-8065-8006-e4d9b823971e" viewBox="1292.125 1800.125 19.752 19.752" xmlns:xlink="http://www.w3.org/1999/xlink" fill="none" version="1.1"><g id="shape-2b791fa2-87cf-8065-8006-e4d9b823971e"><g class="fills" id="fills-2b791fa2-87cf-8065-8006-e4d9b823971e"><path d="M1297.625,1805.5C1297.625,1805.466796875,1297.6123046875,1805.4345703125,1297.5888671875,1805.4111328125C1297.5654296875,1805.3876953125,1297.533203125,1805.375,1297.5,1805.375C1297.466796875,1805.375,1297.4345703125,1805.3876953125,1297.4111328125,1805.4111328125C1297.3876953125,1805.4345703125,1297.375,1805.466796875,1297.375,1805.5C1297.375,1805.533203125,1297.3876953125,1805.5654296875,1297.4111328125,1805.5888671875C1297.4345703125,1805.6123046875,1297.466796875,1805.625,1297.5,1805.625C1297.533203125,1805.625,1297.5654296875,1805.6123046875,1297.5888671875,1805.5888671875C1297.6123046875,1805.5654296875,1297.625,1805.533203125,1297.625,1805.5ZM1299.375,1805.5C1299.375,1805.997314453125,1299.177734375,1806.4744873046875,1298.826171875,1806.826171875C1298.474609375,1807.1778564453125,1297.997314453125,1807.375,1297.5,1807.375C1297.002685546875,1807.375,1296.525390625,1807.1778564453125,1296.173828125,1806.826171875C1295.822265625,1806.4744873046875,1295.625,1805.997314453125,1295.625,1805.5C1295.625,1805.002685546875,1295.822265625,1804.5255126953125,1296.173828125,1804.173828125C1296.525390625,1803.8221435546875,1297.002685546875,1803.625,1297.5,1803.625C1297.997314453125,1803.625,1298.474609375,1803.8221435546875,1298.826171875,1804.173828125C1299.177734375,1804.5255126953125,1299.375,1805.002685546875,1299.375,1805.5ZM1292.125,1809.171875L1292.125,1804C1292.125,1802.9722900390625,1292.532958984375,1801.9864501953125,1293.259765625,1801.259765625C1293.986328125,1800.5330810546875,1294.97216796875,1800.125,1296,1800.125L1301.171875,1800.125C1301.934326171875,1800.1251220703125,1302.6650390625,1800.4287109375,1303.2041015625,1800.9677734375L1303.205078125,1800.966796875L1310.9150390625,1808.677734375L1311.02734375,1808.794921875C1311.57275390625,1809.3974609375,1311.876953125,1810.1832275390625,1311.876953125,1811C1311.876953125,1811.8709716796875,1311.53076171875,1812.706298828125,1310.9150390625,1813.322265625L1305.322265625,1818.9150390625C1304.706298828125,1819.53076171875,1303.870849609375,1819.876953125,1303,1819.876953125C1302.12890625,1819.876953125,1301.293701171875,1819.53076171875,1300.677734375,1818.9150390625L1292.966796875,1811.205078125C1292.427734375,1810.6661376953125,1292.125244140625,1809.9342041015625,1292.125,1809.171875ZM1293.875,1809.171875L1293.880859375,1809.283203125C1293.90283203125,1809.50390625,1293.9892578125,1809.7132568359375,1294.1298828125,1809.884765625L1294.205078125,1809.966796875L1301.9140625,1817.6767578125C1302.201904296875,1817.964599609375,1302.5927734375,1818.126953125,1303,1818.126953125C1303.406982421875,1818.126953125,1303.797119140625,1817.964599609375,1304.0849609375,1817.6767578125L1309.6767578125,1812.0849609375C1309.964599609375,1811.797119140625,1310.126953125,1811.4071044921875,1310.126953125,1811C1310.126953125,1810.5928955078125,1309.964599609375,1810.202880859375,1309.6767578125,1809.9150390625L1301.966796875,1802.205078125C1301.7822265625,1802.0205078125,1301.54052734375,1801.906494140625,1301.283203125,1801.880859375L1301.171875,1801.875L1296,1801.875C1295.436279296875,1801.875,1294.8955078125,1802.0985107421875,1294.4970703125,1802.4970703125C1294.0986328125,1802.8956298828125,1293.875,1803.4364013671875,1293.875,1804L1293.875,1809.171875Z" width="20" height="20" style="fill: rgb(73, 80, 87); fill-opacity: 1;"/></g></g></svg>