<svg width="29.52" xmlns="http://www.w3.org/2000/svg" height="29.52" id="screenshot-77c951b0-c077-80bc-8006-e26fbd18a419" viewBox="977.94 2387.299 29.52 29.52" xmlns:xlink="http://www.w3.org/1999/xlink" fill="none" version="1.1"><g id="shape-77c951b0-c077-80bc-8006-e26fbd18a419"><g class="fills" id="fills-77c951b0-c077-80bc-8006-e26fbd18a419"><path d="M992.700927734375,2387.299072265625C993.322998046875,2387.299072265625,993.939697265625,2387.421875,994.514404296875,2387.660888671875C995.08740234375,2387.8994140625,995.6083984375,2388.24853515625,996.04638671875,2388.688720703125L997.07763671875,2389.719482421875C997.40869140625,2390.04931640625,997.858642578125,2390.234130859375,998.324462890625,2390.234130859375L999.80029296875,2390.234130859375C1001.053466796875,2390.234130859375,1002.254638671875,2390.732177734375,1003.140869140625,2391.6181640625C1004.02685546875,2392.504150390625,1004.52490234375,2393.705322265625,1004.52490234375,2394.958251953125L1004.52490234375,2396.4345703125C1004.52490234375,2396.89892578125,1004.70849609375,2397.347412109375,1005.03662109375,2397.678466796875L1006.06689453125,2398.709228515625C1006.508056640625,2399.148193359375,1006.859130859375,2399.669921875,1007.09814453125,2400.244384765625C1007.337158203125,2400.8193359375,1007.45947265625,2401.437255859375,1007.45947265625,2402.0595703125C1007.45947265625,2402.681884765625,1007.337158203125,2403.298095703125,1007.09814453125,2403.872802734375C1006.859619140625,2404.446533203125,1006.5087890625,2404.9658203125,1006.06884765625,2405.404052734375L1006.0703125,2405.405517578125L1005.03662109375,2406.43896484375C1004.70849609375,2406.7705078125,1004.525146484375,2407.218017578125,1004.52490234375,2407.6845703125L1004.52490234375,2409.159423828125C1004.52490234375,2410.411865234375,1004.02685546875,2411.61376953125,1003.140869140625,2412.499755859375C1002.254638671875,2413.38525390625,1001.053466796875,2413.88330078125,999.80029296875,2413.88330078125L998.32568359375,2413.88330078125L998.1513671875,2413.892333984375C997.748046875,2413.93212890625,997.36767578125,2414.109619140625,997.07763671875,2414.39794921875L996.04638671875,2415.4287109375C995.6083984375,2415.86865234375,995.08740234375,2416.21826171875,994.514404296875,2416.45654296875C993.939697265625,2416.69580078125,993.322998046875,2416.818603515625,992.700927734375,2416.818603515625C992.07861328125,2416.818603515625,991.460693359375,2416.69580078125,990.8857421875,2416.45654296875C990.3125,2416.21826171875,989.791748046875,2415.86865234375,989.353515625,2415.4287109375L988.322998046875,2414.39794921875C988.032470703125,2414.110107421875,987.653076171875,2413.9326171875,987.250244140625,2413.892333984375L987.075927734375,2413.88330078125L985.599609375,2413.88330078125C984.3466796875,2413.88330078125,983.145263671875,2413.38525390625,982.259033203125,2412.499755859375C981.37353515625,2411.61376953125,980.875732421875,2410.411865234375,980.875732421875,2409.159423828125L980.875732421875,2407.6845703125L980.866455078125,2407.510009765625C980.826416015625,2407.107666015625,980.650634765625,2406.728759765625,980.36376953125,2406.43896484375L979.330078125,2405.405517578125L979.331787109375,2405.404052734375C978.89111328125,2404.9658203125,978.540771484375,2404.446533203125,978.302490234375,2403.872802734375C978.063232421875,2403.298095703125,977.9404296875,2402.681884765625,977.9404296875,2402.0595703125C977.9404296875,2401.437255859375,978.063232421875,2400.8193359375,978.302490234375,2400.244384765625C978.540771484375,2399.669921875,978.891845703125,2399.148193359375,979.3330078125,2398.709228515625L980.36376953125,2397.678466796875C980.650390625,2397.388916015625,980.826416015625,2397.010986328125,980.866455078125,2396.60888671875L980.875732421875,2396.4345703125L980.875732421875,2394.958251953125C980.875732421875,2393.705322265625,981.37353515625,2392.504150390625,982.259033203125,2391.6181640625C983.145263671875,2390.732177734375,984.3466796875,2390.234130859375,985.599609375,2390.234130859375L987.075927734375,2390.234130859375L987.250244140625,2390.2255859375C987.653076171875,2390.18505859375,988.032470703125,2390.007568359375,988.322998046875,2389.719482421875L989.353515625,2388.688720703125C989.791748046875,2388.24853515625,990.3125,2387.8994140625,990.8857421875,2387.660888671875C991.460693359375,2387.421875,992.07861328125,2387.299072265625,992.700927734375,2387.299072265625ZM992.700927734375,2394.6787109375C992.419921875,2394.6787109375,992.162109375,2394.830810546875,992.037353515625,2395.07080078125L989.9287109375,2399.135986328125L985.21484375,2399.785888671875C984.93603515625,2399.82470703125,984.704833984375,2400.009765625,984.617919921875,2400.264892578125C984.53125,2400.51904296875,984.603759765625,2400.799072265625,984.805419921875,2400.985595703125L988.220458984375,2404.149658203125L987.416015625,2408.6171875C987.368408203125,2408.881103515625,987.48291015625,2409.14794921875,987.7099609375,2409.304931640625C987.9375,2409.46240234375,988.23974609375,2409.482666015625,988.488525390625,2409.3583984375L992.703369140625,2407.249267578125L996.911376953125,2409.3583984375C997.16015625,2409.483154296875,997.46240234375,2409.463134765625,997.68994140625,2409.306396484375C997.91796875,2409.1494140625,998.033203125,2408.881103515625,997.98583984375,2408.6171875L997.179931640625,2404.149658203125L1000.59619140625,2400.985595703125C1000.798095703125,2400.799072265625,1000.870361328125,2400.51904296875,1000.783935546875,2400.264892578125C1000.697265625,2400.01025390625,1000.46533203125,2399.82470703125,1000.18701171875,2399.785888671875L995.47119140625,2399.135986328125L993.364013671875,2395.07080078125C993.239501953125,2394.830810546875,992.98193359375,2394.6787109375,992.700927734375,2394.6787109375Z" style="fill: rgb(187, 125, 68);"/></g></g></svg>