<svg width="20" xmlns="http://www.w3.org/2000/svg" height="20" id="screenshot-042d75e2-1c5c-8018-8006-ec735a0ee945" viewBox="1537 1712.5 20 20" xmlns:xlink="http://www.w3.org/1999/xlink" fill="none" version="1.1"><g id="shape-042d75e2-1c5c-8018-8006-ec735a0ee945"><g class="fills" id="fills-042d75e2-1c5c-8018-8006-ec735a0ee945"><path d="M1552,1713.83984375C1553.52001953125,1714.7176513671875,1554.782470703125,1715.97998046875,1555.66015625,1717.5001220703125C1556.5380859375,1719.0205078125,1557,1720.7449951171875,1557,1722.500244140625C1557,1724.2557373046875,1556.53759765625,1725.97998046875,1555.66015625,1727.500244140625C1554.7822265625,1729.0205078125,1553.52001953125,1730.2828369140625,1551.999755859375,1731.16064453125C1550.4794921875,1732.0380859375,1548.7548828125,1732.500244140625,1546.99951171875,1732.5001220703125C1545.244140625,1732.5001220703125,1543.52001953125,1732.0380859375,1541.99951171875,1731.1602783203125C1540.479736328125,1730.28271484375,1539.21728515625,1729.0201416015625,1538.339599609375,1727.5C1537.4619140625,1725.979736328125,1537,1724.25537109375,1537,1722.5L1537.0048828125,1722.1759033203125C1537.060791015625,1720.4488525390625,1537.5634765625,1718.765869140625,1538.463623046875,1717.291015625C1539.36376953125,1715.81591796875,1540.630615234375,1714.5994873046875,1542.140625,1713.759765625C1543.65087890625,1712.920166015625,1545.35302734375,1712.486328125,1547.0810546875,1712.50048828125C1548.80859375,1712.5145263671875,1550.50341796875,1712.975830078125,1552,1713.83984375L1552,1713.83984375M1547,1725.5C1546.734619140625,1725.5,1546.48046875,1725.6053466796875,1546.29296875,1725.79296875C1546.105224609375,1725.98046875,1546,1726.23486328125,1546,1726.5L1546,1726.5098876953125C1546,1726.7752685546875,1546.105224609375,1727.029541015625,1546.29296875,1727.217041015625C1546.48046875,1727.404541015625,1546.734619140625,1727.5098876953125,1547,1727.5098876953125C1547.26513671875,1727.5098876953125,1547.51953125,1727.404541015625,1547.70703125,1727.217041015625C1547.89453125,1727.029541015625,1548,1726.7752685546875,1548,1726.5098876953125L1548,1726.5C1548,1726.23486328125,1547.89453125,1725.98046875,1547.70703125,1725.79296875C1547.51953125,1725.6053466796875,1547.26513671875,1725.5,1547,1725.5L1547,1725.5M1547,1718.5C1546.734619140625,1718.5,1546.48046875,1718.6053466796875,1546.29296875,1718.79296875C1546.105224609375,1718.98046875,1546,1719.234619140625,1546,1719.5L1546,1723.5C1546,1723.76513671875,1546.105224609375,1724.01953125,1546.29296875,1724.20703125C1546.48046875,1724.39453125,1546.734619140625,1724.5,1547,1724.5C1547.26513671875,1724.5,1547.51953125,1724.39453125,1547.70703125,1724.20703125C1547.89453125,1724.01953125,1548,1723.76513671875,1548,1723.5L1548,1719.5C1548,1719.234619140625,1547.89453125,1718.98046875,1547.70703125,1718.79296875C1547.51953125,1718.6053466796875,1547.26513671875,1718.5,1547,1718.5L1547,1718.5" style="fill: rgb(252, 163, 17); fill-opacity: 1;"/></g></g></svg>