<svg width="16" xmlns="http://www.w3.org/2000/svg" height="16" id="screenshot-4c967303-938e-8070-8006-e2cd66eb4fb3" viewBox="0 0 16 16" xmlns:xlink="http://www.w3.org/1999/xlink" fill="none" version="1.1"><g id="shape-4c967303-938e-8070-8006-e2cd66eb4fb3" width="20" height="20" rx="0" ry="0" style="fill: rgb(0, 0, 0);"><g id="shape-4c967303-938e-8070-8006-e2cd66eb4fb4" style="display: none;"><g class="fills" id="fills-4c967303-938e-8070-8006-e2cd66eb4fb4"><rect width="16" height="16" x="0" transform="matrix(1.000000, 0.000000, 0.000000, 1.000000, 0.000000, 0.000000)" style="fill: none;" ry="0" fill="none" rx="0" y="0"/></g></g><g id="shape-4c967303-938e-8070-8006-e2cd66eb4fb5"><g class="fills" id="fills-4c967303-938e-8070-8006-e2cd66eb4fb5"><path d="M0.79998779296875,8C0.79998779296875,8.945556640625,0.98626708984375,9.881591796875,1.34808349609375,10.755126953125C1.70989990234375,11.62890625,2.24017333984375,12.422607421875,2.90887451171875,13.091064453125C3.57733154296875,13.759765625,4.37103271484375,14.290283203125,5.24456787109375,14.652099609375C6.11810302734375,15.013671875,7.05438232421875,15.199951171875,7.99993896484375,15.199951171875C8.94549560546875,15.199951171875,9.88177490234375,15.013671875,10.75531005859375,14.652099609375C11.62884521484375,14.290283203125,12.42254638671875,13.759765625,13.09124755859375,13.091064453125C13.75970458984375,12.422607421875,14.28997802734375,11.62890625,14.65179443359375,10.755126953125C15.01361083984375,9.881591796875,15.19989013671875,8.945556640625,15.19989013671875,8C15.19989013671875,7.054443359375,15.01361083984375,6.118408203125,14.65179443359375,5.244873046875C14.28997802734375,4.37109375,13.75970458984375,3.577392578125,13.09124755859375,2.908935546875C12.42254638671875,2.240234375,11.62884521484375,1.709716796875,10.75531005859375,1.347900390625C9.88177490234375,0.986328125,8.94549560546875,0.800048828125,7.99993896484375,0.800048828125C7.05438232421875,0.800048828125,6.11810302734375,0.986328125,5.24456787109375,1.347900390625C4.37103271484375,1.709716796875,3.57733154296875,2.240234375,2.90887451171875,2.908935546875C2.24017333984375,3.577392578125,1.70989990234375,4.37109375,1.34808349609375,5.244873046875C0.98626708984375,6.118408203125,0.79998779296875,7.054443359375,0.79998779296875,8L0.79998779296875,8" fill="none" stroke-linecap="round" stroke-linejoin="round" style="fill: none;"/></g><g fill="none" stroke-linecap="round" stroke-linejoin="round" id="strokes-6eb6f102-bd0a-8069-8006-fff66440555a-4c967303-938e-8070-8006-e2cd66eb4fb5" class="strokes"><g class="inner-stroke-shape"><defs><clipPath id="inner-stroke-render-3-4c967303-938e-8070-8006-e2cd66eb4fb5-0"><use href="#stroke-shape-render-3-4c967303-938e-8070-8006-e2cd66eb4fb5-0"/></clipPath><path d="M0.79998779296875,8C0.79998779296875,8.945556640625,0.98626708984375,9.881591796875,1.34808349609375,10.755126953125C1.70989990234375,11.62890625,2.24017333984375,12.422607421875,2.90887451171875,13.091064453125C3.57733154296875,13.759765625,4.37103271484375,14.290283203125,5.24456787109375,14.652099609375C6.11810302734375,15.013671875,7.05438232421875,15.199951171875,7.99993896484375,15.199951171875C8.94549560546875,15.199951171875,9.88177490234375,15.013671875,10.75531005859375,14.652099609375C11.62884521484375,14.290283203125,12.42254638671875,13.759765625,13.09124755859375,13.091064453125C13.75970458984375,12.422607421875,14.28997802734375,11.62890625,14.65179443359375,10.755126953125C15.01361083984375,9.881591796875,15.19989013671875,8.945556640625,15.19989013671875,8C15.19989013671875,7.054443359375,15.01361083984375,6.118408203125,14.65179443359375,5.244873046875C14.28997802734375,4.37109375,13.75970458984375,3.577392578125,13.09124755859375,2.908935546875C12.42254638671875,2.240234375,11.62884521484375,1.709716796875,10.75531005859375,1.347900390625C9.88177490234375,0.986328125,8.94549560546875,0.800048828125,7.99993896484375,0.800048828125C7.05438232421875,0.800048828125,6.11810302734375,0.986328125,5.24456787109375,1.347900390625C4.37103271484375,1.709716796875,3.57733154296875,2.240234375,2.90887451171875,2.908935546875C2.24017333984375,3.577392578125,1.70989990234375,4.37109375,1.34808349609375,5.244873046875C0.98626708984375,6.118408203125,0.79998779296875,7.054443359375,0.79998779296875,8L0.79998779296875,8" id="stroke-shape-render-3-4c967303-938e-8070-8006-e2cd66eb4fb5-0" style="fill: none; stroke-width: 2; stroke: rgb(108, 117, 125); stroke-opacity: 1;"/></defs><use href="#stroke-shape-render-3-4c967303-938e-8070-8006-e2cd66eb4fb5-0" clip-path="url('#inner-stroke-render-3-4c967303-938e-8070-8006-e2cd66eb4fb5-0')"/></g></g></g><g id="shape-4c967303-938e-8070-8006-e2cd66eb4fb6"><g class="fills" id="fills-4c967303-938e-8070-8006-e2cd66eb4fb6"><path d="M8.00775146484375,3.199951171875C8.44964599609375,3.199951171875,8.80780029296875,3.591064453125,8.80780029296875,4.072509765625C8.80780029296875,4.5546875,8.44964599609375,4.945556640625,8.00775146484375,4.945556640625L7.99993896484375,4.945556640625C7.55804443359375,4.945556640625,7.19989013671875,4.5546875,7.19989013671875,4.072509765625C7.19989013671875,3.591064453125,7.55804443359375,3.199951171875,7.99993896484375,3.199951171875L8.00775146484375,3.199951171875Z" style="fill: rgb(108, 117, 125); fill-opacity: 1;"/></g></g><g id="shape-4c967303-938e-8070-8006-e2cd66eb4fb7"><g class="fills" id="fills-4c967303-938e-8070-8006-e2cd66eb4fb7"><path d="M7.99993896484375,5.818359375L8.08197021484375,5.822265625C8.48529052734375,5.8671875,8.79998779296875,6.239013671875,8.79998779296875,6.691162109375L8.79998779296875,11.054443359375C9.24188232421875,11.054443359375,9.60003662109375,11.4453125,9.60003662109375,11.927490234375C9.60003662109375,12.409423828125,9.24188232421875,12.800048828125,8.79998779296875,12.800048828125L7.99993896484375,12.800048828125C7.55804443359375,12.800048828125,7.19989013671875,12.409423828125,7.19989013671875,11.927490234375L7.19989013671875,7.563720703125C6.75799560546875,7.563720703125,6.39984130859375,7.173095703125,6.39984130859375,6.691162109375C6.39984130859375,6.208984375,6.75799560546875,5.818359375,7.19989013671875,5.818359375L7.99993896484375,5.818359375Z" style="fill: rgb(108, 117, 125); fill-opacity: 1;"/></g></g></g></svg>