<svg width="13.806" xmlns="http://www.w3.org/2000/svg" height="15.8" id="screenshot-fb5022bd-4e43-8047-8006-e5ca0afd5628" viewBox="846.256 738.888 13.806 15.8" xmlns:xlink="http://www.w3.org/1999/xlink" fill="none" version="1.1"><g id="shape-fb5022bd-4e43-8047-8006-e5ca0afd5628"><g class="fills" id="fills-fb5022bd-4e43-8047-8006-e5ca0afd5628"><path d="M858.7001953125,742.7880249023438C858.7001953125,742.54931640625,858.6085205078125,742.320068359375,858.4443359375,742.1512451171875C858.30078125,742.003662109375,858.1121826171875,741.9132080078125,857.911865234375,741.8926391601562L857.8252563476562,741.8880615234375L848.491943359375,741.8880615234375C848.2599487304688,741.8880615234375,848.0370483398438,741.9825439453125,847.8729858398438,742.1512451171875C847.7089233398438,742.320068359375,847.616943359375,742.54931640625,847.616943359375,742.7880249023438L847.616943359375,752.3880615234375L847.62158203125,752.4771118164062C847.6414794921875,752.6829833984375,847.7294311523438,752.8771362304688,847.8729858398438,753.0247802734375C848.0370483398438,753.1935424804688,848.2599487304688,753.2879638671875,848.491943359375,753.2879638671875L857.8252563476562,753.2879638671875C858.057373046875,753.2879638671875,858.2802734375,753.1935424804688,858.4443359375,753.0247802734375C858.6085205078125,752.8560180664062,858.7001953125,752.6266479492188,858.7001953125,752.3880615234375L858.7001953125,742.7880249023438ZM860.0615234375,752.3880615234375C860.0615234375,752.9979248046875,859.8260498046875,753.583251953125,859.40673828125,754.0145263671875C858.9873657226562,754.4459838867188,858.418212890625,754.68798828125,857.8252563476562,754.68798828125L848.491943359375,754.68798828125C847.89892578125,754.68798828125,847.3299560546875,754.4459838867188,846.91064453125,754.0145263671875C846.4912719726562,753.583251953125,846.255859375,752.9979248046875,846.255859375,752.3880615234375L846.255859375,742.7880249023438C846.255859375,742.1781005859375,846.4912719726562,741.5928344726562,846.91064453125,741.161376953125C847.3299560546875,740.7301025390625,847.89892578125,740.488037109375,848.491943359375,740.488037109375L857.8252563476562,740.488037109375C858.418212890625,740.488037109375,858.9873657226562,740.7301025390625,859.40673828125,741.161376953125C859.8260498046875,741.5928344726562,860.0615234375,742.1781005859375,860.0615234375,742.7880249023438L860.0615234375,752.3880615234375ZM855.5891723632812,742.7880249023438L855.5891723632812,739.5880737304688C855.5891723632812,739.2013549804688,855.8939819335938,738.8880615234375,856.269775390625,738.8880615234375C856.6455078125,738.8880615234375,856.9502563476562,739.2013549804688,856.9502563476562,739.5880737304688L856.9502563476562,742.7880249023438C856.9502563476562,743.1746826171875,856.6455078125,743.4879760742188,856.269775390625,743.4879760742188C855.8939819335938,743.4879760742188,855.5891723632812,743.1746826171875,855.5891723632812,742.7880249023438ZM849.366943359375,742.7880249023438L849.366943359375,739.5880737304688C849.366943359375,739.2013549804688,849.6716918945312,738.8880615234375,850.0475463867188,738.8880615234375C850.4234008789062,738.8880615234375,850.72802734375,739.2013549804688,850.72802734375,739.5880737304688L850.72802734375,742.7880249023438C850.72802734375,743.1746826171875,850.4234008789062,743.4879760742188,850.0475463867188,743.4879760742188C849.6716918945312,743.4879760742188,849.366943359375,743.1746826171875,849.366943359375,742.7880249023438ZM859.380859375,745.2879638671875C859.756591796875,745.2879638671875,860.0615234375,745.6014404296875,860.0615234375,745.988037109375C860.0615234375,746.3746337890625,859.756591796875,746.6879272460938,859.380859375,746.6879272460938L846.9365234375,746.6879272460938C846.560546875,746.6879272460938,846.255859375,746.3746337890625,846.255859375,745.988037109375C846.255859375,745.6014404296875,846.560546875,745.2879638671875,846.9365234375,745.2879638671875L859.380859375,745.2879638671875ZM853.15869140625,748.4879760742188C853.5345458984375,748.4879760742188,853.8391723632812,748.801513671875,853.8391723632812,749.18798828125C853.8391723632812,749.574462890625,853.5345458984375,749.887939453125,853.15869140625,749.887939453125L852.380859375,749.887939453125C852.0050048828125,749.887939453125,851.7003173828125,749.574462890625,851.7003173828125,749.18798828125C851.7003173828125,748.801513671875,852.0050048828125,748.4879760742188,852.380859375,748.4879760742188L853.15869140625,748.4879760742188ZM852.47802734375,751.5880126953125L852.47802734375,749.18798828125C852.47802734375,748.801513671875,852.7828369140625,748.4879760742188,853.15869140625,748.4879760742188C853.5345458984375,748.4879760742188,853.8391723632812,748.801513671875,853.8391723632812,749.18798828125L853.8391723632812,751.5880126953125C853.8391723632812,751.9744873046875,853.5345458984375,752.2880249023438,853.15869140625,752.2880249023438C852.7828369140625,752.2880249023438,852.47802734375,751.9744873046875,852.47802734375,751.5880126953125Z" width="18" height="20" style="fill: rgb(108, 117, 125); fill-opacity: 1;"/></g></g></svg>