<svg width="15.8" xmlns="http://www.w3.org/2000/svg" height="16.798" id="screenshot-042d75e2-1c5c-8018-8006-ec7563fa7c68" viewBox="874 1789.296 15.8 16.798" xmlns:xlink="http://www.w3.org/1999/xlink" fill="none" version="1.1"><g id="shape-042d75e2-1c5c-8018-8006-ec7563fa7c68"><g class="fills" id="fills-042d75e2-1c5c-8018-8006-ec7563fa7c68"><path d="M886.800048828125,1797.2904052734375L886.800048828125,1793.2427978515625C886.800048828125,1793.0013427734375,886.70556640625,1792.7691650390625,886.5367431640625,1792.5985107421875C886.3890380859375,1792.448974609375,886.195068359375,1792.3575439453125,885.989013671875,1792.3367919921875L885.9000244140625,1792.33203125L876.300048828125,1792.33203125C876.061279296875,1792.33203125,875.83203125,1792.4276123046875,875.663330078125,1792.5985107421875C875.4945068359375,1792.7691650390625,875.4000244140625,1793.0013427734375,875.4000244140625,1793.2427978515625L875.4000244140625,1802.95703125L875.4046630859375,1803.0472412109375C875.4251708984375,1803.255615234375,875.515625,1803.451904296875,875.663330078125,1803.601318359375C875.83203125,1803.772216796875,876.061279296875,1803.8677978515625,876.300048828125,1803.8677978515625L881.5,1803.8677978515625C881.8865966796875,1803.8677978515625,882.199951171875,1804.1849365234375,882.199951171875,1804.5760498046875C882.199951171875,1804.96728515625,881.8865966796875,1805.284423828125,881.5,1805.284423828125L876.300048828125,1805.284423828125C875.6900634765625,1805.284423828125,875.104736328125,1805.0394287109375,874.6734619140625,1804.60302734375C874.2420654296875,1804.16650390625,874,1803.5743408203125,874,1802.95703125L874,1793.2427978515625C874,1792.62548828125,874.2420654296875,1792.0333251953125,874.6734619140625,1791.5968017578125C875.104736328125,1791.1602783203125,875.6900634765625,1790.9154052734375,876.300048828125,1790.9154052734375L885.9000244140625,1790.9154052734375C886.510009765625,1790.9154052734375,887.09521484375,1791.1602783203125,887.526611328125,1791.5968017578125C887.9578857421875,1792.0333251953125,888.199951171875,1792.62548828125,888.199951171875,1793.2427978515625L888.199951171875,1797.2904052734375C888.199951171875,1797.6815185546875,887.886474609375,1797.9986572265625,887.5,1797.9986572265625C887.113525390625,1797.9986572265625,886.800048828125,1797.6815185546875,886.800048828125,1797.2904052734375ZM883.5999755859375,1793.2427978515625L883.5999755859375,1790.004638671875C883.5999755859375,1789.6134033203125,883.9134521484375,1789.29638671875,884.300048828125,1789.29638671875C884.6865234375,1789.29638671875,885,1789.6134033203125,885,1790.004638671875L885,1793.2427978515625C885,1793.634033203125,884.6865234375,1793.9510498046875,884.300048828125,1793.9510498046875C883.9134521484375,1793.9510498046875,883.5999755859375,1793.634033203125,883.5999755859375,1793.2427978515625ZM886,1805.3856201171875L886,1800.5284423828125C886,1800.1373291015625,886.3134765625,1799.8201904296875,886.699951171875,1799.8201904296875C887.0865478515625,1799.8201904296875,887.4000244140625,1800.1373291015625,887.4000244140625,1800.5284423828125L887.4000244140625,1805.3856201171875C887.4000244140625,1805.7767333984375,887.0865478515625,1806.0938720703125,886.699951171875,1806.0938720703125C886.3134765625,1806.0938720703125,886,1805.7767333984375,886,1805.3856201171875ZM877.199951171875,1793.2427978515625L877.199951171875,1790.004638671875C877.199951171875,1789.6134033203125,877.513427734375,1789.29638671875,877.9000244140625,1789.29638671875C878.28662109375,1789.29638671875,878.5999755859375,1789.6134033203125,878.5999755859375,1790.004638671875L878.5999755859375,1793.2427978515625C878.5999755859375,1793.634033203125,878.28662109375,1793.9510498046875,877.9000244140625,1793.9510498046875C877.513427734375,1793.9510498046875,877.199951171875,1793.634033203125,877.199951171875,1793.2427978515625ZM889.0999755859375,1802.248779296875C889.486572265625,1802.248779296875,889.800048828125,1802.56591796875,889.800048828125,1802.95703125C889.800048828125,1803.34814453125,889.486572265625,1803.665283203125,889.0999755859375,1803.665283203125L884.300048828125,1803.665283203125C883.9134521484375,1803.665283203125,883.5999755859375,1803.34814453125,883.5999755859375,1802.95703125C883.5999755859375,1802.56591796875,883.9134521484375,1802.248779296875,884.300048828125,1802.248779296875L889.0999755859375,1802.248779296875ZM887.5,1795.7725830078125C887.886474609375,1795.7725830078125,888.199951171875,1796.089599609375,888.199951171875,1796.4808349609375C888.199951171875,1796.8720703125,887.886474609375,1797.189208984375,887.5,1797.189208984375L874.699951171875,1797.189208984375C874.3133544921875,1797.189208984375,874,1796.8720703125,874,1796.4808349609375C874,1796.089599609375,874.3133544921875,1795.7725830078125,874.699951171875,1795.7725830078125L887.5,1795.7725830078125Z" width="20" height="21" style="fill: rgb(173, 181, 189); fill-opacity: 1;"/></g></g></svg>