<svg width="32.1" xmlns="http://www.w3.org/2000/svg" height="29.153" id="screenshot-77c951b0-c077-80bc-8006-e26b1820e5c3" viewBox="1061.949 2389.917 32.1 29.153" xmlns:xlink="http://www.w3.org/1999/xlink" fill="none" version="1.1"><g id="shape-77c951b0-c077-80bc-8006-e26b1820e5c3"><g class="fills" id="fills-77c951b0-c077-80bc-8006-e26b1820e5c3"><path d="M1085.227783203125,2389.999755859375C1085.745361328125,2390.180419921875,1086.436279296875,2390.546630859375,1087.1279296875,2391.16064453125C1088.0859375,2391.990234375,1088.727783203125,2393.1259765625,1088.945068359375,2394.374755859375C1089.197021484375,2395.81689453125,1088.87646484375,2397.13671875,1088.18798828125,2398.287353515625L1088.008544921875,2398.5703125C1087.914306640625,2398.71337890625,1087.81884765625,2398.845458984375,1087.722900390625,2398.966796875C1087.786865234375,2399.1943359375,1087.84375,2399.42333984375,1087.893310546875,2399.654052734375C1088.14599609375,2399.48095703125,1088.410888671875,2399.331298828125,1088.6884765625,2399.2060546875C1089.92919921875,2398.638916015625,1091.20703125,2398.561767578125,1092.373291015625,2398.760009765625C1092.593017578125,2398.798828125,1092.761474609375,2398.835693359375,1092.878173828125,2398.87060546875C1093.373046875,2399.014892578125,1093.754638671875,2399.40966796875,1093.8828125,2399.90869140625L1093.9248046875,2400.0986328125C1093.939453125,2400.17626953125,1093.9541015625,2400.263916015625,1093.96875,2400.361083984375C1094.164794921875,2401.5947265625,1094.000732421875,2402.858642578125,1093.496337890625,2404.001220703125C1092.98291015625,2405.14892578125,1092.106689453125,2406.096923828125,1091.00244140625,2406.69873046875L1090.649658203125,2406.8740234375C1089.630126953125,2407.336181640625,1088.50390625,2407.51220703125,1087.3916015625,2407.3828125C1087.20751953125,2407.89306640625,1086.99169921875,2408.3916015625,1086.745849609375,2408.875C1087.28515625,2408.89794921875,1087.836669921875,2409.0107421875,1088.390625,2409.224853515625C1089.4580078125,2409.63330078125,1090.28515625,2410.330078125,1090.8857421875,2411.218505859375C1091.374755859375,2411.921875,1091.70068359375,2412.7255859375,1091.839599609375,2413.57080078125C1091.9130859375,2414.07666015625,1091.716064453125,2414.583984375,1091.320556640625,2414.908203125C1090.99755859375,2415.161376953125,1090.647216796875,2415.378173828125,1090.276123046875,2415.553955078125C1088.915771484375,2416.2177734375,1087.3916015625,2416.41162109375,1085.838623046875,2415.81494140625L1085.7919921875,2415.793212890625L1085.492919921875,2415.667724609375C1084.73095703125,2415.31103515625,1084.065673828125,2414.7763671875,1083.553466796875,2414.10888671875L1083.344970703125,2413.821533203125C1083.205322265625,2413.619140625,1083.07861328125,2413.408447265625,1082.9658203125,2413.190185546875C1082.537841796875,2413.47802734375,1082.085693359375,2413.72705078125,1081.61376953125,2413.935302734375C1081.7890625,2414.18994140625,1081.952880859375,2414.46240234375,1082.105224609375,2414.752197265625C1082.532470703125,2415.55712890625,1082.855712890625,2416.4130859375,1083.06787109375,2417.299560546875C1083.238037109375,2418.08154296875,1082.746826171875,2418.85400390625,1081.966796875,2419.03173828125C1081.1865234375,2419.20947265625,1080.408935546875,2418.7255859375,1080.22412109375,2417.947265625L1080.183349609375,2417.78662109375C1080.022705078125,2417.210205078125,1079.802978515625,2416.651611328125,1079.528564453125,2416.1201171875C1079.02978515625,2415.179443359375,1078.4931640625,2414.70849609375,1078,2414.70849609375C1077.50732421875,2414.70849609375,1076.970458984375,2415.179443359375,1076.471923828125,2416.12158203125C1076.257568359375,2416.5302734375,1076.07861328125,2416.956787109375,1075.9365234375,2417.39599609375L1075.81689453125,2417.7880859375L1075.776123046875,2417.94873046875C1075.591064453125,2418.726806640625,1074.8134765625,2419.210693359375,1074.033447265625,2419.033203125C1073.253662109375,2418.85546875,1072.762451171875,2418.082763671875,1072.9326171875,2417.301025390625C1073.14306640625,2416.4140625,1073.46630859375,2415.557861328125,1073.89501953125,2414.75341796875C1074.04833984375,2414.4638671875,1074.212158203125,2414.19091796875,1074.38623046875,2413.935302734375C1073.91455078125,2413.726318359375,1073.4609375,2413.478515625,1073.030029296875,2413.1943359375C1072.9189453125,2413.410888671875,1072.7939453125,2413.62060546875,1072.656494140625,2413.821533203125C1072.123046875,2414.6103515625,1071.40966796875,2415.25048828125,1070.508544921875,2415.669189453125L1070.161376953125,2415.81494140625C1068.712158203125,2416.3720703125,1067.28857421875,2416.2412109375,1065.998046875,2415.6826171875L1065.723876953125,2415.555419921875C1065.352783203125,2415.37939453125,1065.0029296875,2415.16259765625,1064.6796875,2414.909423828125C1064.2841796875,2414.58544921875,1064.087158203125,2414.078125,1064.160400390625,2413.572265625C1064.299560546875,2412.72705078125,1064.62548828125,2411.92333984375,1065.1142578125,2411.219970703125C1065.718017578125,2410.31201171875,1066.589599609375,2409.61474609375,1067.608154296875,2409.224853515625C1068.162353515625,2409.01220703125,1068.713623046875,2408.899658203125,1069.256103515625,2408.875C1069.009033203125,2408.3916015625,1068.792236328125,2407.893310546875,1068.60693359375,2407.3828125C1067.495361328125,2407.512451171875,1066.3701171875,2407.3369140625,1065.350341796875,2406.87548828125C1064.868408203125,2406.65234375,1064.4189453125,2406.3642578125,1064.014404296875,2406.01953125L1063.712890625,2405.74072265625C1063.290283203125,2405.322509765625,1062.934326171875,2404.84228515625,1062.656982421875,2404.31640625L1062.50390625,2404.001220703125C1061.934814453125,2402.71484375,1061.799560546875,2401.279052734375,1062.117431640625,2399.90869140625C1062.24560546875,2399.409423828125,1062.628173828125,2399.0146484375,1063.123779296875,2398.87060546875C1063.239501953125,2398.835693359375,1063.4072265625,2398.798828125,1063.626708984375,2398.760009765625C1064.794921875,2398.56298828125,1066.07373046875,2398.640380859375,1067.31640625,2399.208984375C1067.591552734375,2399.33447265625,1067.8564453125,2399.482421875,1068.111083984375,2399.65234375C1068.15771484375,2399.423828125,1068.212158203125,2399.1953125,1068.274658203125,2398.966796875C1068.17578125,2398.837890625,1068.08154296875,2398.70556640625,1067.991455078125,2398.5703125C1067.180908203125,2397.35693359375,1066.78125,2395.9365234375,1067.055419921875,2394.374755859375L1067.1279296875,2394.021728515625C1067.3701171875,2393.02197265625,1067.88916015625,2392.110595703125,1068.6259765625,2391.392578125L1068.872314453125,2391.16064453125C1069.42529296875,2390.655029296875,1070.0703125,2390.260986328125,1070.7724609375,2389.999755859375C1071.25927734375,2389.828857421875,1071.799560546875,2389.92724609375,1072.194580078125,2390.25927734375C1072.486083984375,2390.504150390625,1072.8681640625,2390.90966796875,1073.242919921875,2391.4697265625C1074.0537109375,2392.6845703125,1074.45361328125,2394.104736328125,1074.179443359375,2395.666748046875C1073.962158203125,2396.915771484375,1073.3203125,2398.05126953125,1072.3623046875,2398.881103515625C1071.92041015625,2399.27490234375,1071.47705078125,2399.56640625,1071.08056640625,2399.7705078125C1070.82958984375,2400.707763671875,1070.70458984375,2401.67431640625,1070.708251953125,2402.64501953125C1070.708251953125,2407.751953125,1074.04052734375,2411.79150390625,1078,2411.79150390625C1081.95947265625,2411.79150390625,1085.291748046875,2407.751953125,1085.291748046875,2402.638916015625C1085.29443359375,2401.6708984375,1085.170654296875,2400.70654296875,1084.9228515625,2399.7705078125C1084.459228515625,2399.528564453125,1084.02734375,2399.22998046875,1083.637939453125,2398.881103515625C1082.6796875,2398.05126953125,1082.037841796875,2396.915771484375,1081.821044921875,2395.666748046875C1081.546875,2394.106201171875,1081.946533203125,2392.6845703125,1082.757080078125,2391.47119140625C1083.132080078125,2390.90966796875,1083.515380859375,2390.504150390625,1083.80712890625,2390.25927734375C1084.201416015625,2389.92822265625,1084.74169921875,2389.829345703125,1085.227783203125,2389.999755859375" style="fill: rgb(187, 153, 68);"/></g></g></svg>