<svg width="38" height="38" viewBox="0 0 38 38" fill="none" xmlns="http://www.w3.org/2000/svg">
<path d="M26.9196 15.4059L29.1824 13.1431C29.8072 12.5183 30.8203 12.5183 31.4451 13.1431C32.07 13.768 32.07 14.781 31.4451 15.4059L29.1824 17.6686C28.5575 18.2934 27.5445 18.2934 26.9196 17.6686C26.2948 17.0438 26.2948 16.0307 26.9196 15.4059Z" fill="#495057"/>
<path d="M20.1314 22.1941L22.3942 19.9313C23.019 19.3065 24.0321 19.3065 24.6569 19.9313C25.2817 20.5562 25.2817 21.5693 24.6569 22.1941L22.3942 24.4568C21.7693 25.0817 20.7563 25.0817 20.1314 24.4568C19.5066 23.832 19.5066 22.8189 20.1314 22.1941Z" fill="#495057"/>
<path d="M13.3432 28.9823L15.6059 26.7196C16.2308 26.0947 17.2438 26.0947 17.8687 26.7196C18.4935 27.3444 18.4935 28.3575 17.8687 28.9823L15.6059 31.2451C14.9811 31.8699 13.968 31.8699 13.3432 31.2451C12.7184 30.6202 12.7184 29.6072 13.3432 28.9823Z" fill="#495057"/>
<path d="M33.7079 22.1941C34.0079 21.894 34.1763 21.4871 34.1763 21.0627C34.1763 20.6913 34.0473 20.3332 33.8139 20.0485L33.7079 19.9313L17.8687 4.09216C17.5686 3.7921 17.1617 3.6237 16.7373 3.6237C16.313 3.6237 15.906 3.7921 15.6059 4.09216L13.1454 6.55267C13.4506 7.19223 13.6172 7.8955 13.6172 8.61764C13.6172 9.89068 13.112 11.1116 12.2118 12.0118L11.8594 12.3311C11.0053 13.0307 9.93143 13.4171 8.81771 13.4171C8.09574 13.4171 7.39328 13.2493 6.75384 12.9442L4.29223 15.4059C3.99217 15.7059 3.82377 16.1129 3.82377 16.5372C3.82377 16.9616 3.99217 17.3685 4.29223 17.6686L20.1314 33.5078C20.4315 33.8079 20.8384 33.9763 21.2628 33.9763C21.6871 33.9763 22.0941 33.8079 22.3942 33.5078L24.8558 31.0462C24.5508 30.4067 24.3829 29.7043 24.3829 28.9823C24.3829 27.7093 24.8881 26.4884 25.7883 25.5882C26.6884 24.688 27.9093 24.1828 29.1824 24.1828C29.9045 24.1828 30.6078 24.3494 31.2474 24.6546L33.7079 22.1941ZM32.5765 27.8509C31.9517 28.4758 30.9386 28.4758 30.3138 27.8509C30.0137 27.5509 29.6067 27.3825 29.1824 27.3825C28.758 27.3825 28.3511 27.5509 28.051 27.8509C27.751 28.151 27.5826 28.558 27.5826 28.9823C27.5826 29.4067 27.751 29.8136 28.051 30.1137C28.6759 30.7385 28.6759 31.7516 28.051 32.3764L24.6569 35.7705C23.7567 36.6707 22.5358 37.1759 21.2628 37.1759C19.9898 37.1759 18.7689 36.6707 17.8687 35.7705L2.02948 19.9313C1.12931 19.0312 0.624109 17.8103 0.624109 16.5372C0.624109 15.2642 1.12931 14.0433 2.02948 13.1431L5.4236 9.74901C6.04844 9.12417 7.0615 9.12417 7.68634 9.74901C7.9864 10.0491 8.39336 10.2175 8.81771 10.2175C9.18912 10.2175 9.54721 10.0885 9.83197 9.85508L9.94908 9.74901C10.2491 9.44895 10.4175 9.04199 10.4175 8.61764C10.4175 8.19329 10.2491 7.78633 9.94908 7.48627C9.32424 6.86143 9.32424 5.84837 9.94908 5.22353L13.3432 1.82942C14.2434 0.929241 15.4643 0.424041 16.7373 0.424041C18.0103 0.424041 19.2312 0.929241 20.1314 1.82942L35.9706 17.6686C36.8708 18.5688 37.376 19.7897 37.376 21.0627C37.376 22.3358 36.8708 23.5567 35.9706 24.4568L32.5765 27.8509Z" fill="#495057"/>
</svg>
