<svg width="35" xmlns="http://www.w3.org/2000/svg" height="35" id="screenshot-77c951b0-c077-80bc-8006-e26b1820e5ca" viewBox="0 0 35 35" xmlns:xlink="http://www.w3.org/1999/xlink" fill="none" version="1.1"><g id="shape-77c951b0-c077-80bc-8006-e26b1820e5ca" class="svg-icon" rx="0" ry="0" style="fill: rgb(0, 0, 0);"><g id="shape-77c951b0-c077-80bc-8006-e26b1820e5cc" style="display: none;"><g class="fills" id="fills-77c951b0-c077-80bc-8006-e26b1820e5cc"><rect width="35" height="35" x="0" transform="matrix(1.000000, 0.000000, 0.000000, 1.000000, 0.000000, 0.000000)" style="overflow: hidden; vertical-align: middle; fill: rgb(33, 158, 188); fill-opacity: 1;" ry="0" fill="none" rx="0" y="0"/></g></g><g id="shape-77c951b0-c077-80bc-8006-e26b1820e5cd"><g class="fills" id="fills-77c951b0-c077-80bc-8006-e26b1820e5cd"><path d="M25.40478515625,18.080810546875C25.37939453125,18.10595703125,25.354248046875,18.13134765625,25.328857421875,18.150146484375C25.303466796875,18.175537109375,25.27197265625,18.194580078125,25.246826171875,18.213623046875C25.215087890625,18.232666015625,25.18994140625,18.25146484375,25.158203125,18.270263671875C25.126708984375,18.289306640625,25.09521484375,18.302001953125,25.0634765625,18.314697265625C25.031982421875,18.327392578125,25.000244140625,18.33984375,24.96240234375,18.3525390625C24.930908203125,18.364990234375,24.892822265625,18.37158203125,24.861328125,18.3779296875C24.829833984375,18.384033203125,24.791748046875,18.390380859375,24.76025390625,18.390380859375C24.722412109375,18.39697265625,24.690673828125,18.39697265625,24.65283203125,18.39697265625C24.614990234375,18.39697265625,24.583251953125,18.39697265625,24.54541015625,18.390380859375C24.507568359375,18.384033203125,24.475830078125,18.384033203125,24.444091796875,18.3779296875C24.41259765625,18.37158203125,24.374755859375,18.364990234375,24.34326171875,18.3525390625C24.3115234375,18.33984375,24.27978515625,18.33349609375,24.241943359375,18.314697265625C24.21044921875,18.302001953125,24.178955078125,18.289306640625,24.147216796875,18.270263671875C24.11572265625,18.25146484375,24.083984375,18.23876953125,24.058837890625,18.213623046875C24.027099609375,18.194580078125,24.001953125,18.175537109375,23.9765625,18.150146484375C23.951416015625,18.125,23.926025390625,18.10595703125,23.90087890625,18.080810546875L23.13623046875,17.316162109375C23.11083984375,17.290771484375,23.085693359375,17.265625,23.066650390625,17.240478515625C23.041259765625,17.215087890625,23.0224609375,17.18359375,23.00341796875,17.158447265625C22.984619140625,17.12646484375,22.965576171875,17.101318359375,22.946533203125,17.06982421875C22.927734375,17.038330078125,22.9150390625,17.006591796875,22.90234375,16.97509765625C22.889892578125,16.943603515625,22.877197265625,16.91162109375,22.864501953125,16.8740234375C22.851806640625,16.84228515625,22.845458984375,16.804443359375,22.839111328125,16.772705078125C22.832763671875,16.7412109375,22.826416015625,16.703125,22.8203125,16.665283203125C22.81396484375,16.62744140625,22.81396484375,16.595947265625,22.81396484375,16.557861328125C22.81396484375,16.52001953125,22.81396484375,16.48828125,22.8203125,16.450439453125C22.826416015625,16.41259765625,22.826416015625,16.381103515625,22.832763671875,16.343017578125C22.839111328125,16.3115234375,22.845458984375,16.2734375,22.858154296875,16.241943359375C22.870849609375,16.21044921875,22.877197265625,16.17236328125,22.89599609375,16.140869140625C22.90869140625,16.109375,22.927734375,16.07763671875,22.940185546875,16.046142578125C22.959228515625,16.0146484375,22.971923828125,15.98291015625,22.997314453125,15.95751953125C23.01611328125,15.926025390625,23.03515625,15.90087890625,23.060302734375,15.87548828125C23.085693359375,15.850341796875,23.104736328125,15.824951171875,23.1298828125,15.7998046875C23.155029296875,15.774169921875,23.180419921875,15.7490234375,23.20556640625,15.730224609375C23.23095703125,15.704833984375,23.262451171875,15.68603515625,23.287841796875,15.6669921875C23.319580078125,15.64794921875,23.3447265625,15.62890625,23.37646484375,15.610107421875C23.407958984375,15.591064453125,23.439453125,15.578369140625,23.470947265625,15.56591796875C23.502685546875,15.55322265625,23.534423828125,15.54052734375,23.572265625,15.52783203125C23.603759765625,15.515380859375,23.641845703125,15.5087890625,23.67333984375,15.502685546875C23.704833984375,15.496337890625,23.74267578125,15.489990234375,23.78076171875,15.489990234375C23.818603515625,15.489990234375,23.85009765625,15.483642578125,23.88818359375,15.483642578125C23.926025390625,15.483642578125,23.95751953125,15.483642578125,23.99560546875,15.489990234375C24.033447265625,15.496337890625,24.06494140625,15.496337890625,24.10302734375,15.5087890625C24.134521484375,15.515380859375,24.17236328125,15.52783203125,24.2041015625,15.5341796875C24.23583984375,15.546875,24.273681640625,15.559326171875,24.30517578125,15.572021484375C24.336669921875,15.5849609375,24.368408203125,15.603759765625,24.400146484375,15.616455078125C24.431640625,15.635498046875,24.463134765625,15.654052734375,24.488525390625,15.673095703125C24.513671875,15.692138671875,24.54541015625,15.717529296875,24.570556640625,15.736572265625C24.595947265625,15.76171875,24.62109375,15.78076171875,24.646484375,15.805908203125L25.410888671875,16.570556640625C25.436279296875,16.595947265625,25.461669921875,16.62109375,25.48046875,16.646240234375C25.505859375,16.671630859375,25.52490234375,16.703125,25.543701171875,16.728759765625C25.562744140625,16.76025390625,25.581787109375,16.785400390625,25.6005859375,16.81689453125C25.61962890625,16.8486328125,25.63232421875,16.880126953125,25.644775390625,16.91162109375C25.657470703125,16.943603515625,25.670166015625,16.97509765625,25.682861328125,17.012939453125C25.6953125,17.04443359375,25.70166015625,17.082275390625,25.7080078125,17.114013671875C25.71435546875,17.1455078125,25.720703125,17.18359375,25.720703125,17.215087890625C25.72705078125,17.253173828125,25.72705078125,17.28466796875,25.72705078125,17.32275390625C25.72705078125,17.3603515625,25.72705078125,17.391845703125,25.720703125,17.429931640625C25.71435546875,17.468017578125,25.71435546875,17.49951171875,25.7080078125,17.531005859375C25.70166015625,17.562744140625,25.6953125,17.6005859375,25.682861328125,17.63232421875C25.670166015625,17.663818359375,25.663818359375,17.6953125,25.644775390625,17.7333984375C25.63232421875,17.764892578125,25.61962890625,17.79638671875,25.6005859375,17.828125C25.581787109375,17.859619140625,25.569091796875,17.89111328125,25.543701171875,17.91650390625C25.52490234375,17.9482421875,25.505859375,17.973388671875,25.48046875,17.998779296875C25.455322265625,18.0302734375,25.436279296875,18.055419921875,25.40478515625,18.080810546875ZM22.441162109375,15.11083984375C22.415771484375,15.13623046875,22.390625,15.161376953125,22.365234375,15.180419921875C22.33984375,15.205810546875,22.308349609375,15.224365234375,22.283203125,15.243408203125C22.25146484375,15.262451171875,22.226318359375,15.281494140625,22.194580078125,15.300537109375C22.1630859375,15.3193359375,22.13134765625,15.33203125,22.099853515625,15.344482421875C22.068359375,15.357177734375,22.03662109375,15.369873046875,21.998779296875,15.382568359375C21.967041015625,15.395263671875,21.92919921875,15.401611328125,21.897705078125,15.40771484375C21.865966796875,15.4140625,21.828125,15.420654296875,21.796630859375,15.420654296875C21.758544921875,15.4267578125,21.72705078125,15.4267578125,21.689208984375,15.4267578125C21.651123046875,15.4267578125,21.61962890625,15.4267578125,21.581787109375,15.420654296875C21.543701171875,15.4140625,21.51220703125,15.4140625,21.48046875,15.40771484375C21.448974609375,15.401611328125,21.410888671875,15.395263671875,21.37939453125,15.382568359375C21.347900390625,15.369873046875,21.316162109375,15.363525390625,21.2783203125,15.344482421875C21.246826171875,15.33203125,21.215087890625,15.3193359375,21.18359375,15.300537109375C21.152099609375,15.281494140625,21.120361328125,15.268798828125,21.09521484375,15.243408203125C21.0634765625,15.224365234375,21.038330078125,15.205810546875,21.012939453125,15.180419921875C20.98779296875,15.155029296875,20.96240234375,15.13623046875,20.937255859375,15.11083984375L20.2041015625,14.3779296875C20.178955078125,14.3525390625,20.159912109375,14.327392578125,20.134521484375,14.302001953125C20.11572265625,14.27685546875,20.09033203125,14.2451171875,20.071533203125,14.2197265625C20.052490234375,14.188232421875,20.033447265625,14.1630859375,20.02099609375,14.13134765625C20.00830078125,14.099853515625,19.9892578125,14.068115234375,19.9765625,14.036376953125C19.964111328125,14.0048828125,19.951416015625,13.973388671875,19.945068359375,13.935302734375C19.932373046875,13.90380859375,19.926025390625,13.865966796875,19.919677734375,13.83447265625C19.91357421875,13.802978515625,19.906982421875,13.764892578125,19.906982421875,13.7333984375C19.906982421875,13.70166015625,19.90087890625,13.663818359375,19.90087890625,13.63232421875C19.90087890625,13.6005859375,19.90087890625,13.562744140625,19.906982421875,13.531005859375C19.91357421875,13.49951171875,19.91357421875,13.46142578125,19.926025390625,13.429931640625C19.932373046875,13.3984375,19.938720703125,13.3603515625,19.951416015625,13.328857421875C19.964111328125,13.297119140625,19.97021484375,13.265625,19.9892578125,13.234130859375C20.001953125,13.202392578125,20.014404296875,13.1708984375,20.033447265625,13.139404296875C20.052490234375,13.107666015625,20.06494140625,13.075927734375,20.083984375,13.05078125C20.10302734375,13.019287109375,20.121826171875,12.993896484375,20.147216796875,12.96875C20.17236328125,12.943603515625,20.19140625,12.918212890625,20.216796875,12.892822265625C20.241943359375,12.867431640625,20.267333984375,12.84228515625,20.29248046875,12.823486328125C20.31787109375,12.804443359375,20.349365234375,12.779052734375,20.374755859375,12.76025390625C20.400146484375,12.7412109375,20.431640625,12.72216796875,20.463134765625,12.709716796875C20.49462890625,12.690673828125,20.5263671875,12.677978515625,20.55810546875,12.665283203125L20.65283203125,12.62744140625C20.684326171875,12.61474609375,20.722412109375,12.608642578125,20.75390625,12.60205078125C20.785400390625,12.595947265625,20.823486328125,12.589599609375,20.85498046875,12.589599609375C20.886474609375,12.5830078125,20.924560546875,12.5830078125,20.9560546875,12.5830078125C20.98779296875,12.5830078125,21.025634765625,12.5830078125,21.05712890625,12.589599609375C21.088623046875,12.589599609375,21.126708984375,12.595947265625,21.158203125,12.60205078125C21.18994140625,12.608642578125,21.227783203125,12.61474609375,21.259521484375,12.62744140625C21.291015625,12.64013671875,21.322509765625,12.646240234375,21.360595703125,12.6591796875C21.39208984375,12.671630859375,21.423828125,12.684326171875,21.455322265625,12.703125C21.48681640625,12.72216796875,21.518310546875,12.73486328125,21.543701171875,12.75390625C21.575439453125,12.772705078125,21.6005859375,12.791748046875,21.625732421875,12.81689453125C21.651123046875,12.8359375,21.676513671875,12.861083984375,21.70166015625,12.886474609375L22.434814453125,13.61962890625C22.460205078125,13.644775390625,22.4853515625,13.670166015625,22.504150390625,13.6953125C22.523193359375,13.720458984375,22.548583984375,13.75244140625,22.567626953125,13.777587890625C22.58642578125,13.80908203125,22.60546875,13.83447265625,22.624267578125,13.865966796875C22.643310546875,13.897705078125,22.656005859375,13.92919921875,22.66845703125,13.960693359375C22.68115234375,13.992431640625,22.69384765625,14.02392578125,22.70654296875,14.06201171875C22.718994140625,14.093505859375,22.725341796875,14.13134765625,22.731689453125,14.1630859375C22.738037109375,14.194580078125,22.744384765625,14.232666015625,22.744384765625,14.26416015625C22.750732421875,14.302001953125,22.750732421875,14.33349609375,22.750732421875,14.37158203125C22.750732421875,14.409423828125,22.750732421875,14.44091796875,22.744384765625,14.47900390625C22.738037109375,14.516845703125,22.738037109375,14.54833984375,22.731689453125,14.579833984375C22.725341796875,14.61181640625,22.718994140625,14.6494140625,22.70654296875,14.68115234375C22.69384765625,14.712646484375,22.6875,14.75048828125,22.66845703125,14.7822265625C22.656005859375,14.813720703125,22.643310546875,14.84521484375,22.624267578125,14.877197265625C22.60546875,14.90869140625,22.5927734375,14.940185546875,22.567626953125,14.965576171875C22.548583984375,14.9970703125,22.529541015625,15.0224609375,22.504150390625,15.047607421875C22.498046875,15.06005859375,22.47265625,15.085693359375,22.441162109375,15.11083984375ZM19.509033203125,12.1787109375C19.48388671875,12.2041015625,19.45849609375,12.2294921875,19.43310546875,12.248291015625C19.407958984375,12.2734375,19.37646484375,12.29248046875,19.35107421875,12.3115234375C19.319580078125,12.33056640625,19.294189453125,12.349365234375,19.262451171875,12.3681640625C19.23095703125,12.38720703125,19.199462890625,12.39990234375,19.167724609375,12.41259765625C19.13623046875,12.42529296875,19.104736328125,12.437744140625,19.066650390625,12.450439453125C19.03515625,12.463134765625,18.997314453125,12.469482421875,18.965576171875,12.475830078125C18.933837890625,12.48193359375,18.89599609375,12.48828125,18.864501953125,12.48828125C18.832763671875,12.48828125,18.794921875,12.494873046875,18.757080078125,12.494873046875C18.718994140625,12.494873046875,18.6875,12.494873046875,18.649658203125,12.48828125C18.617919921875,12.48193359375,18.580078125,12.48193359375,18.548583984375,12.475830078125C18.516845703125,12.469482421875,18.47900390625,12.463134765625,18.447265625,12.450439453125C18.415771484375,12.437744140625,18.38427734375,12.431396484375,18.34619140625,12.41259765625C18.314697265625,12.39990234375,18.283203125,12.38720703125,18.25146484375,12.3681640625C18.219970703125,12.349365234375,18.188232421875,12.336669921875,18.1630859375,12.3115234375C18.13134765625,12.29248046875,18.106201171875,12.2734375,18.080810546875,12.248291015625C18.0556640625,12.222900390625,18.0302734375,12.2041015625,18.005126953125,12.1787109375L17.27197265625,11.44580078125C17.246826171875,11.420654296875,17.221435546875,11.395263671875,17.20263671875,11.369873046875C17.17724609375,11.344482421875,17.158203125,11.31298828125,17.139404296875,11.287841796875C17.120361328125,11.25634765625,17.101318359375,11.23095703125,17.08251953125,11.19921875C17.0634765625,11.167724609375,17.05078125,11.13623046875,17.038330078125,11.1044921875C17.025634765625,11.072998046875,17.012939453125,11.04150390625,17.000244140625,11.00341796875C16.98779296875,10.971923828125,16.981201171875,10.933837890625,16.97509765625,10.90234375C16.96875,10.870849609375,16.96240234375,10.832763671875,16.96240234375,10.80126953125C16.96240234375,10.76953125,16.9560546875,10.731689453125,16.9560546875,10.69384765625C16.9560546875,10.656005859375,16.9560546875,10.624267578125,16.96240234375,10.58642578125C16.96875,10.54833984375,16.96875,10.516845703125,16.97509765625,10.485107421875C16.981201171875,10.45361328125,16.98779296875,10.41552734375,17.000244140625,10.384033203125C17.012939453125,10.3525390625,17.019287109375,10.32080078125,17.038330078125,10.282958984375C17.05078125,10.25146484375,17.0634765625,10.2197265625,17.08251953125,10.188232421875C17.101318359375,10.15673828125,17.114013671875,10.125,17.139404296875,10.099853515625C17.158203125,10.068115234375,17.17724609375,10.04296875,17.20263671875,10.017822265625C17.227783203125,9.992431640625,17.246826171875,9.96728515625,17.27197265625,9.94189453125C17.29736328125,9.91650390625,17.322509765625,9.89111328125,17.347900390625,9.872314453125C17.373046875,9.84716796875,17.40478515625,9.828125,17.429931640625,9.80908203125C17.461669921875,9.7900390625,17.48681640625,9.77099609375,17.518310546875,9.75244140625C17.550048828125,9.7333984375,17.581787109375,9.720458984375,17.61328125,9.7080078125C17.644775390625,9.6953125,17.676513671875,9.682861328125,17.71435546875,9.670166015625C17.752197265625,9.657470703125,17.783935546875,9.651123046875,17.8154296875,9.644775390625C17.84716796875,9.638427734375,17.885009765625,9.63232421875,17.91650390625,9.63232421875C17.95458984375,9.625732421875,17.986083984375,9.625732421875,18.02392578125,9.625732421875C18.06201171875,9.625732421875,18.093505859375,9.625732421875,18.13134765625,9.63232421875C18.16943359375,9.638427734375,18.200927734375,9.638427734375,18.232421875,9.644775390625C18.26416015625,9.651123046875,18.302001953125,9.657470703125,18.333740234375,9.670166015625C18.365234375,9.682861328125,18.396728515625,9.68896484375,18.434814453125,9.7080078125C18.46630859375,9.720458984375,18.498046875,9.7333984375,18.529541015625,9.75244140625C18.56103515625,9.77099609375,18.5927734375,9.783935546875,18.617919921875,9.80908203125C18.649658203125,9.828125,18.675048828125,9.84716796875,18.7001953125,9.872314453125C18.725341796875,9.897705078125,18.750732421875,9.91650390625,18.77587890625,9.94189453125L19.509033203125,10.6748046875C19.534423828125,10.699951171875,19.5595703125,10.725341796875,19.57861328125,10.75048828125C19.597412109375,10.776123046875,19.622802734375,10.8076171875,19.641845703125,10.832763671875C19.66064453125,10.858154296875,19.6796875,10.8896484375,19.69873046875,10.92138671875C19.717529296875,10.952880859375,19.730224609375,10.984375,19.74267578125,11.01611328125C19.75537109375,11.047607421875,19.76806640625,11.0791015625,19.78076171875,11.1171875C19.79345703125,11.148681640625,19.799560546875,11.186767578125,19.80615234375,11.21826171875C19.812255859375,11.249755859375,19.818603515625,11.287841796875,19.818603515625,11.3193359375C19.824951171875,11.357177734375,19.824951171875,11.388916015625,19.824951171875,11.4267578125C19.824951171875,11.464599609375,19.824951171875,11.496337890625,19.818603515625,11.5341796875C19.812255859375,11.572021484375,19.812255859375,11.603759765625,19.80615234375,11.635498046875C19.799560546875,11.6669921875,19.79345703125,11.704833984375,19.78076171875,11.736572265625C19.76806640625,11.76806640625,19.76171875,11.805908203125,19.74267578125,11.83740234375C19.730224609375,11.868896484375,19.717529296875,11.90087890625,19.69873046875,11.932373046875C19.6796875,11.9638671875,19.6669921875,11.99560546875,19.641845703125,12.020751953125C19.622802734375,12.05224609375,19.603759765625,12.07763671875,19.57861328125,12.102783203125C19.5595703125,12.128173828125,19.54052734375,12.1533203125,19.509033203125,12.1787109375ZM16.576904296875,9.24658203125C16.551513671875,9.27197265625,16.5263671875,9.297119140625,16.501220703125,9.316162109375C16.475830078125,9.34130859375,16.444091796875,9.3603515625,16.4189453125,9.37939453125C16.38720703125,9.3984375,16.362060546875,9.417236328125,16.33056640625,9.436279296875C16.298828125,9.455322265625,16.267333984375,9.468017578125,16.23583984375,9.48046875C16.2041015625,9.4931640625,16.17236328125,9.505615234375,16.134521484375,9.5185546875C16.0966796875,9.531005859375,16.06494140625,9.53759765625,16.033447265625,9.543701171875C16.001953125,9.550048828125,15.964111328125,9.55615234375,15.932373046875,9.55615234375C15.90087890625,9.55615234375,15.86279296875,9.562744140625,15.824951171875,9.562744140625C15.787109375,9.562744140625,15.75537109375,9.562744140625,15.717529296875,9.55615234375C15.6796875,9.550048828125,15.64794921875,9.550048828125,15.616455078125,9.543701171875C15.584716796875,9.53759765625,15.546875,9.531005859375,15.515380859375,9.5185546875C15.48388671875,9.505615234375,15.4521484375,9.49951171875,15.414306640625,9.48046875C15.382568359375,9.468017578125,15.35107421875,9.455322265625,15.319580078125,9.436279296875C15.287841796875,9.417236328125,15.256103515625,9.40478515625,15.23095703125,9.37939453125C15.20556640625,9.354248046875,15.174072265625,9.34130859375,15.148681640625,9.316162109375C15.12353515625,9.290771484375,15.09814453125,9.27197265625,15.072998046875,9.24658203125L14.308349609375,8.48193359375C14.283203125,8.456787109375,14.26416015625,8.431396484375,14.23876953125,8.40625C14.219970703125,8.381103515625,14.194580078125,8.349365234375,14.17578125,8.32421875C14.15673828125,8.29248046875,14.1376953125,8.26708984375,14.125,8.235595703125C14.106201171875,8.2041015625,14.093505859375,8.17236328125,14.080810546875,8.140869140625C14.068359375,8.109375,14.0556640625,8.07763671875,14.04931640625,8.039794921875C14.03662109375,8.008056640625,14.0302734375,7.97021484375,14.02392578125,7.9384765625C14.017578125,7.906982421875,14.011474609375,7.868896484375,14.011474609375,7.83740234375C14.011474609375,7.805908203125,14.005126953125,7.76806640625,14.005126953125,7.736572265625C14.005126953125,7.704833984375,14.005126953125,7.6669921875,14.011474609375,7.635498046875C14.017578125,7.603759765625,14.017578125,7.56591796875,14.0302734375,7.5341796875C14.03662109375,7.502685546875,14.04296875,7.464599609375,14.0556640625,7.43310546875C14.068359375,7.401611328125,14.074462890625,7.369873046875,14.093505859375,7.33837890625C14.106201171875,7.306884765625,14.118896484375,7.275146484375,14.1376953125,7.243408203125C14.15673828125,7.2119140625,14.16943359375,7.180419921875,14.188232421875,7.155029296875C14.207275390625,7.12353515625,14.226318359375,7.09814453125,14.25146484375,7.072998046875C14.27685546875,7.047607421875,14.295654296875,7.0224609375,14.321044921875,6.9970703125C14.34619140625,6.971923828125,14.37158203125,6.946533203125,14.396728515625,6.927490234375C14.422119140625,6.90869140625,14.45361328125,6.88330078125,14.47900390625,6.8642578125C14.510498046875,6.84521484375,14.535888671875,6.82666015625,14.567626953125,6.813720703125C14.59912109375,6.80126953125,14.630615234375,6.7822265625,14.662353515625,6.76953125L14.757080078125,6.731689453125C14.78857421875,6.718994140625,14.826416015625,6.712646484375,14.858154296875,6.70654296875C14.889892578125,6.699951171875,14.927734375,6.69384765625,14.959228515625,6.6875C14.99072265625,6.68115234375,15.02880859375,6.68115234375,15.060302734375,6.68115234375C15.092041015625,6.68115234375,15.1298828125,6.68115234375,15.161376953125,6.6875C15.193115234375,6.69384765625,15.23095703125,6.69384765625,15.262451171875,6.699951171875C15.294189453125,6.70654296875,15.33203125,6.712646484375,15.363525390625,6.725341796875C15.395263671875,6.738037109375,15.427001953125,6.744384765625,15.46484375,6.757080078125C15.496337890625,6.76953125,15.52783203125,6.7822265625,15.5595703125,6.80126953125C15.59130859375,6.820068359375,15.622802734375,6.832763671875,15.64794921875,6.851806640625C15.6796875,6.870849609375,15.704833984375,6.8896484375,15.730224609375,6.914794921875C15.75537109375,6.933837890625,15.78076171875,6.959228515625,15.80615234375,6.984375L16.570556640625,7.7490234375C16.595947265625,7.774169921875,16.62109375,7.7998046875,16.64013671875,7.824951171875C16.66552734375,7.850341796875,16.684326171875,7.8818359375,16.703369140625,7.906982421875C16.722412109375,7.9384765625,16.7412109375,7.9638671875,16.76025390625,7.99560546875C16.779052734375,8.027099609375,16.791748046875,8.05859375,16.804443359375,8.09033203125C16.817138671875,8.121826171875,16.829833984375,8.1533203125,16.84228515625,8.19140625C16.85498046875,8.222900390625,16.861328125,8.260986328125,16.86767578125,8.29248046875C16.873779296875,8.32421875,16.88037109375,8.362060546875,16.88037109375,8.3935546875C16.886474609375,8.431396484375,16.886474609375,8.463134765625,16.886474609375,8.5009765625C16.886474609375,8.5390625,16.886474609375,8.570556640625,16.88037109375,8.608642578125C16.873779296875,8.646240234375,16.873779296875,8.677978515625,16.86767578125,8.709716796875C16.861328125,8.7412109375,16.85498046875,8.779052734375,16.84228515625,8.810791015625C16.829833984375,8.84228515625,16.823486328125,8.8740234375,16.804443359375,8.91162109375C16.791748046875,8.943603515625,16.779052734375,8.97509765625,16.76025390625,9.006591796875C16.7412109375,9.038330078125,16.728515625,9.06982421875,16.703369140625,9.094970703125C16.684326171875,9.12646484375,16.66552734375,9.15185546875,16.64013671875,9.177001953125C16.62744140625,9.196044921875,16.60205078125,9.221435546875,16.576904296875,9.24658203125ZM31.799560546875,11.21826171875L28.861328125,8.280029296875C28.829833984375,8.248291015625,28.804443359375,8.222900390625,28.766357421875,8.19775390625C28.73486328125,8.17236328125,28.703369140625,8.147216796875,28.66552734375,8.121826171875C28.62744140625,8.0966796875,28.595947265625,8.07763671875,28.55810546875,8.05859375L28.444091796875,8.001708984375C28.40625,7.98291015625,28.368408203125,7.97021484375,28.33056640625,7.95751953125C28.29248046875,7.945068359375,28.254638671875,7.932373046875,28.21044921875,7.926025390625C28.17236328125,7.919677734375,28.12841796875,7.906982421875,28.09033203125,7.906982421875C28.052490234375,7.90087890625,28.00830078125,7.90087890625,27.97021484375,7.89453125C27.932373046875,7.887939453125,27.88818359375,7.89453125,27.843994140625,7.89453125C27.799560546875,7.89453125,27.76171875,7.90087890625,27.723876953125,7.906982421875C27.68603515625,7.913330078125,27.641845703125,7.919677734375,27.603759765625,7.932373046875C27.56591796875,7.945068359375,27.521728515625,7.951416015625,27.48388671875,7.97021484375C27.44580078125,7.98291015625,27.407958984375,8.001708984375,27.369873046875,8.0146484375C27.33203125,8.033447265625,27.294189453125,8.05224609375,27.262451171875,8.0712890625C27.23095703125,8.09033203125,27.193115234375,8.11572265625,27.155029296875,8.134521484375L27.060302734375,8.21044921875C27.009765625,8.254638671875,26.959228515625,8.29248046875,26.90869140625,8.32421875C26.858154296875,8.355712890625,26.80126953125,8.3935546875,26.750732421875,8.42529296875C26.69384765625,8.456787109375,26.636962890625,8.48828125,26.580078125,8.513916015625C26.523193359375,8.5390625,26.460205078125,8.564208984375,26.403076171875,8.5830078125C26.34619140625,8.60205078125,26.283203125,8.62109375,26.219970703125,8.64013671875L26.0302734375,8.677978515625L25.8408203125,8.69677734375C25.777587890625,8.703125,25.71435546875,8.703125,25.651123046875,8.69677734375C25.587890625,8.69677734375,25.52490234375,8.690673828125,25.461669921875,8.677978515625C25.3984375,8.665283203125,25.335205078125,8.6591796875,25.27197265625,8.646240234375C25.208740234375,8.6337890625,25.145751953125,8.61474609375,25.088623046875,8.595947265625C25.025634765625,8.576904296875,24.96875,8.551513671875,24.911865234375,8.5263671875C24.85498046875,8.5009765625,24.798095703125,8.475830078125,24.7412109375,8.4443359375C24.684326171875,8.41259765625,24.6337890625,8.381103515625,24.576904296875,8.343017578125L24.42529296875,8.2294921875C24.374755859375,8.19140625,24.33056640625,8.147216796875,24.286376953125,8.102783203125C24.241943359375,8.05859375,24.19775390625,8.008056640625,24.159912109375,7.9638671875L24.046142578125,7.812255859375C24.00830078125,7.76171875,23.9765625,7.704833984375,23.945068359375,7.64794921875C23.91357421875,7.591064453125,23.88818359375,7.5341796875,23.86279296875,7.477294921875C23.837646484375,7.420654296875,23.812255859375,7.357177734375,23.79345703125,7.300537109375C23.7744140625,7.2373046875,23.75537109375,7.180419921875,23.74267578125,7.1171875C23.730224609375,7.053955078125,23.717529296875,6.990966796875,23.711181640625,6.927490234375L23.692138671875,6.738037109375L23.692138671875,6.54833984375L23.711181640625,6.35888671875C23.717529296875,6.295654296875,23.730224609375,6.232666015625,23.749267578125,6.169189453125C23.76171875,6.10595703125,23.78076171875,6.04931640625,23.80615234375,5.98583984375C23.824951171875,5.9228515625,23.85009765625,5.865966796875,23.87548828125,5.80908203125C23.90087890625,5.75244140625,23.932373046875,5.6953125,23.964111328125,5.638427734375C23.99560546875,5.58154296875,24.027099609375,5.531005859375,24.06494140625,5.48046875L24.178955078125,5.328857421875L24.254638671875,5.234130859375C24.27978515625,5.202392578125,24.298828125,5.16455078125,24.31787109375,5.12646484375C24.336669921875,5.0888671875,24.355712890625,5.05712890625,24.374755859375,5.019287109375C24.393798828125,4.981201171875,24.40625,4.943603515625,24.4189453125,4.905517578125C24.431640625,4.867431640625,24.444091796875,4.82958984375,24.456787109375,4.785400390625C24.469482421875,4.747314453125,24.475830078125,4.703125,24.482177734375,4.665283203125C24.488525390625,4.62744140625,24.49462890625,4.5830078125,24.49462890625,4.54541015625L24.49462890625,4.4189453125C24.49462890625,4.374755859375,24.488525390625,4.336669921875,24.482177734375,4.299072265625C24.475830078125,4.260986328125,24.469482421875,4.216552734375,24.463134765625,4.1787109375C24.456787109375,4.140869140625,24.444091796875,4.0966796875,24.431640625,4.05859375C24.4189453125,4.020751953125,24.40625,3.98291015625,24.38720703125,3.945068359375C24.368408203125,3.906982421875,24.355712890625,3.868896484375,24.33056640625,3.831298828125C24.3115234375,3.793212890625,24.286376953125,3.76171875,24.267333984375,3.7236328125C24.241943359375,3.692138671875,24.216796875,3.654052734375,24.19140625,3.62255859375C24.166259765625,3.591064453125,24.140869140625,3.559326171875,24.109375,3.52783203125L21.16455078125,0.5830078125C21.133056640625,0.551513671875,21.101318359375,0.5263671875,21.06982421875,0.494873046875C21.038330078125,0.469482421875,21.000244140625,0.4443359375,20.96240234375,0.4189453125C20.924560546875,0.3935546875,20.886474609375,0.374755859375,20.8486328125,0.349365234375C20.810791015625,0.33056640625,20.77294921875,0.3115234375,20.728515625,0.29248046875C20.690673828125,0.2734375,20.646484375,0.260986328125,20.608642578125,0.248291015625C20.564208984375,0.235595703125,20.5263671875,0.222900390625,20.482177734375,0.216552734375C20.43798828125,0.21044921875,20.393798828125,0.2041015625,20.355712890625,0.19775390625C20.3115234375,0.19140625,20.267333984375,0.19140625,20.22314453125,0.19140625C20.178955078125,0.19140625,20.134521484375,0.19140625,20.09033203125,0.19775390625C20.046142578125,0.2041015625,20.001953125,0.21044921875,19.964111328125,0.216552734375C19.919677734375,0.222900390625,19.8818359375,0.235595703125,19.837646484375,0.248291015625C19.79345703125,0.260986328125,19.75537109375,0.2734375,19.717529296875,0.29248046875C19.6796875,0.3115234375,19.641845703125,0.33056640625,19.603759765625,0.355712890625C19.56591796875,0.374755859375,19.52783203125,0.39990234375,19.489990234375,0.42529296875C19.4521484375,0.450439453125,19.42041015625,0.475830078125,19.382568359375,0.5009765625C19.35107421875,0.5263671875,19.319580078125,0.557861328125,19.287841796875,0.589599609375L14.59912109375,5.2783203125C14.45361328125,5.423583984375,14.327392578125,5.58154296875,14.219970703125,5.758544921875C14.112548828125,5.935302734375,14.02392578125,6.11865234375,13.9609375,6.314697265625C13.935546875,6.390380859375,13.891357421875,6.45361328125,13.83447265625,6.510498046875C13.777587890625,6.5673828125,13.71435546875,6.605224609375,13.638671875,6.636962890625C13.442626953125,6.699951171875,13.259521484375,6.78857421875,13.08251953125,6.89599609375C12.905517578125,7.00341796875,12.74755859375,7.129638671875,12.602294921875,7.275146484375L0.583251953125,19.287841796875C0.551513671875,19.3193359375,0.5263671875,19.35107421875,0.49462890625,19.382568359375C0.469482421875,19.4140625,0.444091796875,19.4521484375,0.4189453125,19.489990234375C0.393798828125,19.52783203125,0.374755859375,19.56591796875,0.349365234375,19.603759765625C0.33056640625,19.6416015625,0.3115234375,19.6796875,0.29248046875,19.7236328125C0.273681640625,19.76806640625,0.260986328125,19.805908203125,0.248291015625,19.84375C0.23583984375,19.887939453125,0.22314453125,19.926025390625,0.216796875,19.97021484375C0.21044921875,20.0146484375,0.2041015625,20.05859375,0.19775390625,20.0966796875C0.19140625,20.140869140625,0.19140625,20.18505859375,0.19140625,20.2294921875C0.19140625,20.2734375,0.19140625,20.317626953125,0.19775390625,20.362060546875C0.2041015625,20.40625,0.21044921875,20.450439453125,0.216796875,20.48828125C0.22314453125,20.532470703125,0.23583984375,20.570556640625,0.248291015625,20.61474609375C0.260986328125,20.6591796875,0.273681640625,20.69677734375,0.29248046875,20.73486328125C0.3115234375,20.772705078125,0.33056640625,20.81689453125,0.349365234375,20.85498046875C0.368408203125,20.892822265625,0.393798828125,20.9306640625,0.4189453125,20.96875C0.444091796875,21.006591796875,0.469482421875,21.038330078125,0.49462890625,21.075927734375C0.52001953125,21.107666015625,0.551513671875,21.139404296875,0.583251953125,21.1708984375L3.52783203125,24.109375C3.5595703125,24.140869140625,3.584716796875,24.166259765625,3.622802734375,24.19140625C3.654296875,24.216552734375,3.68603515625,24.241943359375,3.723876953125,24.26708984375C3.75537109375,24.29248046875,3.79345703125,24.3115234375,3.831298828125,24.33056640625L3.945068359375,24.38720703125C3.98291015625,24.40625,4.02099609375,24.4189453125,4.058837890625,24.431396484375C4.0966796875,24.4443359375,4.134521484375,24.456787109375,4.178955078125,24.463134765625C4.22314453125,24.469482421875,4.260986328125,24.48193359375,4.298828125,24.48193359375C4.336669921875,24.48828125,4.381103515625,24.48828125,4.4189453125,24.494873046875L4.54541015625,24.494873046875C4.589599609375,24.494873046875,4.62744140625,24.48828125,4.66552734375,24.48193359375C4.703369140625,24.475830078125,4.74755859375,24.469482421875,4.785400390625,24.456787109375C4.823486328125,24.4443359375,4.86767578125,24.437744140625,4.905517578125,24.4189453125C4.943359375,24.40625,4.981201171875,24.38720703125,5.019287109375,24.374755859375C5.05712890625,24.355712890625,5.09521484375,24.336669921875,5.126708984375,24.317626953125C5.16455078125,24.299072265625,5.196044921875,24.2734375,5.234130859375,24.254638671875L5.328857421875,24.1787109375C5.37939453125,24.134521484375,5.429931640625,24.0966796875,5.48046875,24.05859375C5.53125,24.020751953125,5.587890625,23.9892578125,5.638671875,23.95751953125C5.6953125,23.926025390625,5.752197265625,23.89453125,5.80908203125,23.868896484375C5.865966796875,23.84375,5.92919921875,23.818603515625,5.986083984375,23.7998046875C6.04931640625,23.78076171875,6.106201171875,23.76171875,6.16943359375,23.74267578125L6.35888671875,23.704833984375C6.422119140625,23.692138671875,6.4853515625,23.68603515625,6.548583984375,23.68603515625C6.611572265625,23.6796875,6.675048828125,23.6796875,6.738037109375,23.68603515625C6.80126953125,23.692138671875,6.864501953125,23.692138671875,6.927734375,23.704833984375C6.99072265625,23.717529296875,7.053955078125,23.7236328125,7.1171875,23.736572265625C7.180419921875,23.7490234375,7.24365234375,23.76806640625,7.300537109375,23.786865234375C7.363525390625,23.805908203125,7.42041015625,23.831298828125,7.477294921875,23.8564453125C7.534423828125,23.8818359375,7.59130859375,23.906982421875,7.64794921875,23.9384765625C7.704833984375,23.97021484375,7.75537109375,24.001708984375,7.812255859375,24.039794921875L7.964111328125,24.1533203125C8.014404296875,24.19140625,8.058837890625,24.235595703125,8.10302734375,24.280029296875C8.147216796875,24.32421875,8.19140625,24.374755859375,8.229248046875,24.4189453125C8.267333984375,24.469482421875,8.3115234375,24.52001953125,8.34326171875,24.570556640625C8.381103515625,24.62109375,8.41259765625,24.677978515625,8.444091796875,24.73486328125C8.475830078125,24.791748046875,8.501220703125,24.8486328125,8.5263671875,24.905517578125C8.551513671875,24.962158203125,8.576904296875,25.025634765625,8.595947265625,25.082275390625C8.614990234375,25.1455078125,8.6337890625,25.202392578125,8.646484375,25.265625C8.658935546875,25.328857421875,8.671630859375,25.391845703125,8.677978515625,25.455322265625L8.697021484375,25.644775390625L8.697021484375,25.83447265625L8.677978515625,26.02392578125C8.66552734375,26.087158203125,8.658935546875,26.150146484375,8.64013671875,26.213623046875C8.62744140625,26.27685546875,8.608642578125,26.33349609375,8.583251953125,26.39697265625C8.564208984375,26.4599609375,8.5390625,26.516845703125,8.513671875,26.57373046875C8.488525390625,26.63037109375,8.456787109375,26.6875,8.42529296875,26.744384765625C8.393798828125,26.80126953125,8.362060546875,26.851806640625,8.32421875,26.90234375C8.286376953125,26.952880859375,8.248291015625,27.00341796875,8.2041015625,27.053955078125L8.12841796875,27.148681640625C8.10302734375,27.180419921875,8.083984375,27.21826171875,8.06494140625,27.25634765625C8.046142578125,27.2939453125,8.027099609375,27.32568359375,8.00830078125,27.363525390625C7.9892578125,27.401611328125,7.9765625,27.439208984375,7.964111328125,27.477294921875C7.951416015625,27.515380859375,7.938720703125,27.55322265625,7.926025390625,27.597412109375C7.91357421875,27.635498046875,7.906982421875,27.679443359375,7.90087890625,27.717529296875C7.89453125,27.75537109375,7.88818359375,27.7998046875,7.88818359375,27.83740234375L7.88818359375,27.9638671875C7.88818359375,28.008056640625,7.89453125,28.046142578125,7.90087890625,28.083740234375C7.906982421875,28.121826171875,7.91357421875,28.166259765625,7.919677734375,28.2041015625C7.926025390625,28.241943359375,7.938720703125,28.2861328125,7.951416015625,28.32421875C7.964111328125,28.362060546875,7.9765625,28.39990234375,7.99560546875,28.437744140625C8.014404296875,28.475830078125,8.027099609375,28.513916015625,8.052490234375,28.551513671875C8.071533203125,28.589599609375,8.0966796875,28.62109375,8.11572265625,28.6591796875C8.140869140625,28.690673828125,8.166259765625,28.728759765625,8.19140625,28.76025390625C8.216796875,28.791748046875,8.241943359375,28.823486328125,8.273681640625,28.85498046875L11.212158203125,31.793212890625C11.24365234375,31.824951171875,11.275146484375,31.850341796875,11.306884765625,31.8818359375C11.33837890625,31.906982421875,11.37646484375,31.932373046875,11.414306640625,31.95751953125C11.4521484375,31.98291015625,11.489990234375,32.001708984375,11.52783203125,32.027099609375C11.56591796875,32.05224609375,11.603759765625,32.065185546875,11.64794921875,32.083740234375C11.68603515625,32.102783203125,11.730224609375,32.11572265625,11.76806640625,32.128173828125C11.812255859375,32.140869140625,11.85009765625,32.1533203125,11.89453125,32.159912109375C11.938720703125,32.166259765625,11.98291015625,32.17236328125,12.02099609375,32.1787109375C12.06494140625,32.18505859375,12.109375,32.18505859375,12.153564453125,32.18505859375C12.19775390625,32.18505859375,12.241943359375,32.18505859375,12.286376953125,32.1787109375C12.33056640625,32.17236328125,12.374755859375,32.166259765625,12.41259765625,32.159912109375C12.456787109375,32.1533203125,12.49462890625,32.140869140625,12.5390625,32.128173828125C12.583251953125,32.11572265625,12.62109375,32.102783203125,12.658935546875,32.083740234375C12.697021484375,32.065185546875,12.7412109375,32.046142578125,12.779052734375,32.027099609375C12.817138671875,32.008056640625,12.85498046875,31.98291015625,12.892822265625,31.95751953125C12.930908203125,31.932373046875,12.96240234375,31.906982421875,13.000244140625,31.8818359375C13.031982421875,31.8564453125,13.0634765625,31.824951171875,13.09521484375,31.793212890625L25.120361328125,19.76806640625C25.265625,19.62255859375,25.39208984375,19.464599609375,25.49951171875,19.287841796875C25.60693359375,19.11083984375,25.6953125,18.927490234375,25.758544921875,18.731689453125C25.783935546875,18.656005859375,25.828125,18.58642578125,25.885009765625,18.529541015625C25.94189453125,18.47265625,26.005126953125,18.4345703125,26.087158203125,18.403076171875C26.283203125,18.33984375,26.46630859375,18.25146484375,26.643310546875,18.14404296875C26.8203125,18.036376953125,26.978271484375,17.91015625,27.12353515625,17.764892578125L31.799560546875,13.094970703125C31.831298828125,13.0634765625,31.856689453125,13.03173828125,31.88818359375,13.000244140625C31.91357421875,12.96875,31.938720703125,12.9306640625,31.964111328125,12.892822265625C31.9892578125,12.85498046875,32.00830078125,12.81689453125,32.033447265625,12.779052734375C32.052490234375,12.7412109375,32.071533203125,12.703125,32.09033203125,12.6591796875C32.109375,12.62109375,32.121826171875,12.576904296875,32.134521484375,12.5390625C32.147216796875,12.494873046875,32.159912109375,12.456787109375,32.166259765625,12.41259765625C32.17236328125,12.3681640625,32.178955078125,12.32421875,32.18505859375,12.2861328125C32.19140625,12.241943359375,32.19140625,12.19775390625,32.19140625,12.1533203125C32.19140625,12.109375,32.19140625,12.065185546875,32.18505859375,12.020751953125C32.178955078125,11.9765625,32.17236328125,11.932373046875,32.166259765625,11.89453125C32.159912109375,11.850341796875,32.147216796875,11.812255859375,32.134521484375,11.76806640625C32.121826171875,11.7236328125,32.109375,11.68603515625,32.09033203125,11.64794921875C32.071533203125,11.610107421875,32.052490234375,11.56591796875,32.033447265625,11.52783203125C32.014404296875,11.489990234375,31.9892578125,11.4521484375,31.964111328125,11.4140625C31.938720703125,11.376220703125,31.91357421875,11.344482421875,31.88818359375,11.306884765625C31.86279296875,11.268798828125,31.831298828125,11.249755859375,31.799560546875,11.21826171875Z" style="width: 1em; height: 1em; vertical-align: middle; overflow: hidden; fill: rgb(33, 158, 188); fill-opacity: 1;"/></g></g></g></svg>