<svg width="30.978" xmlns="http://www.w3.org/2000/svg" height="25" id="screenshot-042d75e2-1c5c-8018-8006-ec96b5f6a2e6" viewBox="0 0 30.978 25" xmlns:xlink="http://www.w3.org/1999/xlink" fill="none" version="1.1"><g id="shape-042d75e2-1c5c-8018-8006-ec96b5f6a2e6" width="235" height="189" rx="0" ry="0" style="fill: rgb(0, 0, 0);"><g id="shape-042d75e2-1c5c-8018-8006-ec96b5f90d88" style="display: none;"><g class="fills" id="fills-042d75e2-1c5c-8018-8006-ec96b5f90d88"><rect width="30.97826086956502" height="25" x="0" transform="matrix(1.000000, 0.000000, 0.000000, 1.000000, 0.000000, 0.000000)" style="fill: none;" ry="0" fill="none" rx="0" y="0"/></g></g><g id="shape-042d75e2-1c5c-8018-8006-ec96b5fa6ac5"><g class="fills" id="fills-042d75e2-1c5c-8018-8006-ec96b5fa6ac5"><path d="M27.880468368530273,0.10394725948572159C29.591894149780273,0.10394725948572159,30.978246688842773,1.4950605630874634,30.978246688842773,3.212345600128174L30.978246688842773,9.429142951965332C29.266698837280273,9.429142951965332,27.880468368530273,10.820256233215332,27.880468368530273,12.537541389465332C27.880468368530273,14.255070686340332,29.266698837280273,15.645939826965332,30.978246688842773,15.645939826965332L30.978246688842773,21.862979888916016C30.978246688842773,23.580509185791016,29.591894149780273,24.971622467041016,27.880468368530273,24.971622467041016L3.0977535247802734,24.971622467041016C1.3863276243209839,24.971622467041016,-0.000024890970962587744,23.580509185791016,-0.000024890970962587744,21.862979888916016L-0.000024890970962587744,15.645939826965332C1.7115229368209839,15.645939826965332,3.0977535247802734,14.255070686340332,3.0977535247802734,12.537541389465332C3.0977535247802734,10.820256233215332,1.7115229368209839,9.429142951965332,-0.000024890970962587744,9.429142951965332L-0.000024890970962587744,3.212345600128174C-0.000024890970962587744,1.4950605630874634,1.3863276243209839,0.10394725948572159,3.0977535247802734,0.10394725948572159L27.880468368530273,0.10394725948572159ZM15.553442001342773,7.225285053253174C15.376440048217773,7.225285053253174,15.208593368530273,7.279240131378174,15.085424423217773,7.405216693878174C14.962987899780273,7.530704975128174,14.909154891967773,7.702335834503174,14.909154891967773,7.889347553253174L14.909154891967773,8.274846076965332C14.249608993530273,8.363224983215332,13.694921493530273,8.610539436340332,13.293676376342773,8.993840217590332C12.853734970092773,9.414250373840332,12.610326766967773,9.985539436340332,12.610326766967773,10.647892951965332C12.610326766967773,11.215764045715332,12.793310165405273,11.713322639465332,13.145483016967773,12.109318733215332C13.495702743530273,12.502629280090332,14.002538681030273,12.782902717590332,14.633153915405273,12.942814826965332L15.965673446655273,13.283146858215332C16.405858993530273,13.396916389465332,16.687963485717773,13.537541389465332,16.859594345092773,13.704777717590332C17.022924423217773,13.863224983215332,17.102270126342773,14.061467170715332,17.102270126342773,14.339787483215332C17.102270126342773,14.705510139465332,16.965917587280273,14.982365608215332,16.721166610717773,15.172795295715332C16.470067977905273,15.368596076965332,16.084447860717773,15.488713264465332,15.565038681030273,15.488713264465332C15.162206649780273,15.488713264465332,14.833227157592773,15.418889045715332,14.546483993530273,15.272892951965332C14.259130477905273,15.126408576965332,14.000585556030273,14.896672248840332,13.748022079467773,14.559514045715332L13.746068954467773,14.557560920715332C13.622411727905273,14.395939826965332,13.524389266967773,14.278752326965332,13.425512313842773,14.206486701965332C13.307714462280273,14.120549201965332,13.198461532592773,14.103947639465332,13.085058212280273,14.103947639465332C12.905981063842773,14.103947639465332,12.740575790405273,14.166691780090332,12.621068954467773,14.294377326965332C12.502782821655273,14.421086311340332,12.446630477905273,14.593205451965332,12.446630477905273,14.779728889465332C12.446630477905273,15.203801155090332,12.724218368530273,15.647892951965332,13.138769149780273,15.995549201965332C13.590673446655273,16.373477935791016,14.193578720092773,16.620548248291016,14.856298446655273,16.720401763916016L14.856298446655273,17.185977935791016C14.856298446655273,17.371036529541016,14.907934188842773,17.542911529541016,15.030004501342773,17.669132232666016C15.153051376342773,17.796329498291016,15.321630477905273,17.850040435791016,15.500951766967773,17.850040435791016C15.677953720092773,17.850040435791016,15.845678329467773,17.795841217041016,15.968603134155273,17.670108795166016C16.091283798217773,17.544864654541016,16.145116806030273,17.372989654541016,16.145238876342773,17.185977935791016L16.145238876342773,16.732852935791016C16.835302352905273,16.634708404541016,17.412817001342773,16.378849029541016,17.828710556030273,15.980900764465332C18.282934188842773,15.546086311340332,18.531591415405273,14.957219123840332,18.531591415405273,14.268986701965332C18.531591415405273,13.677189826965332,18.355688095092773,13.182560920715332,17.976781845092773,12.789982795715332C17.603857040405273,12.403752326965332,17.049535751342773,12.133488655090332,16.326635360717773,11.949650764465332L15.019262313842773,11.616154670715332C14.672704696655273,11.525822639465332,14.424779891967773,11.385197639465332,14.265600204467773,11.215275764465332C14.109594345092773,11.048283576965332,14.027807235717773,10.842717170715332,14.027807235717773,10.595158576965332C14.027807235717773,10.272404670715332,14.160131454467773,10.010197639465332,14.396337509155273,9.824162483215332C14.636816024780273,9.634953498840332,14.997900009155273,9.516057014465332,15.459936141967773,9.516057014465332C15.816625595092773,9.516057014465332,16.100072860717773,9.582951545715332,16.351659774780273,9.723576545715332C16.605199813842773,9.865178108215332,16.840917587280273,10.090275764465332,17.087865829467773,10.430607795715332C17.198827743530273,10.584416389465332,17.301366806030273,10.703557014465332,17.413427352905273,10.782902717590332C17.535131454467773,10.869084358215332,17.658300399780273,10.901310920715332,17.793432235717773,10.901310920715332C17.967382431030273,10.901310920715332,18.128271102905273,10.841984748840332,18.244848251342773,10.720158576965332C18.360448837280273,10.599308967590332,18.414525985717773,10.435978889465332,18.414525985717773,10.260441780090332C18.414525985717773,9.915959358215332,18.225927352905273,9.538762092590332,17.933935165405273,9.216740608215332L17.802343368530273,9.081730842590332C17.389135360717773,8.685002326965332,16.823827743530273,8.419377326965332,16.197729110717773,8.306096076965332L16.197729110717773,7.889347553253174C16.197729110717773,7.700382709503174,16.141576766967773,7.528751850128174,16.018529891967773,7.404240131378174C15.895360946655273,7.279728412628174,15.728612899780273,7.225285053253174,15.553442001342773,7.225285053253174Z" style="fill: rgb(68, 187, 164);"/></g></g></g></svg>