<svg width="19.333" xmlns="http://www.w3.org/2000/svg" height="19.333" id="screenshot-2b791fa2-87cf-8065-8006-e4d9b82396cf" viewBox="1585.671 1833.667 19.333 19.333" xmlns:xlink="http://www.w3.org/1999/xlink" fill="none" version="1.1"><g id="shape-2b791fa2-87cf-8065-8006-e4d9b82396cf"><g class="fills" id="fills-2b791fa2-87cf-8065-8006-e4d9b82396cf"><path d="M1588.67041015625,1840.0001220703125C1588.67041015625,1838.1591796875,1590.162841796875,1836.6668701171875,1592.00390625,1836.6668701171875L1598.67041015625,1836.6668701171875C1600.511474609375,1836.6668701171875,1602.00390625,1838.1591796875,1602.00390625,1840.0001220703125L1602.00390625,1846.6668701171875C1602.00390625,1848.5078125,1600.511474609375,1850.0001220703125,1598.67041015625,1850.0001220703125L1592.00390625,1850.0001220703125C1590.162841796875,1850.0001220703125,1588.67041015625,1848.5078125,1588.67041015625,1846.6668701171875ZM1592.837158203125,1843.33349609375C1592.837158203125,1844.7142333984375,1593.956298828125,1845.83349609375,1595.337158203125,1845.83349609375C1596.718017578125,1845.83349609375,1597.837158203125,1844.7142333984375,1597.837158203125,1843.33349609375C1597.837158203125,1841.9527587890625,1596.718017578125,1840.83349609375,1595.337158203125,1840.83349609375C1593.956298828125,1840.83349609375,1592.837158203125,1841.9527587890625,1592.837158203125,1843.33349609375M1599.087158203125,1839.58349609375L1599.087158203125,1839.591796875" width="24" class="icon icon-tabler icons-tabler-outline icon-tabler-brand-instagram" height="24"/></g><g width="24" class="strokes" height="24" id="strokes-add28d03-2f1c-80b9-8006-ecc62883f0a7-2b791fa2-87cf-8065-8006-e4d9b82396cf"><g class="stroke-shape"><path d="M1588.67041015625,1840.0001220703125C1588.67041015625,1838.1591796875,1590.162841796875,1836.6668701171875,1592.00390625,1836.6668701171875L1598.67041015625,1836.6668701171875C1600.511474609375,1836.6668701171875,1602.00390625,1838.1591796875,1602.00390625,1840.0001220703125L1602.00390625,1846.6668701171875C1602.00390625,1848.5078125,1600.511474609375,1850.0001220703125,1598.67041015625,1850.0001220703125L1592.00390625,1850.0001220703125C1590.162841796875,1850.0001220703125,1588.67041015625,1848.5078125,1588.67041015625,1846.6668701171875ZM1592.837158203125,1843.33349609375C1592.837158203125,1844.7142333984375,1593.956298828125,1845.83349609375,1595.337158203125,1845.83349609375C1596.718017578125,1845.83349609375,1597.837158203125,1844.7142333984375,1597.837158203125,1843.33349609375C1597.837158203125,1841.9527587890625,1596.718017578125,1840.83349609375,1595.337158203125,1840.83349609375C1593.956298828125,1840.83349609375,1592.837158203125,1841.9527587890625,1592.837158203125,1843.33349609375M1599.087158203125,1839.58349609375L1599.087158203125,1839.591796875" style="fill: none; stroke-width: 1.75; stroke: rgb(73, 80, 87); stroke-opacity: 1;"/></g></g></g></svg>