<svg width="10.286" xmlns="http://www.w3.org/2000/svg" height="18" id="screenshot-4c967303-938e-8070-8006-e2c32e3c5b62" viewBox="-0 -0 10.286 18" xmlns:xlink="http://www.w3.org/1999/xlink" fill="none" version="1.1"><g id="shape-4c967303-938e-8070-8006-e2c32e3c5b62"><g class="frame-container-wrapper"><g class="frame-container-blur"><g class="frame-container-shadows"><g fill="none"><g class="fills" id="fills-4c967303-938e-8070-8006-e2c32e3c5b62"><rect rx="0" ry="0" x="0" y="0" width="10.285714285714448" height="18" transform="matrix(1.000000, 0.000000, 0.000000, 1.000000, 0.000000, 0.000000)" class="frame-background"/></g><g class="frame-children"><g id="shape-4c967303-938e-8070-8006-e2c32e3c5b63" width="8" height="14" rx="0" ry="0" style="fill: rgb(0, 0, 0);"><g id="shape-4c967303-938e-8070-8006-e2c32e3c5b64" style="display: none;"><g class="fills" id="fills-4c967303-938e-8070-8006-e2c32e3c5b64"><rect width="10.285714285714448" height="18" x="0" transform="matrix(1.000000, 0.000000, 0.000000, 1.000000, 0.000000, 0.000000)" style="fill: none;" ry="0" fill="none" rx="0" y="0"/></g></g><g id="shape-4c967303-938e-8070-8006-e2c32e3c5b65"><g class="fills" id="fills-4c967303-938e-8070-8006-e2c32e3c5b65"><path d="M0.3766392171382904,0.37646484375C0.8789585828781128,-0.1256103515625,1.6926792860031128,-0.1256103515625,2.1947543621063232,0.37646484375L9.908987998962402,8.09088134765625C10.411185264587402,8.59295654296875,10.411185264587402,9.4068603515625,9.908987998962402,9.908935546875L2.1947543621063232,17.6231689453125C1.6926792860031128,18.125244140625,0.8789585828781128,18.125244140625,0.3766392171382904,17.6231689453125C-0.1254359632730484,17.12109375,-0.1254359632730484,16.30718994140625,0.3766392171382904,15.80511474609375L7.181815147399902,8.99981689453125L0.3766392171382904,2.19451904296875C-0.1254359632730484,1.69244384765625,-0.1254359632730484,0.87872314453125,0.3766392171382904,0.37646484375Z" style="fill: rgb(108, 117, 125); fill-opacity: 1;"/></g></g></g></g></g></g></g></g></g></svg>