<svg width="18" height="20" viewBox="0 0 18 20" fill="none" xmlns="http://www.w3.org/2000/svg">
<path d="M16 4.875C16 4.57663 15.8819 4.29008 15.6709 4.0791C15.4863 3.89454 15.2438 3.78146 14.9863 3.75586L14.875 3.75H2.875C2.57663 3.75 2.29008 3.86812 2.0791 4.0791C1.86812 4.29008 1.75 4.57663 1.75 4.875V16.875L1.75586 16.9863C1.78146 17.2438 1.89454 17.4863 2.0791 17.6709C2.29008 17.8819 2.57663 18 2.875 18H14.875C15.1734 18 15.4599 17.8819 15.6709 17.6709C15.8819 17.4599 16 17.1734 16 16.875V4.875ZM17.75 16.875C17.75 17.6375 17.4474 18.369 16.9082 18.9082C16.369 19.4474 15.6375 19.75 14.875 19.75H2.875C2.1125 19.75 1.38096 19.4474 0.841797 18.9082C0.30263 18.369 0 17.6375 0 16.875V4.875C0 4.1125 0.30263 3.38096 0.841797 2.8418C1.38096 2.30263 2.1125 2 2.875 2H14.875C15.6375 2 16.369 2.30263 16.9082 2.8418C17.4474 3.38096 17.75 4.1125 17.75 4.875V16.875Z" fill="#ADB5BD"/>
<path d="M12 4.875V0.875C12 0.391751 12.3918 0 12.875 0C13.3582 0 13.75 0.391751 13.75 0.875V4.875C13.75 5.35825 13.3582 5.75 12.875 5.75C12.3918 5.75 12 5.35825 12 4.875Z" fill="#ADB5BD"/>
<path d="M4 4.875V0.875C4 0.391751 4.39175 0 4.875 0C5.35825 0 5.75 0.391751 5.75 0.875V4.875C5.75 5.35825 5.35825 5.75 4.875 5.75C4.39175 5.75 4 5.35825 4 4.875Z" fill="#ADB5BD"/>
<path d="M16.875 8C17.3582 8 17.75 8.39175 17.75 8.875C17.75 9.35825 17.3582 9.75 16.875 9.75H0.875C0.391751 9.75 0 9.35825 0 8.875C0 8.39175 0.391751 8 0.875 8H16.875Z" fill="#ADB5BD"/>
<path d="M8.875 12C9.35825 12 9.75 12.3918 9.75 12.875C9.75 13.3582 9.35825 13.75 8.875 13.75H7.875C7.39175 13.75 7 13.3582 7 12.875C7 12.3918 7.39175 12 7.875 12H8.875Z" fill="#ADB5BD"/>
<path d="M8 15.875V12.875C8 12.3918 8.39175 12 8.875 12C9.35825 12 9.75 12.3918 9.75 12.875V15.875C9.75 16.3582 9.35825 16.75 8.875 16.75C8.39175 16.75 8 16.3582 8 15.875Z" fill="#ADB5BD"/>
</svg>
