<svg width="17" height="17" viewBox="0 0 17 17" fill="none" xmlns="http://www.w3.org/2000/svg">
<path d="M14.7337 0.926901C15.1375 0.523064 15.7933 0.523064 16.1971 0.926901C16.601 1.33074 16.601 1.98649 16.1971 2.39032L2.01532 16.5721C1.61149 16.976 0.955738 16.976 0.551901 16.5721C0.148064 16.1683 0.148064 15.5125 0.551901 15.1087L14.7337 0.926901Z" fill="#495057"/>
<path d="M0.551901 0.926901C0.955738 0.523064 1.61149 0.523064 2.01532 0.926901L16.1971 15.1087C16.601 15.5125 16.601 16.1683 16.1971 16.5721C15.7933 16.976 15.1375 16.976 14.7337 16.5721L0.551901 2.39032C0.148064 1.98649 0.148064 1.33074 0.551901 0.926901Z" fill="#495057"/>
</svg>
