<svg width="15.8" xmlns="http://www.w3.org/2000/svg" height="15.8" id="screenshot-042d75e2-1c5c-8018-8006-ec7644aa328e" viewBox="874 1851.353 15.8 15.8" xmlns:xlink="http://www.w3.org/1999/xlink" fill="none" version="1.1"><g id="shape-042d75e2-1c5c-8018-8006-ec7644aa328e"><g class="fills" id="fills-042d75e2-1c5c-8018-8006-ec7644aa328e"><path d="M888.4000244140625,1859.2532958984375C888.4000244140625,1857.5294189453125,887.7152099609375,1855.8760986328125,886.49609375,1854.6572265625C885.2772216796875,1853.438232421875,883.6239013671875,1852.7532958984375,881.9000244140625,1852.7532958984375C880.1761474609375,1852.7532958984375,878.5228271484375,1853.438232421875,877.303955078125,1854.6572265625C876.0849609375,1855.8760986328125,875.4000244140625,1857.5294189453125,875.4000244140625,1859.2532958984375C875.4000244140625,1860.10693359375,875.56787109375,1860.9522705078125,875.89453125,1861.7408447265625C876.22119140625,1862.5294189453125,876.7003173828125,1863.2457275390625,877.303955078125,1863.849365234375C877.9075927734375,1864.4530029296875,878.6239013671875,1864.93212890625,879.4124755859375,1865.2587890625C880.2010498046875,1865.5853271484375,881.04638671875,1865.7532958984375,881.9000244140625,1865.7532958984375L882.2196044921875,1865.7454833984375C882.9639892578125,1865.7088623046875,883.697509765625,1865.5445556640625,884.3875732421875,1865.2587890625C885.1761474609375,1864.93212890625,885.8924560546875,1864.4530029296875,886.49609375,1863.849365234375C887.0997314453125,1863.2457275390625,887.578857421875,1862.5294189453125,887.905517578125,1861.7408447265625C888.2320556640625,1860.9522705078125,888.4000244140625,1860.10693359375,888.4000244140625,1859.2532958984375ZM889.800048828125,1859.2532958984375C889.800048828125,1860.2906494140625,889.595458984375,1861.3182373046875,889.198486328125,1862.2767333984375C888.801513671875,1863.235107421875,888.219482421875,1864.105712890625,887.4859619140625,1864.8392333984375C886.75244140625,1865.57275390625,885.8818359375,1866.15478515625,884.9234619140625,1866.5517578125C884.0848388671875,1866.8990478515625,883.1932373046875,1867.099365234375,882.288330078125,1867.1439208984375L881.9000244140625,1867.1533203125C880.8626708984375,1867.1533203125,879.8350830078125,1866.94873046875,878.8765869140625,1866.5517578125C877.918212890625,1866.15478515625,877.047607421875,1865.57275390625,876.3140869140625,1864.8392333984375C875.58056640625,1864.105712890625,874.99853515625,1863.235107421875,874.6015625,1862.2767333984375C874.20458984375,1861.3182373046875,874,1860.2906494140625,874,1859.2532958984375C874,1857.1580810546875,874.83251953125,1855.14892578125,876.3140869140625,1853.6673583984375C877.795654296875,1852.185791015625,879.8048095703125,1851.353271484375,881.9000244140625,1851.353271484375C883.9952392578125,1851.353271484375,886.00439453125,1852.185791015625,887.4859619140625,1853.6673583984375C888.967529296875,1855.14892578125,889.800048828125,1857.1580810546875,889.800048828125,1859.2532958984375ZM888.619873046875,1856.1533203125C889.0064697265625,1856.1533203125,889.31982421875,1856.4666748046875,889.31982421875,1856.853271484375C889.31982421875,1857.2398681640625,889.0064697265625,1857.5533447265625,888.619873046875,1857.5533447265625L875.1800537109375,1857.5533447265625C874.7933349609375,1857.5533447265625,874.47998046875,1857.2398681640625,874.47998046875,1856.853271484375C874.47998046875,1856.4666748046875,874.7933349609375,1856.1533203125,875.1800537109375,1856.1533203125L888.619873046875,1856.1533203125ZM888.619873046875,1860.9532470703125C889.0064697265625,1860.9532470703125,889.31982421875,1861.2667236328125,889.31982421875,1861.6533203125C889.31982421875,1862.039794921875,889.0064697265625,1862.353271484375,888.619873046875,1862.353271484375L875.1800537109375,1862.353271484375C874.7933349609375,1862.353271484375,874.47998046875,1862.039794921875,874.47998046875,1861.6533203125C874.47998046875,1861.2667236328125,874.7933349609375,1860.9532470703125,875.1800537109375,1860.9532470703125L888.619873046875,1860.9532470703125ZM878.73779296875,1859.2532958984375C878.73779296875,1856.5765380859375,879.489501953125,1853.9537353515625,880.9066162109375,1851.6829833984375C881.1112060546875,1851.3551025390625,881.5426025390625,1851.2548828125,881.87060546875,1851.4595947265625C882.198486328125,1851.6641845703125,882.2984619140625,1852.095703125,882.0941162109375,1852.423583984375C880.815673828125,1854.47216796875,880.1378173828125,1856.838623046875,880.1378173828125,1859.2532958984375L880.1456298828125,1859.7056884765625C880.2247314453125,1861.962646484375,880.8956298828125,1864.16259765625,882.0941162109375,1866.0830078125C882.2984619140625,1866.410888671875,882.198486328125,1866.8424072265625,881.87060546875,1867.0469970703125C881.5426025390625,1867.251708984375,881.1112060546875,1867.151611328125,880.9066162109375,1866.8236083984375C879.5780029296875,1864.69482421875,878.834228515625,1862.2567138671875,878.7464599609375,1859.7548828125L878.73779296875,1859.2532958984375ZM883.6624755859375,1859.2532958984375C883.6624755859375,1856.838623046875,882.9847412109375,1854.47216796875,881.706298828125,1852.423583984375C881.501708984375,1852.095703125,881.601806640625,1851.6641845703125,881.9296875,1851.4595947265625C882.2576904296875,1851.2550048828125,882.689208984375,1851.3551025390625,882.893798828125,1851.6829833984375C884.3109130859375,1853.9537353515625,885.0625,1856.57666015625,885.0625,1859.2532958984375C885.0625,1861.929931640625,884.3109130859375,1864.5528564453125,882.893798828125,1866.8236083984375C882.689208984375,1867.1514892578125,882.2576904296875,1867.2515869140625,881.9296875,1867.0469970703125C881.601806640625,1866.8424072265625,881.501708984375,1866.4110107421875,881.706298828125,1866.0830078125C882.9847412109375,1864.034423828125,883.6624755859375,1861.66796875,883.6624755859375,1859.2532958984375Z" width="20" height="20" style="fill: rgb(173, 181, 189); fill-opacity: 1;"/></g></g></svg>