<svg width="24.167" xmlns="http://www.w3.org/2000/svg" height="24.167" id="screenshot-2b791fa2-87cf-8065-8006-e4d9b82396d1" viewBox="1583.254 1754.729 24.167 24.167" xmlns:xlink="http://www.w3.org/1999/xlink" fill="none" version="1.1"><g id="shape-2b791fa2-87cf-8065-8006-e4d9b82396d1"><g class="fills" id="fills-2b791fa2-87cf-8065-8006-e4d9b82396d1"><path d="M1590.753662109375,1763.062255859375L1589.92041015625,1763.062255859375C1589,1763.062255859375,1588.253662109375,1763.808349609375,1588.253662109375,1764.7288818359375L1588.253662109375,1772.2288818359375C1588.253662109375,1773.1494140625,1589,1773.8955078125,1589.92041015625,1773.8955078125L1597.42041015625,1773.8955078125C1598.3408203125,1773.8955078125,1599.087158203125,1773.1494140625,1599.087158203125,1772.2288818359375L1599.087158203125,1771.3955078125M1601.907958984375,1762.71630859375C1602.59130859375,1762.032958984375,1602.59130859375,1760.9248046875,1601.907958984375,1760.2412109375C1601.224609375,1759.5577392578125,1600.116455078125,1759.5577392578125,1599.432861328125,1760.2412109375L1595.77880859375,1763.8824462890625L1592.42041015625,1767.2288818359375L1592.42041015625,1769.7288818359375L1594.92041015625,1769.7288818359375L1601.907958984375,1762.71630859375L1601.907958984375,1762.71630859375M1598.253662109375,1761.3955078125L1600.753662109375,1763.8955078125" width="24" class="icon icon-tabler icons-tabler-outline icon-tabler-edit" height="24" style="fill: rgb(233, 236, 239); fill-opacity: 1;"/></g><g width="24" class="strokes" height="24" id="strokes-5d4bc4a3-e6e1-80c3-8006-ecc5ed84c338-2b791fa2-87cf-8065-8006-e4d9b82396d1"><g class="stroke-shape"><path d="M1590.753662109375,1763.062255859375L1589.92041015625,1763.062255859375C1589,1763.062255859375,1588.253662109375,1763.808349609375,1588.253662109375,1764.7288818359375L1588.253662109375,1772.2288818359375C1588.253662109375,1773.1494140625,1589,1773.8955078125,1589.92041015625,1773.8955078125L1597.42041015625,1773.8955078125C1598.3408203125,1773.8955078125,1599.087158203125,1773.1494140625,1599.087158203125,1772.2288818359375L1599.087158203125,1771.3955078125M1601.907958984375,1762.71630859375C1602.59130859375,1762.032958984375,1602.59130859375,1760.9248046875,1601.907958984375,1760.2412109375C1601.224609375,1759.5577392578125,1600.116455078125,1759.5577392578125,1599.432861328125,1760.2412109375L1595.77880859375,1763.8824462890625L1592.42041015625,1767.2288818359375L1592.42041015625,1769.7288818359375L1594.92041015625,1769.7288818359375L1601.907958984375,1762.71630859375L1601.907958984375,1762.71630859375M1598.253662109375,1761.3955078125L1600.753662109375,1763.8955078125" style="fill: none; stroke-width: 1.75; stroke: rgb(73, 80, 87); stroke-opacity: 1;"/></g></g></g></svg>