<svg width="30" xmlns="http://www.w3.org/2000/svg" height="30.001" id="screenshot-77c951b0-c077-80bc-8006-e26b1820e5c9" viewBox="894.699 2387.019 30 30.001" xmlns:xlink="http://www.w3.org/1999/xlink" fill="none" version="1.1"><g id="shape-77c951b0-c077-80bc-8006-e26b1820e5c9"><g class="fills" id="fills-77c951b0-c077-80bc-8006-e26b1820e5c9"><path d="M909.698974609375,2387.019287109375C910.86572265625,2387.019287109375,911.99267578125,2387.444580078125,912.868896484375,2388.215087890625L913.099853515625,2388.432373046875L914.14697265625,2389.479248046875C914.434326171875,2389.76513671875,914.809814453125,2389.945068359375,915.212158203125,2389.990966796875L915.414794921875,2390.003173828125L916.9150390625,2390.003173828125C918.140869140625,2390.003173828125,919.3203125,2390.471923828125,920.211669921875,2391.31396484375C921.102783203125,2392.155517578125,921.63818359375,2393.306884765625,921.7080078125,2394.53076171875L921.715576171875,2394.8037109375L921.715576171875,2396.303955078125C921.715576171875,2396.708740234375,921.853515625,2397.103271484375,922.1025390625,2397.41845703125L922.237548828125,2397.568603515625L923.283203125,2398.61572265625C924.14990234375,2399.4775390625,924.6552734375,2400.637451171875,924.6962890625,2401.859130859375C924.737060546875,2403.080322265625,924.310546875,2404.271240234375,923.503662109375,2405.189697265625L923.2861328125,2405.4208984375L922.239013671875,2406.468017578125C921.95361328125,2406.755126953125,921.7734375,2407.130615234375,921.7275390625,2407.532958984375L921.715576171875,2407.735595703125L921.715576171875,2409.23583984375C921.715576171875,2410.461669921875,921.24658203125,2411.641357421875,920.40478515625,2412.532470703125C919.562744140625,2413.423583984375,918.411865234375,2413.958984375,917.18798828125,2414.02880859375L916.9150390625,2414.036376953125L915.414794921875,2414.036376953125C915.01025390625,2414.036376953125,914.61767578125,2414.173095703125,914.300048828125,2414.423583984375L914.150146484375,2414.558349609375L913.10302734375,2415.60400390625C912.2412109375,2416.470458984375,911.0810546875,2416.97607421875,909.859619140625,2417.01708984375C908.63818359375,2417.057861328125,907.447021484375,2416.631591796875,906.529052734375,2415.824462890625L906.298095703125,2415.60693359375L905.250732421875,2414.559814453125C904.963623046875,2414.2744140625,904.58837890625,2414.093994140625,904.185791015625,2414.04833984375L903.983154296875,2414.036376953125L902.48291015625,2414.036376953125C901.257080078125,2414.036376953125,900.077392578125,2413.567626953125,899.18603515625,2412.7255859375C898.294921875,2411.8837890625,897.759521484375,2410.732666015625,897.689697265625,2409.508544921875L897.682373046875,2409.23583984375L897.682373046875,2407.735595703125C897.682373046875,2407.330810546875,897.5458984375,2406.938232421875,897.29541015625,2406.620849609375L897.160400390625,2406.470947265625L896.11474609375,2405.423828125C895.248046875,2404.56201171875,894.74267578125,2403.402099609375,894.70166015625,2402.180419921875C894.66064453125,2400.958984375,895.087158203125,2399.767578125,895.894287109375,2398.849853515625L896.111572265625,2398.61865234375L897.15869140625,2397.571533203125C897.444091796875,2397.284423828125,897.62451171875,2396.908935546875,897.67041015625,2396.506591796875L897.682373046875,2396.303955078125L897.682373046875,2394.8037109375L897.689697265625,2394.53076171875C897.7568359375,2393.353759765625,898.254638671875,2392.242431640625,899.088134765625,2391.408935546875C899.921875,2390.5751953125,901.032958984375,2390.077392578125,902.2099609375,2390.010498046875L902.48291015625,2390.003173828125L903.983154296875,2390.003173828125C904.3876953125,2390.003173828125,904.780517578125,2389.866455078125,905.09765625,2389.615966796875L905.247802734375,2389.481201171875L906.295166015625,2388.435546875C906.740966796875,2387.986572265625,907.271484375,2387.630615234375,907.855712890625,2387.3876953125C908.439697265625,2387.14453125,909.066162109375,2387.019287109375,909.698974609375,2387.019287109375ZM915.2451171875,2397.943603515625C914.9638671875,2397.662353515625,914.58251953125,2397.50439453125,914.1845703125,2397.50439453125C913.78662109375,2397.50439453125,913.4052734375,2397.662353515625,913.123779296875,2397.943603515625L908.18359375,2402.88232421875L906.243896484375,2400.944091796875L906.10302734375,2400.819580078125C905.801513671875,2400.586669921875,905.42236328125,2400.4765625,905.04296875,2400.512939453125C904.66357421875,2400.549072265625,904.31201171875,2400.728271484375,904.06005859375,2401.013916015625C903.807861328125,2401.300048828125,903.674072265625,2401.671142578125,903.685791015625,2402.052001953125C903.697265625,2402.433349609375,903.853515625,2402.79541015625,904.122802734375,2403.065185546875L907.123291015625,2406.065673828125L907.26416015625,2406.190185546875C907.552734375,2406.4140625,907.9130859375,2406.525146484375,908.27783203125,2406.501953125C908.642333984375,2406.479248046875,908.986083984375,2406.323974609375,909.244384765625,2406.065673828125L915.2451171875,2400.06494140625L915.36962890625,2399.924072265625C915.593505859375,2399.635498046875,915.704345703125,2399.275146484375,915.681640625,2398.91015625C915.65869140625,2398.545654296875,915.50341796875,2398.201904296875,915.2451171875,2397.943603515625Z" style="fill: rgb(68, 187, 164); fill-opacity: 1;"/></g></g></svg>