<svg width="10.286" xmlns="http://www.w3.org/2000/svg" height="18" id="screenshot-4c967303-938e-8070-8006-e2c32108b3f6" viewBox="0 0 10.286 18" xmlns:xlink="http://www.w3.org/1999/xlink" fill="none" version="1.1"><g id="shape-4c967303-938e-8070-8006-e2c32108b3f6"><g class="frame-container-wrapper"><g class="frame-container-blur"><g class="frame-container-shadows"><g fill="none"><g class="fills" id="fills-4c967303-938e-8070-8006-e2c32108b3f6"><rect rx="0" ry="0" x="0" y="0" width="10.28571428571422" height="18" transform="matrix(-1.000000, 0.000000, 0.000000, -1.000000, 10.285714, 18.000000)" class="frame-background"/></g><g class="frame-children"><g id="shape-4c967303-938e-8070-8006-e2c32108b3f7" width="8" height="14" rx="0" ry="0" style="fill: rgb(0, 0, 0);"><g id="shape-4c967303-938e-8070-8006-e2c32108b3f8" style="display: none;"><g class="fills" id="fills-4c967303-938e-8070-8006-e2c32108b3f8"><rect width="10.28571428571422" height="18" x="0" transform="matrix(-1.000000, 0.000000, 0.000000, -1.000000, 10.285714, 18.000000)" style="fill: none;" ry="0" fill="none" rx="0" y="0"/></g></g><g id="shape-4c967303-938e-8070-8006-e2c32108b3f9"><g class="fills" id="fills-4c967303-938e-8070-8006-e2c32108b3f9"><path d="M9.9090576171875,17.62353515625C9.4068603515625,18.1256103515625,8.5931396484375,18.1256103515625,8.091064453125,17.62353515625L0.376708984375,9.90911865234375C-0.12548828125,9.40704345703125,-0.12548828125,8.5931396484375,0.376708984375,8.091064453125L8.091064453125,0.3768310546875C8.5931396484375,-0.125244140625,9.4068603515625,-0.125244140625,9.9090576171875,0.3768310546875C10.4111328125,0.87890625,10.4111328125,1.69281005859375,9.9090576171875,2.19488525390625L3.1038818359375,9.00018310546875L9.9090576171875,15.80548095703125C10.4111328125,16.30755615234375,10.4111328125,17.12127685546875,9.9090576171875,17.62353515625Z" style="fill: rgb(108, 117, 125); fill-opacity: 1;"/></g></g></g></g></g></g></g></g></g></svg>