<svg width="19" height="19" viewBox="0 0 19 19" fill="none" xmlns="http://www.w3.org/2000/svg">
<path d="M0.125 16V6.99999C0.125 6.23749 0.42763 5.50595 0.966797 4.96678C1.50596 4.42761 2.2375 4.12499 3 4.12499H4C4.48325 4.12499 4.875 4.51674 4.875 4.99999C4.875 5.48323 4.48325 5.87499 4 5.87499H3C2.70163 5.87499 2.41508 5.99311 2.2041 6.20409C1.99312 6.41507 1.875 6.70162 1.875 6.99999V16L1.88086 16.1113C1.90646 16.3688 2.01954 16.6113 2.2041 16.7959C2.41508 17.0069 2.70163 17.125 3 17.125H12C12.2984 17.125 12.5849 17.0069 12.7959 16.7959C13.0069 16.5849 13.125 16.2984 13.125 16V15C13.125 14.5167 13.5168 14.125 14 14.125C14.4832 14.125 14.875 14.5167 14.875 15V16C14.875 16.7625 14.5724 17.494 14.0332 18.0332C13.494 18.5724 12.7625 18.875 12 18.875H3C2.2375 18.875 1.50596 18.5724 0.966797 18.0332C0.42763 17.494 0.125 16.7625 0.125 16Z" fill="#495057"/>
<path d="M17.125 3.10046C17.125 2.77554 16.9964 2.46303 16.7666 2.23328C16.5369 2.00365 16.2251 1.87498 15.9004 1.87488C15.5757 1.87488 15.2639 2.0038 15.0342 2.23328L15.0322 2.23523L6.875 10.3622V12.1249H8.63672L16.7656 3.96765L16.7666 3.96667C16.9962 3.73704 17.1249 3.42521 17.125 3.10046ZM18.875 3.10046C18.8749 3.8889 18.5612 4.64429 18.0039 5.20203L9.62012 13.618C9.45594 13.7828 9.23257 13.8749 9 13.8749H6C5.51675 13.8749 5.125 13.4831 5.125 12.9999V9.99988C5.12503 9.76731 5.21807 9.54392 5.38281 9.37976L13.7959 0.996948C14.3538 0.439008 15.1113 0.124878 15.9004 0.124878C16.6893 0.124981 17.4461 0.438156 18.0039 0.995972C18.5618 1.55391 18.875 2.31142 18.875 3.10046Z" fill="#495057"/>
<path d="M12.3809 2.38084C12.7226 2.03914 13.2774 2.03914 13.6191 2.38084L16.6191 5.38084C16.9608 5.72255 16.9608 6.27742 16.6191 6.61913C16.2774 6.96083 15.7226 6.96083 15.3809 6.61913L12.3809 3.61913C12.0392 3.27742 12.0392 2.72255 12.3809 2.38084Z" fill="#495057"/>
</svg>
