<svg width="16.674" xmlns="http://www.w3.org/2000/svg" height="15.01" id="screenshot-042d75e2-1c5c-8018-8006-ec6cd8ef00d0" viewBox="1587 1720 16.674 15.01" xmlns:xlink="http://www.w3.org/1999/xlink" fill="none" version="1.1"><g id="shape-042d75e2-1c5c-8018-8006-ec6cd8ef00d0"><g class="fills" id="fills-042d75e2-1c5c-8018-8006-ec6cd8ef00d0"><path d="M1591.1600341796875,1720.0711669921875C1592.6536865234375,1719.816650390625,1594.1824951171875,1720.2532958984375,1595.3165283203125,1721.2586669921875L1595.3472900390625,1721.2861328125L1595.3758544921875,1721.26123046875C1596.4566650390625,1720.3126220703125,1597.8936767578125,1719.87548828125,1599.3199462890625,1720.061279296875L1599.5247802734375,1720.09130859375C1601.3353271484375,1720.40380859375,1602.8284912109375,1721.683837890625,1603.4134521484375,1723.42529296875C1603.9989013671875,1725.1666259765625,1603.5821533203125,1727.088623046875,1602.3282470703125,1728.43115234375L1602.1781005859375,1728.5853271484375L1602.1383056640625,1728.6195068359375L1595.9300537109375,1734.768798828125C1595.6336669921875,1735.06201171875,1595.1661376953125,1735.091064453125,1594.8358154296875,1734.8370361328125L1594.7574462890625,1734.768798828125L1588.5133056640625,1728.583740234375C1587.1644287109375,1727.271240234375,1586.6668701171875,1725.312744140625,1587.2254638671875,1723.515625C1587.7840576171875,1721.718505859375,1589.3045654296875,1720.3873291015625,1591.1600341796875,1720.0711669921875Z" style="fill: rgb(73, 80, 87);"/></g></g></svg>