<svg width="36.204" xmlns="http://www.w3.org/2000/svg" height="36.204" id="screenshot-66485749-6be0-80f9-8006-fc334ffd8561" viewBox="-5.302 -5.302 36.204 36.204" xmlns:xlink="http://www.w3.org/1999/xlink" fill="none" version="1.1"><g id="shape-66485749-6be0-80f9-8006-fc334ffd8561"><g class="frame-container-wrapper"><g class="frame-container-blur"><g class="frame-container-shadows"><g fill="none"><g class="fills" id="fills-66485749-6be0-80f9-8006-fc334ffd8561"><rect rx="0" ry="0" x="0" y="0" width="25.600000000000136" height="25.60000000000082" transform="matrix(0.707107, -0.707107, 0.707107, 0.707107, -5.301934, 12.800000)" class="frame-background"/></g><g class="frame-children"><g id="shape-66485749-6be0-80f9-8006-fc334ffd8562" width="18" height="18" rx="0" ry="0" style="fill: rgb(0, 0, 0);"><g id="shape-66485749-6be0-80f9-8006-fc334ffd8563"><g class="fills" id="fills-66485749-6be0-80f9-8006-fc334ffd8563"><path d="M13.931087493896484,-0.39929065108299255C13.631099700927734,-0.6993394494056702,13.224361419677734,-0.8687730431556702,12.799861907958984,-0.8687730431556702C12.428829193115234,-0.8687730431556702,12.071285247802734,-0.7386460900306702,11.786434173583984,-0.5059800744056702L11.668575286865234,-0.39929065108299255L-0.399295836687088,11.668580055236816C-0.6997108459472656,11.969117164611816,-0.8689002990722656,12.375855445861816,-0.8689002990722656,12.799927711486816C-0.8689002990722656,13.223999977111816,-0.6997108459472656,13.631226539611816,-0.399295836687088,13.931519508361816L11.668575286865234,25.999391555786133L11.786434173583984,26.105592727661133C12.070796966552734,26.338747024536133,12.428829193115234,26.468629837036133,12.799861907958984,26.468629837036133C13.224361419677734,26.468629837036133,13.631099700927734,26.299440383911133,13.931087493896484,25.999391555786133L25.998958587646484,13.931519508361816C26.299373626708984,13.631226539611816,26.469051361083984,13.224488258361816,26.468563079833984,12.799927711486816C26.468563079833984,12.375855445861816,26.299373626708984,11.969117164611816,25.998958587646484,11.668580055236816L13.931087493896484,-0.39929065108299255ZM27.759212493896484,9.908814430236816C28.526180267333984,10.675415992736816,28.957393646240234,11.714966773986816,28.957393646240234,12.799927711486816C28.957393646240234,13.884644508361816,28.525753021240234,14.924439430236816,27.759212493896484,15.691285133361816L15.691341400146484,27.759157180786133C14.924373626708984,28.526247024536133,13.884639739990234,28.957399368286133,12.799861907958984,28.957399368286133C11.715450286865234,28.957399368286133,10.675289154052734,28.526247024536133,9.908748626708984,27.759157180786133L-2.1591224670410156,15.691285133361816C-2.9260902404785156,14.924439430236816,-3.3573036193847656,13.884644508361816,-3.3573036193847656,12.799927711486816C-3.3573036193847656,11.714966773986816,-2.9260902404785156,10.675415992736816,-2.1595497131347656,9.908814430236816L9.908321380615234,-2.1590561866760254C10.675289154052734,-2.9261460304260254,11.715450286865234,-3.3577866554260254,12.799861907958984,-3.3577866554260254C13.884639739990234,-3.3577866554260254,14.924861907958984,-2.9261460304260254,15.691341400146484,-2.1590561866760254L27.759212493896484,9.908814430236816Z" style="fill: rgb(73, 80, 87); fill-opacity: 1;"/></g></g><g id="shape-66485749-6be0-80f9-8006-fc334ffd8564"><g class="fills" id="fills-66485749-6be0-80f9-8006-fc334ffd8564"><path d="M15.942256927490234,25.747682571411133L-0.147953063249588,9.657349586486816C-0.6336708068847656,9.171265602111816,-0.6340980529785156,8.383423805236816,-0.148380309343338,7.897584438323975C0.337764710187912,7.411500453948975,1.1261558532714844,7.411500453948975,1.6118736267089844,7.897584438323975L17.702510833740234,23.987916946411133C18.188228607177734,24.473512649536133,18.188228607177734,25.261842727661133,17.702510833740234,25.748170852661133C17.216365814208984,26.233766555786133,16.428401947021484,26.233766555786133,15.942256927490234,25.747682571411133Z" style="fill: rgb(73, 80, 87); fill-opacity: 1;"/></g></g><g id="shape-66485749-6be0-80f9-8006-fc334ffd8565"><g class="fills" id="fills-66485749-6be0-80f9-8006-fc334ffd8565"><path d="M23.987789154052734,17.702028274536133L7.897579193115234,1.611939787864685C7.411861419677734,1.125855803489685,7.411434173583984,0.33776989579200745,7.897151947021484,-0.14782580733299255C8.382869720458984,-0.6341539025306702,9.171260833740234,-0.6336656212806702,9.656978607177734,-0.14782580733299255L25.747615814208984,15.942749977111816C26.233333587646484,16.428346633911133,26.233760833740234,17.216920852661133,25.748043060302734,17.702516555786133C25.261898040771484,18.188356399536133,24.473934173583984,18.188356399536133,23.987789154052734,17.702028274536133Z" style="fill: rgb(73, 80, 87); fill-opacity: 1;"/></g></g><g id="shape-66485749-6be0-80f9-8006-fc334ffd8566"><g class="fills" id="fills-66485749-6be0-80f9-8006-fc334ffd8566"><path d="M3.8743858337402344,11.920289039611816C4.360530853271484,11.434205055236816,5.148494720458984,11.433716773986816,5.634639739990234,11.920044898986816C6.120357513427734,12.405640602111816,6.120357513427734,13.193726539611816,5.634212493896484,13.679810523986816L1.6118736267089844,17.702028274536133C1.1257286071777344,18.188356399536133,0.337764710187912,18.188356399536133,-0.147953063249588,17.702516555786133C-0.6340980529785156,17.216432571411133,-0.6336708068847656,16.428834915161133,-0.147953063249588,15.942749977111816L3.8743858337402344,11.920289039611816Z" style="fill: rgb(73, 80, 87); fill-opacity: 1;"/></g></g><g id="shape-66485749-6be0-80f9-8006-fc334ffd8567"><g class="fills" id="fills-66485749-6be0-80f9-8006-fc334ffd8567"><path d="M11.919918060302734,19.965456008911133C12.406063079833984,19.479372024536133,13.194026947021484,19.479372024536133,13.680171966552734,19.965456008911133C14.165889739990234,20.451539993286133,14.165889739990234,21.239137649536133,13.679744720458984,21.725221633911133L9.657405853271484,25.747682571411133C9.171260833740234,26.233766555786133,8.383296966552734,26.233766555786133,7.897579193115234,25.748170852661133C7.411434173583984,25.261842727661133,7.411434173583984,24.474000930786133,7.897579193115234,23.987916946411133L11.919918060302734,19.965456008911133Z" style="fill: rgb(73, 80, 87); fill-opacity: 1;"/></g></g><g id="shape-66485749-6be0-80f9-8006-fc334ffd8568"><g class="fills" id="fills-66485749-6be0-80f9-8006-fc334ffd8568"><path d="M19.965023040771484,3.8743910789489746C20.450740814208984,3.3887953758239746,21.239559173583984,3.3887953758239746,21.725276947021484,3.8743910789489746C22.211421966552734,4.360475063323975,22.210994720458984,5.149049282073975,21.725276947021484,5.634644985198975L5.634639739990234,21.725221633911133C5.148494720458984,22.211549758911133,4.360530853271484,22.211549758911133,3.8743858337402344,21.725221633911133C3.3886680603027344,21.239137649536133,3.3882408142089844,20.451295852661133,3.8743858337402344,19.964967727661133L19.965023040771484,3.8743910789489746Z" style="fill: rgb(73, 80, 87); fill-opacity: 1;"/></g></g><g id="shape-66485749-6be0-80f9-8006-fc334ffd8569"><g class="fills" id="fills-66485749-6be0-80f9-8006-fc334ffd8569"><path d="M15.942684173583984,-0.14782580733299255C16.428401947021484,-0.6336656212806702,17.216365814208984,-0.6341539025306702,17.702510833740234,-0.14782580733299255C18.188228607177734,0.33776989579200745,18.188228607177734,1.125855803489685,17.702510833740234,1.611939787864685L13.679744720458984,5.634156703948975C13.194026947021484,6.120484828948975,12.406063079833984,6.120484828948975,11.919918060302734,5.634156703948975C11.434200286865234,5.148072719573975,11.434200286865234,4.360475063323975,11.919918060302734,3.8748793601989746L15.942684173583984,-0.14782580733299255Z" style="fill: rgb(73, 80, 87); fill-opacity: 1;"/></g></g><g id="shape-66485749-6be0-80f9-8006-fc334ffd856a"><g class="fills" id="fills-66485749-6be0-80f9-8006-fc334ffd856a"><path d="M23.987789154052734,7.897584438323975C24.473934173583984,7.411500453948975,25.261898040771484,7.411500453948975,25.748043060302734,7.897584438323975C26.234188079833984,8.383423805236816,26.233760833740234,9.171265602111816,25.748043060302734,9.657349586486816L21.725276947021484,13.679810523986816C21.239559173583984,14.165894508361816,20.451595306396484,14.165894508361816,19.965450286865234,13.679810523986816C19.479732513427734,13.193726539611816,19.479732513427734,12.405640602111816,19.965450286865234,11.920044898986816L23.987789154052734,7.897584438323975Z" style="fill: rgb(73, 80, 87); fill-opacity: 1;"/></g></g></g></g></g></g></g></g></g></svg>