<svg width="30.978" xmlns="http://www.w3.org/2000/svg" height="24.868" id="screenshot-042d75e2-1c5c-8018-8006-ec9800e125cd" viewBox="1122.732 1944 30.978 24.868" xmlns:xlink="http://www.w3.org/1999/xlink" fill="none" version="1.1"><g id="shape-042d75e2-1c5c-8018-8006-ec9800e125cd"><g class="fills" id="fills-042d75e2-1c5c-8018-8006-ec9800e125cd"><path d="M1150.6121826171875,1944C1152.3236083984375,1944,1153.7098388671875,1945.39111328125,1153.7098388671875,1947.1083984375L1153.7098388671875,1953.325439453125C1151.9984130859375,1953.325439453125,1150.6121826171875,1954.716552734375,1150.6121826171875,1956.433837890625C1150.6121826171875,1958.1513671875,1151.9984130859375,1959.54248046875,1153.7098388671875,1959.54248046875L1153.7098388671875,1965.75927734375C1153.7098388671875,1967.4765625,1152.3236083984375,1968.867919921875,1150.6121826171875,1968.867919921875L1125.8294677734375,1968.867919921875C1124.117919921875,1968.867919921875,1122.731689453125,1967.4765625,1122.731689453125,1965.75927734375L1122.731689453125,1959.54248046875C1124.443115234375,1959.54248046875,1125.8294677734375,1958.1513671875,1125.8294677734375,1956.433837890625C1125.8294677734375,1954.716552734375,1124.443115234375,1953.325439453125,1122.731689453125,1953.325439453125L1122.731689453125,1947.1083984375C1122.731689453125,1945.39111328125,1124.117919921875,1944,1125.8294677734375,1944L1150.6121826171875,1944L1150.6121826171875,1944M1136.6546630859375,1954.828857421875L1132.647705078125,1955.169921875L1135.6904296875,1957.81494140625L1134.7763671875,1961.746337890625L1138.2208251953125,1959.660400390625L1141.6651611328125,1961.746337890625L1140.7508544921875,1957.81494140625L1143.7938232421875,1955.169921875L1139.7869873046875,1954.828857421875L1138.2208251953125,1951.121337890625L1136.6546630859375,1954.828857421875L1136.6546630859375,1954.828857421875" style="fill: rgb(252, 163, 17);"/></g></g></svg>