<svg width="31.865" xmlns="http://www.w3.org/2000/svg" height="25" id="screenshot-042d75e2-1c5c-8018-8006-ec96b6074dcd" viewBox="1456.678 1946.35 31.865 25" xmlns:xlink="http://www.w3.org/1999/xlink" fill="none" version="1.1"><g id="shape-042d75e2-1c5c-8018-8006-ec96b6074dcd"><g class="fills" id="fills-042d75e2-1c5c-8018-8006-ec96b6074dcd"><path d="M1485.3560791015625,1946.3502197265625C1487.116455078125,1946.3502197265625,1488.5426025390625,1947.7486572265625,1488.5426025390625,1949.4752197265625L1488.5426025390625,1955.7252197265625C1486.7821044921875,1955.7252197265625,1485.3560791015625,1957.1236572265625,1485.3560791015625,1958.8502197265625C1485.3560791015625,1960.5767822265625,1486.7821044921875,1961.9752197265625,1488.5426025390625,1961.9752197265625L1488.5426025390625,1968.2252197265625C1488.5426025390625,1969.951904296875,1487.116455078125,1971.3502197265625,1485.3560791015625,1971.3502197265625L1459.86474609375,1971.3502197265625C1458.10400390625,1971.3502197265625,1456.677978515625,1969.951904296875,1456.677978515625,1968.2252197265625L1456.677978515625,1961.9752197265625C1458.4383544921875,1961.9752197265625,1459.86474609375,1960.5767822265625,1459.86474609375,1958.8502197265625C1459.86474609375,1957.1236572265625,1458.4383544921875,1955.7252197265625,1456.677978515625,1955.7252197265625L1456.677978515625,1949.4752197265625C1456.677978515625,1947.7486572265625,1458.10400390625,1946.3502197265625,1459.86474609375,1946.3502197265625L1485.3560791015625,1946.3502197265625ZM1471.724609375,1954.4403076171875C1471.25048828125,1954.4403076171875,1470.78076171875,1954.5321044921875,1470.3426513671875,1954.7100830078125C1469.9049072265625,1954.8880615234375,1469.50634765625,1955.148681640625,1469.1710205078125,1955.4774169921875C1468.835693359375,1955.8062744140625,1468.5703125,1956.1968994140625,1468.3885498046875,1956.62646484375C1468.2186279296875,1957.0291748046875,1468.1256103515625,1957.4591064453125,1468.11474609375,1957.8944091796875L1468.11376953125,1957.9815673828125L1468.11376953125,1957.9832763671875L1468.117919921875,1958.1541748046875L1468.117919921875,1958.1558837890625C1468.1385498046875,1958.5614013671875,1468.22998046875,1958.9609375,1468.3885498046875,1959.3367919921875C1468.5703125,1959.766357421875,1468.835693359375,1960.156982421875,1469.1710205078125,1960.48583984375C1469.50634765625,1960.8145751953125,1469.9049072265625,1961.0750732421875,1470.3426513671875,1961.2530517578125C1470.78076171875,1961.430908203125,1471.25048828125,1961.5228271484375,1471.724609375,1961.5228271484375C1472.19873046875,1961.5228271484375,1472.6683349609375,1961.4310302734375,1473.1063232421875,1961.2530517578125C1473.3861083984375,1961.1392822265625,1473.649658203125,1960.9918212890625,1473.8909912109375,1960.814453125L1476.235107421875,1963.113525390625C1476.4346923828125,1963.3089599609375,1476.7578125,1963.3089599609375,1476.9571533203125,1963.113525390625C1477.1566162109375,1962.91796875,1477.1566162109375,1962.6009521484375,1476.9571533203125,1962.4052734375L1474.613037109375,1960.1063232421875C1474.7939453125,1959.8697509765625,1474.9443359375,1959.6112060546875,1475.060302734375,1959.3367919921875C1475.218994140625,1958.9609375,1475.3104248046875,1958.5614013671875,1475.3309326171875,1958.1558837890625L1475.3311767578125,1958.1541748046875L1475.33544921875,1957.9832763671875L1475.33544921875,1957.9815673828125C1475.33544921875,1957.5166015625,1475.2418212890625,1957.0560302734375,1475.060302734375,1956.62646484375C1474.87890625,1956.1968994140625,1474.61328125,1955.8062744140625,1474.2781982421875,1955.4774169921875C1473.94287109375,1955.148681640625,1473.5443115234375,1954.8880615234375,1473.1063232421875,1954.7100830078125C1472.72314453125,1954.554443359375,1472.315673828125,1954.464599609375,1471.90234375,1954.4447021484375L1471.9005126953125,1954.4447021484375L1471.72607421875,1954.4403076171875L1471.724609375,1954.4403076171875ZM1471.8516845703125,1955.44482421875L1471.8516845703125,1955.4449462890625C1472.1484375,1955.4593505859375,1472.440673828125,1955.5238037109375,1472.7152099609375,1955.635498046875C1473.029541015625,1955.7630615234375,1473.3150634765625,1955.9501953125,1473.555419921875,1956.1861572265625C1473.7958984375,1956.4219970703125,1473.9866943359375,1956.7017822265625,1474.1168212890625,1957.009765625C1474.2303466796875,1957.2789306640625,1474.2962646484375,1957.5648193359375,1474.3111572265625,1957.85498046875L1474.3111572265625,1957.8551025390625L1474.3140869140625,1957.983154296875C1474.3138427734375,1958.3160400390625,1474.2464599609375,1958.6456298828125,1474.1168212890625,1958.953369140625C1473.9866943359375,1959.2613525390625,1473.7958984375,1959.5413818359375,1473.555419921875,1959.7772216796875C1473.3150634765625,1960.0130615234375,1473.029541015625,1960.2000732421875,1472.7152099609375,1960.32763671875C1472.4012451171875,1960.4552001953125,1472.064453125,1960.5211181640625,1471.724609375,1960.5211181640625C1471.384521484375,1960.5211181640625,1471.0479736328125,1960.4552001953125,1470.7337646484375,1960.32763671875C1470.41943359375,1960.2000732421875,1470.1341552734375,1960.0130615234375,1469.893798828125,1959.7772216796875C1469.6533203125,1959.5413818359375,1469.4625244140625,1959.2613525390625,1469.3323974609375,1958.953369140625C1469.2255859375,1958.7005615234375,1469.160888671875,1958.4329833984375,1469.141357421875,1958.160888671875L1469.1380615234375,1958.1064453125L1469.1351318359375,1957.9815673828125C1469.1351318359375,1957.648193359375,1469.2022705078125,1957.31787109375,1469.3323974609375,1957.009765625C1469.4625244140625,1956.70166015625,1469.6533203125,1956.4219970703125,1469.893798828125,1956.1861572265625C1470.1341552734375,1955.9501953125,1470.41943359375,1955.7630615234375,1470.7337646484375,1955.635498046875C1471.0474853515625,1955.508056640625,1471.3837890625,1955.442138671875,1471.7236328125,1955.4420166015625L1471.8516845703125,1955.44482421875Z" style="fill: rgb(33, 158, 188);"/></g></g></svg>