<svg width="18" height="19" viewBox="0 0 18 19" fill="none" xmlns="http://www.w3.org/2000/svg">
<path d="M-0.000244141 15.9996V13.9996C-0.000244141 13.4473 0.447471 12.9996 0.999756 12.9996C1.55204 12.9996 1.99976 13.4473 1.99976 13.9996V15.9996L2.00464 16.0982C2.02733 16.3272 2.12858 16.5425 2.29272 16.7066C2.48026 16.8941 2.73454 16.9996 2.99976 16.9996H14.9998C15.265 16.9996 15.5193 16.8941 15.7068 16.7066C15.8943 16.5191 15.9998 16.2648 15.9998 15.9996V13.9996C15.9998 13.4473 16.4475 12.9996 16.9998 12.9996C17.552 12.9996 17.9998 13.4473 17.9998 13.9996V15.9996C17.9998 16.7952 17.6835 17.5581 17.1208 18.1207C16.5582 18.6833 15.7954 18.9996 14.9998 18.9996H2.99976C2.20411 18.9996 1.44127 18.6833 0.878662 18.1207C0.316053 17.5581 -0.000244141 16.7952 -0.000244141 15.9996Z" fill="white"/>
<path d="M8.36882 0.223948C8.76159 -0.0964026 9.3406 -0.0738088 9.70671 0.292307L14.7067 5.29231C15.0972 5.68283 15.0972 6.31585 14.7067 6.70637C14.3162 7.09689 13.6832 7.09689 13.2926 6.70637L8.99968 2.4134L4.70671 6.70637C4.31619 7.09689 3.68317 7.09689 3.29265 6.70637C2.90212 6.31585 2.90212 5.68283 3.29265 5.29231L8.29265 0.292307L8.36882 0.223948Z" fill="white"/>
<path d="M7.99976 12.9996V0.999573C7.99976 0.447288 8.44747 -0.000427246 8.99976 -0.000427246C9.55204 -0.000427246 9.99976 0.447288 9.99976 0.999573V12.9996C9.99976 13.5519 9.55204 13.9996 8.99976 13.9996C8.44747 13.9996 7.99976 13.5519 7.99976 12.9996Z" fill="white"/>
</svg>
