<svg width="41" height="33" viewBox="0 0 41 33" fill="none" xmlns="http://www.w3.org/2000/svg">
<path d="M36.2393 0.781189C38.4123 0.78137 40.1729 2.54167 40.1729 4.71478V12.581C37.9998 12.5811 36.2394 14.3416 36.2393 16.5146C36.2393 18.6877 37.9997 20.4481 40.1729 20.4482V28.3154C40.1727 30.4884 38.4123 32.2488 36.2393 32.249H4.77148C2.59848 32.2488 0.838014 30.4884 0.837891 28.3154V20.4482C3.011 20.4481 4.77145 18.6877 4.77148 16.5146C4.77132 14.3416 3.01092 12.5811 0.837891 12.581V4.71478C0.837891 2.54166 2.5984 0.781354 4.77148 0.781189H36.2393ZM20.6484 4.71283C20.2537 4.7129 19.8797 4.83274 19.6055 5.11224C19.3322 5.39093 19.2119 5.77287 19.2119 6.18842V7.04388C17.742 7.24066 16.5058 7.78994 15.6113 8.64154C14.6304 9.57567 14.0879 10.8447 14.0879 12.3163C14.0879 13.5782 14.4959 14.684 15.2812 15.5634C16.0619 16.4373 17.1919 17.0601 18.5977 17.415L21.5684 18.1708C22.5489 18.4239 23.1774 18.7364 23.5605 19.1074C23.9243 19.4597 24.1015 19.9002 24.1016 20.5175C24.1016 21.331 23.7974 21.9455 23.252 22.3691C22.6919 22.8039 21.8327 23.0712 20.6748 23.0712C19.7767 23.0712 19.044 22.9156 18.4043 22.5908C17.7638 22.2654 17.1873 21.7556 16.624 21.0068L16.6201 21.0029C16.3444 20.6439 16.125 20.3831 15.9043 20.2226C15.6421 20.0322 15.399 19.9941 15.1465 19.9941C14.7472 19.9941 14.3784 20.1343 14.1123 20.4179C13.8486 20.6992 13.7227 21.0814 13.7227 21.496C13.7227 22.4382 14.3415 23.4248 15.2656 24.1972C16.273 25.0367 17.6172 25.5857 19.0947 25.8076V26.8417C19.0947 27.2528 19.2095 27.6345 19.4814 27.915C19.7558 28.1972 20.1321 28.3173 20.5312 28.3173C20.9259 28.3173 21.2999 28.1973 21.5742 27.9179C21.8475 27.6392 21.9678 27.2573 21.9678 26.8417V25.8359C23.5064 25.6176 24.7935 25.0492 25.7207 24.165C26.7333 23.199 27.2881 21.8901 27.2881 20.3613C27.288 19.0464 26.8958 17.9478 26.0518 17.0761C25.2201 16.2176 23.9839 15.6169 22.3721 15.2089L19.458 14.4677C18.6857 14.267 18.1334 13.9546 17.7783 13.5771C17.4303 13.2066 17.2481 12.749 17.248 12.1992C17.248 11.4822 17.5426 10.8992 18.0693 10.4863C18.6057 10.0659 19.4109 9.8017 20.4404 9.8017C21.2354 9.80173 21.8678 9.95008 22.4287 10.2626C22.9939 10.5777 23.5191 11.0776 24.0693 11.8339C24.3168 12.175 24.5451 12.4401 24.7949 12.6161C25.0663 12.8073 25.3409 12.8788 25.6426 12.8788C26.0299 12.8788 26.3884 12.7477 26.6484 12.4775C26.9061 12.209 27.0273 11.8457 27.0273 11.456C27.0273 10.6905 26.6067 9.85206 25.9561 9.13666L25.6621 8.83685C24.7412 7.95583 23.4805 7.36575 22.085 7.1142V6.18842C22.085 5.76871 21.9597 5.38716 21.6855 5.11029C21.4112 4.83347 21.0388 4.71283 20.6484 4.71283Z" fill="#44BBA4"/>
</svg>
