<svg width="17" height="16" viewBox="0 0 17 16" fill="none" xmlns="http://www.w3.org/2000/svg">
<path d="M7.60967 14.4722L7.60967 2.02778C7.60967 1.59822 7.9579 1.25 8.38745 1.25C8.81701 1.25 9.16523 1.59822 9.16523 2.02778V14.4722C9.16523 14.9018 8.81701 15.25 8.38745 15.25C7.9579 15.25 7.60967 14.9018 7.60967 14.4722Z" fill="white"/>
<path d="M14.6097 7.47222C15.0392 7.47222 15.3875 7.82045 15.3875 8.25C15.3875 8.67955 15.0392 9.02778 14.6097 9.02778H2.16523C1.73567 9.02778 1.38745 8.67955 1.38745 8.25C1.38745 7.82045 1.73567 7.47222 2.16523 7.47222L14.6097 7.47222Z" fill="white"/>
<path d="M7.60967 14.4722L7.60967 2.02778C7.60967 1.59822 7.9579 1.25 8.38745 1.25C8.81701 1.25 9.16523 1.59822 9.16523 2.02778V14.4722C9.16523 14.9018 8.81701 15.25 8.38745 15.25C7.9579 15.25 7.60967 14.9018 7.60967 14.4722Z" stroke="white" stroke-width="1.5" stroke-linecap="round" stroke-linejoin="round"/>
<path d="M14.6097 7.47222C15.0392 7.47222 15.3875 7.82045 15.3875 8.25C15.3875 8.67955 15.0392 9.02778 14.6097 9.02778H2.16523C1.73567 9.02778 1.38745 8.67955 1.38745 8.25C1.38745 7.82045 1.73567 7.47222 2.16523 7.47222L14.6097 7.47222Z" stroke="white" stroke-width="1.5" stroke-linecap="round" stroke-linejoin="round"/>
</svg>
