<svg width="13.992" xmlns="http://www.w3.org/2000/svg" height="13.992" id="screenshot-fb5022bd-4e43-8047-8006-e5c69a02106c" viewBox="848.5 1000.392 13.992 13.992" xmlns:xlink="http://www.w3.org/1999/xlink" fill="none" version="1.1"><g id="shape-fb5022bd-4e43-8047-8006-e5c69a02106c"><g class="fills" id="fills-fb5022bd-4e43-8047-8006-e5c69a02106c"><path d="M855.4959716796875,1000.391845703125C856.0401611328125,1000.3919677734375,856.56591796875,1000.590087890625,856.974365234375,1000.949462890625L857.0821533203125,1001.0509643554688L857.570556640625,1001.5394287109375C857.7047119140625,1001.6725463867188,857.879638671875,1001.756591796875,858.0673828125,1001.7779541015625L858.161865234375,1001.7836303710938L858.861572265625,1001.7836303710938C859.4332275390625,1001.7835083007812,859.9835205078125,1002.0022583007812,860.399169921875,1002.3948974609375C860.81494140625,1002.7875366210938,861.0645751953125,1003.3243408203125,861.0970458984375,1003.895263671875L861.1004638671875,1004.0225830078125L861.1004638671875,1004.7222290039062C861.1004638671875,1004.9112548828125,861.1649169921875,1005.0952758789062,861.281005859375,1005.2422485351562L861.3441162109375,1005.3121337890625L861.831787109375,1005.8004760742188C862.2359619140625,1006.2025146484375,862.4716796875,1006.7434692382812,862.4908447265625,1007.3131103515625C862.509765625,1007.8828735351562,862.31103515625,1008.4384155273438,861.9346923828125,1008.8665771484375L861.8330078125,1008.9742431640625L861.3447265625,1009.462646484375C861.2115478515625,1009.5967407226562,861.1275634765625,1009.7717895507812,861.106201171875,1009.95947265625L861.1004638671875,1010.053955078125L861.1004638671875,1010.7537231445312C861.1007080078125,1011.325439453125,860.8819580078125,1011.8755493164062,860.4892578125,1012.2911987304688C860.0965576171875,1012.7069091796875,859.5596923828125,1012.9566040039062,858.9888916015625,1012.9891357421875L858.861572265625,1012.99267578125L858.161865234375,1012.99267578125C857.9732666015625,1012.9927368164062,857.7900390625,1013.0562744140625,857.6419677734375,1013.1732177734375L857.572021484375,1013.2362670898438L857.0836181640625,1013.7239379882812C856.681640625,1014.1281127929688,856.140625,1014.3638305664062,855.5709228515625,1014.3829345703125C855.0013427734375,1014.4019775390625,854.4456787109375,1014.2030029296875,854.017578125,1013.8267211914062L853.9097900390625,1013.7252197265625L853.42138671875,1013.2368774414062C853.287353515625,1013.103759765625,853.1124267578125,1013.0196533203125,852.9246826171875,1012.998291015625L852.830078125,1012.99267578125L852.1304931640625,1012.99267578125C851.55859375,1012.99267578125,851.008544921875,1012.77392578125,850.5928955078125,1012.38134765625C850.17724609375,1011.9887084960938,849.927490234375,1011.451904296875,849.8948974609375,1010.8810424804688L849.8914794921875,1010.7537231445312L849.8914794921875,1010.053955078125C849.8914794921875,1009.8652954101562,849.827880859375,1009.6821899414062,849.7109375,1009.5340576171875L849.64794921875,1009.464111328125L849.160400390625,1008.9757690429688C848.7559814453125,1008.57373046875,848.5205078125,1008.0328369140625,848.501220703125,1007.4630737304688C848.4820556640625,1006.893310546875,848.68115234375,1006.3377075195312,849.0574951171875,1005.90966796875L849.1588134765625,1005.8019409179688L849.647216796875,1005.3134155273438C849.7803955078125,1005.179443359375,849.864501953125,1005.0045166015625,849.885986328125,1004.8167114257812L849.8914794921875,1004.7222290039062L849.8914794921875,1004.0225830078125L849.8948974609375,1003.895263671875C849.9261474609375,1003.3463134765625,850.158447265625,1002.8280029296875,850.547119140625,1002.439208984375C850.93603515625,1002.0504150390625,851.4542236328125,1001.8182983398438,852.003173828125,1001.7870483398438L852.1304931640625,1001.7836303710938L852.830078125,1001.7836303710938C853.018798828125,1001.783447265625,853.2020263671875,1001.7199096679688,853.35009765625,1001.60302734375L853.420166015625,1001.5399780273438L853.908447265625,1001.0523681640625C854.116455078125,1000.8431396484375,854.3638916015625,1000.6769409179688,854.6363525390625,1000.5635986328125C854.90869140625,1000.4502563476562,855.200927734375,1000.3919677734375,855.4959716796875,1000.391845703125ZM858.082763671875,1005.4869995117188C857.9515380859375,1005.3558959960938,857.773681640625,1005.2821044921875,857.5880126953125,1005.2821044921875C857.402587890625,1005.2821044921875,857.2247314453125,1005.3558959960938,857.0933837890625,1005.4869995117188L854.789306640625,1007.7904052734375L853.884521484375,1006.886474609375L853.81884765625,1006.828369140625C853.67822265625,1006.7195434570312,853.50146484375,1006.66845703125,853.324462890625,1006.685302734375C853.1474609375,1006.7021484375,852.9835205078125,1006.7858276367188,852.865966796875,1006.9191284179688C852.74853515625,1007.0524291992188,852.68603515625,1007.2255859375,852.6915283203125,1007.4031372070312C852.69677734375,1007.5808715820312,852.769775390625,1007.7498779296875,852.895263671875,1007.8757934570312L854.294677734375,1009.2752685546875L854.3604736328125,1009.333251953125C854.4951171875,1009.4376831054688,854.6630859375,1009.4894409179688,854.8331298828125,1009.4788208007812C855.0032958984375,1009.4679565429688,855.16357421875,1009.3956298828125,855.2840576171875,1009.2752685546875L858.082763671875,1006.4763793945312L858.140869140625,1006.4105834960938C858.245361328125,1006.2760009765625,858.2969970703125,1006.10791015625,858.286376953125,1005.9378662109375C858.275634765625,1005.767822265625,858.2032470703125,1005.6074829101562,858.082763671875,1005.4869995117188Z" style="fill: rgb(173, 181, 189); fill-opacity: 1;"/></g></g></svg>