<svg width="15" xmlns="http://www.w3.org/2000/svg" height="15" id="screenshot-fb5022bd-4e43-8047-8006-e5ffcdcc7f34" viewBox="443 1930.5 15 15" xmlns:xlink="http://www.w3.org/1999/xlink" fill="none" version="1.1"><g id="shape-fb5022bd-4e43-8047-8006-e5ffcdcc7f34"><g class="fills" id="fills-fb5022bd-4e43-8047-8006-e5ffcdcc7f34"><path d="M453.494873046875,1936.27880859375C453.469482421875,1935.763427734375,453.3551025390625,1935.255859375,453.1572265625,1934.778076171875C452.9310302734375,1934.232177734375,452.5994873046875,1933.736328125,452.181640625,1933.318359375C451.763671875,1932.900390625,451.2679443359375,1932.56884765625,450.721923828125,1932.3427734375C450.244140625,1932.14501953125,449.736572265625,1932.030517578125,449.22119140625,1932.005126953125L449,1932C448.4090576171875,1932,447.823974609375,1932.11669921875,447.278076171875,1932.3427734375C446.732177734375,1932.56884765625,446.2362060546875,1932.900390625,445.818359375,1933.318359375C445.4005126953125,1933.736328125,445.06884765625,1934.232177734375,444.8427734375,1934.778076171875C444.61669921875,1935.323974609375,444.5,1935.9091796875,444.5,1936.5L444.505126953125,1936.72119140625C444.530517578125,1937.236572265625,444.6448974609375,1937.744140625,444.8427734375,1938.221923828125C445.06884765625,1938.76806640625,445.4005126953125,1939.263671875,445.818359375,1939.681640625C446.2362060546875,1940.099609375,446.732177734375,1940.43115234375,447.278076171875,1940.6572265625C447.823974609375,1940.88330078125,448.4090576171875,1941,449,1941C449.5909423828125,1941,450.176025390625,1940.88330078125,450.721923828125,1940.6572265625C451.2679443359375,1940.43115234375,451.763671875,1940.099609375,452.181640625,1939.681640625C452.5994873046875,1939.263671875,452.9310302734375,1938.76806640625,453.1572265625,1938.221923828125C453.38330078125,1937.676025390625,453.5,1937.0908203125,453.5,1936.5L453.494873046875,1936.27880859375ZM454.99267578125,1936.795166015625C454.958740234375,1937.482421875,454.8067626953125,1938.1591796875,454.54296875,1938.796142578125C454.241455078125,1939.52392578125,453.800048828125,1940.185791015625,453.242919921875,1940.742919921875C452.685791015625,1941.300048828125,452.0240478515625,1941.741455078125,451.296142578125,1942.04296875C450.568115234375,1942.344482421875,449.787841796875,1942.5,449,1942.5C448.2120361328125,1942.5,447.431884765625,1942.344482421875,446.703857421875,1942.04296875C445.9759521484375,1941.741455078125,445.314208984375,1941.300048828125,444.757080078125,1940.742919921875C444.199951171875,1940.185791015625,443.758544921875,1939.52392578125,443.45703125,1938.796142578125C443.1932373046875,1938.1591796875,443.0411376953125,1937.482421875,443.00732421875,1936.795166015625L443,1936.5C443,1935.712158203125,443.155517578125,1934.931640625,443.45703125,1934.203857421875C443.758544921875,1933.47607421875,444.199951171875,1932.814208984375,444.757080078125,1932.257080078125C445.314208984375,1931.699951171875,445.9759521484375,1931.258544921875,446.703857421875,1930.95703125C447.431884765625,1930.655517578125,448.2120361328125,1930.5,449,1930.5L449.295166015625,1930.50732421875C449.982177734375,1930.541259765625,450.6591796875,1930.693115234375,451.296142578125,1930.95703125C452.0240478515625,1931.258544921875,452.685791015625,1931.699951171875,453.242919921875,1932.257080078125C453.800048828125,1932.814208984375,454.241455078125,1933.47607421875,454.54296875,1934.203857421875C454.844482421875,1934.931640625,455,1935.712158203125,455,1936.5L454.99267578125,1936.795166015625ZM452.2197265625,1939.7197265625C452.5126953125,1939.4267578125,452.9873046875,1939.4267578125,453.2802734375,1939.7197265625L457.7802734375,1944.2197265625C458.0732421875,1944.5126953125,458.0732421875,1944.9873046875,457.7802734375,1945.2802734375C457.4873046875,1945.5732421875,457.0126953125,1945.5732421875,456.7197265625,1945.2802734375L452.2197265625,1940.7802734375C451.9267578125,1940.4873046875,451.9267578125,1940.0126953125,452.2197265625,1939.7197265625Z" width="20" height="20" style="fill: rgb(108, 117, 125); fill-opacity: 1;"/></g></g></svg>