<svg width="11" height="11" viewBox="0 0 11 11" fill="none" xmlns="http://www.w3.org/2000/svg">
<path d="M9.23734 10.1997L0.437785 1.4002C0.134043 1.09646 0.134043 0.603994 0.437785 0.300253C0.741526 -0.00348853 1.23399 -0.00348853 1.53773 0.300253L10.3373 9.0998C10.641 9.40354 10.641 9.89601 10.3373 10.1997C10.0335 10.5035 9.54108 10.5035 9.23734 10.1997Z" fill="black"/>
<path d="M9.23734 0.300253C9.54108 -0.00348853 10.0335 -0.00348853 10.3373 0.300253C10.641 0.603994 10.641 1.09646 10.3373 1.4002L1.53773 10.1997C1.23399 10.5035 0.741526 10.5035 0.437785 10.1997C0.134043 9.89601 0.134043 9.40354 0.437785 9.0998L9.23734 0.300253Z" fill="black"/>
</svg>
