<svg width="15.778" xmlns="http://www.w3.org/2000/svg" height="15.778" id="screenshot-042d75e2-1c5c-8018-8006-ec75c78f11a9" viewBox="874 1820.835 15.778 15.778" xmlns:xlink="http://www.w3.org/1999/xlink" fill="none" version="1.1"><g id="shape-042d75e2-1c5c-8018-8006-ec75c78f11a9"><g class="fills" id="fills-042d75e2-1c5c-8018-8006-ec75c78f11a9"><path d="M888.22216796875,1823.3902587890625C888.22216796875,1823.1251220703125,888.1173095703125,1822.870361328125,887.9296875,1822.682861328125C887.765625,1822.518798828125,887.550048828125,1822.4183349609375,887.3212890625,1822.3955078125L887.22216796875,1822.3902587890625L876.5555419921875,1822.3902587890625C876.2904052734375,1822.3902587890625,876.03564453125,1822.495361328125,875.84814453125,1822.682861328125C875.66064453125,1822.870361328125,875.5555419921875,1823.1251220703125,875.5555419921875,1823.3902587890625L875.5555419921875,1834.0570068359375L875.560791015625,1834.1558837890625C875.5836181640625,1834.384765625,875.68408203125,1834.600341796875,875.84814453125,1834.764404296875C876.03564453125,1834.9520263671875,876.2904052734375,1835.0570068359375,876.5555419921875,1835.0570068359375L887.22216796875,1835.0570068359375C887.4874267578125,1835.0570068359375,887.7421875,1834.9520263671875,887.9296875,1834.764404296875C888.1173095703125,1834.576904296875,888.22216796875,1834.3221435546875,888.22216796875,1834.0570068359375L888.22216796875,1823.3902587890625ZM889.77783203125,1834.0570068359375C889.77783203125,1834.7347412109375,889.5087890625,1835.385009765625,889.029541015625,1835.8642578125C888.55029296875,1836.343505859375,887.89990234375,1836.612548828125,887.22216796875,1836.612548828125L876.5555419921875,1836.612548828125C875.8778076171875,1836.612548828125,875.2275390625,1836.343505859375,874.748291015625,1835.8642578125C874.26904296875,1835.385009765625,874,1834.7347412109375,874,1834.0570068359375L874,1823.3902587890625C874,1822.7125244140625,874.26904296875,1822.062255859375,874.748291015625,1821.5830078125C875.2275390625,1821.103759765625,875.8778076171875,1820.834716796875,876.5555419921875,1820.834716796875L887.22216796875,1820.834716796875C887.89990234375,1820.834716796875,888.55029296875,1821.103759765625,889.029541015625,1821.5830078125C889.5087890625,1822.062255859375,889.77783203125,1822.7125244140625,889.77783203125,1823.3902587890625L889.77783203125,1834.0570068359375ZM877.5555419921875,1835.834716796875L877.5555419921875,1821.612548828125C877.5555419921875,1821.1829833984375,877.90380859375,1820.834716796875,878.3333740234375,1820.834716796875C878.762939453125,1820.834716796875,879.111083984375,1821.1829833984375,879.111083984375,1821.612548828125L879.111083984375,1835.834716796875C879.111083984375,1836.26416015625,878.762939453125,1836.612548828125,878.3333740234375,1836.612548828125C877.90380859375,1836.612548828125,877.5555419921875,1836.26416015625,877.5555419921875,1835.834716796875ZM884.666748046875,1835.834716796875L884.666748046875,1821.612548828125C884.666748046875,1821.1829833984375,885.0150146484375,1820.834716796875,885.4444580078125,1820.834716796875C885.8739013671875,1820.834716796875,886.2222900390625,1821.1829833984375,886.2222900390625,1821.612548828125L886.2222900390625,1835.834716796875C886.2222900390625,1836.26416015625,885.8739013671875,1836.612548828125,885.4444580078125,1836.612548828125C885.0150146484375,1836.612548828125,884.666748046875,1836.26416015625,884.666748046875,1835.834716796875ZM878.3333740234375,1824.3902587890625C878.762939453125,1824.3902587890625,879.111083984375,1824.738525390625,879.111083984375,1825.1680908203125C879.111083984375,1825.59765625,878.762939453125,1825.94580078125,878.3333740234375,1825.94580078125L874.77783203125,1825.94580078125C874.3482666015625,1825.94580078125,874,1825.59765625,874,1825.1680908203125C874,1824.738525390625,874.3482666015625,1824.3902587890625,874.77783203125,1824.3902587890625L878.3333740234375,1824.3902587890625ZM878.3333740234375,1831.50146484375C878.762939453125,1831.50146484375,879.111083984375,1831.8497314453125,879.111083984375,1832.2791748046875C879.111083984375,1832.7086181640625,878.762939453125,1833.0570068359375,878.3333740234375,1833.0570068359375L874.77783203125,1833.0570068359375C874.3482666015625,1833.0570068359375,874,1832.7086181640625,874,1832.2791748046875C874,1831.8497314453125,874.3482666015625,1831.50146484375,874.77783203125,1831.50146484375L878.3333740234375,1831.50146484375ZM889,1827.94580078125C889.429443359375,1827.94580078125,889.77783203125,1828.2940673828125,889.77783203125,1828.7236328125C889.77783203125,1829.1531982421875,889.429443359375,1829.50146484375,889,1829.50146484375L874.77783203125,1829.50146484375C874.3482666015625,1829.50146484375,874,1829.1531982421875,874,1828.7236328125C874,1828.2940673828125,874.3482666015625,1827.94580078125,874.77783203125,1827.94580078125L889,1827.94580078125ZM889,1824.3902587890625C889.429443359375,1824.3902587890625,889.77783203125,1824.738525390625,889.77783203125,1825.1680908203125C889.77783203125,1825.59765625,889.429443359375,1825.94580078125,889,1825.94580078125L885.4444580078125,1825.94580078125C885.0150146484375,1825.94580078125,884.666748046875,1825.59765625,884.666748046875,1825.1680908203125C884.666748046875,1824.738525390625,885.0150146484375,1824.3902587890625,885.4444580078125,1824.3902587890625L889,1824.3902587890625ZM889,1831.50146484375C889.429443359375,1831.50146484375,889.77783203125,1831.8497314453125,889.77783203125,1832.2791748046875C889.77783203125,1832.7086181640625,889.429443359375,1833.0570068359375,889,1833.0570068359375L885.4444580078125,1833.0570068359375C885.0150146484375,1833.0570068359375,884.666748046875,1832.7086181640625,884.666748046875,1832.2791748046875C884.666748046875,1831.8497314453125,885.0150146484375,1831.50146484375,885.4444580078125,1831.50146484375L889,1831.50146484375Z" width="18" height="18" style="fill: rgb(173, 181, 189); fill-opacity: 1;"/></g></g></svg>