<svg width="35" xmlns="http://www.w3.org/2000/svg" height="35" id="screenshot-4c967303-938e-8070-8006-e2bbb34391da" viewBox="0 0 35 35" xmlns:xlink="http://www.w3.org/1999/xlink" fill="none" version="1.1"><g id="shape-4c967303-938e-8070-8006-e2bbb34391da" width="20" height="20" rx="0" ry="0" style="opacity: 1; fill: rgb(0, 0, 0);"><g id="shape-4c967303-938e-8070-8006-e2bbb344acc5" style="display: none;"><g class="fills" id="fills-4c967303-938e-8070-8006-e2bbb344acc5"><rect width="35" height="35" x="0" transform="matrix(1.000000, 0.000000, 0.000000, 1.000000, 0.000000, 0.000000)" style="fill: none;" ry="0" fill="none" rx="0" y="0"/></g></g><g id="shape-4c967303-938e-8070-8006-e2bbb3454afa"><g class="fills" id="fills-4c967303-938e-8070-8006-e2bbb3454afa"><path d="M19.91656494140625,9.4166259765625C20.5145263671875,8.8187255859375,21.4854736328125,8.8187255859375,22.08343505859375,9.4166259765625C22.681396484375,10.0145263671875,22.681396484375,10.9857177734375,22.08343505859375,11.5836181640625L11.58349609375,22.0836181640625C10.98553466796875,22.6815185546875,10.01446533203125,22.6815185546875,9.41650390625,22.0836181640625C8.81854248046875,21.4854736328125,8.81854248046875,20.5145263671875,9.41650390625,19.9166259765625L19.91656494140625,9.4166259765625Z" style="fill: rgb(108, 117, 125); fill-opacity: 1;"/></g></g><g id="shape-4c967303-938e-8070-8006-e2bbb345a1c9"><g class="fills" id="fills-4c967303-938e-8070-8006-e2bbb345a1c9"><path d="M28.2220458984375,10.5001220703125C28.2222900390625,9.5518798828125,28.03521728515625,8.6126708984375,27.671875,7.7366943359375C27.30841064453125,6.8614501953125,26.77587890625,6.0665283203125,26.104736328125,5.3970947265625L26.10302734375,5.3953857421875C25.4327392578125,4.7252197265625,24.6373291015625,4.1929931640625,23.76165771484375,3.8299560546875C22.88580322265625,3.4671630859375,21.9464111328125,3.2796630859375,20.99822998046875,3.2796630859375C20.05010986328125,3.2796630859375,19.1107177734375,3.4671630859375,18.23480224609375,3.8299560546875C17.369873046875,4.1885986328125,16.58245849609375,4.7110595703125,15.91741943359375,5.3697509765625L15.15863037109375,6.2515869140625C14.60577392578125,6.8912353515625,13.6383056640625,6.9615478515625,12.99847412109375,6.4088134765625C12.3587646484375,5.8560791015625,12.28851318359375,4.8885498046875,12.84124755859375,4.2486572265625L13.65130615234375,3.3104248046875L13.72650146484375,3.2301025390625C14.68115234375,2.2752685546875,15.81512451171875,1.5167236328125,17.06243896484375,0.9998779296875C18.31005859375,0.4830322265625,19.64776611328125,0.2171630859375,20.99822998046875,0.2171630859375C22.34857177734375,0.2171630859375,23.6864013671875,0.4830322265625,24.9339599609375,0.9998779296875C26.1805419921875,1.5164794921875,27.312255859375,2.2745361328125,28.26654052734375,3.2283935546875C29.222900390625,4.1822509765625,29.984130859375,5.3153076171875,30.501953125,6.5626220703125C31.01959228515625,7.8106689453125,31.2847900390625,9.1492919921875,31.2845458984375,10.5001220703125C31.284423828125,11.8514404296875,31.01837158203125,13.1898193359375,30.500244140625,14.4376220703125C29.9820556640625,15.6854248046875,29.22186279296875,16.8179931640625,28.2647705078125,17.7718505859375C27.66595458984375,18.3690185546875,26.69659423828125,18.3675537109375,26.0994873046875,17.7686767578125C25.50311279296875,17.1695556640625,25.504150390625,16.2000732421875,26.10302734375,15.6031494140625C26.77447509765625,14.9339599609375,27.3082275390625,14.1390380859375,27.671875,13.2635498046875C28.0355224609375,12.3878173828125,28.221923828125,11.4483642578125,28.2220458984375,10.5001220703125Z" style="fill: rgb(108, 117, 125); fill-opacity: 1;"/></g></g><g id="shape-4c967303-938e-8070-8006-e2bbb345e9ea"><g class="fills" id="fills-4c967303-938e-8070-8006-e2bbb345e9ea"><path d="M0.21832275390625,20.9967041015625C0.21844482421875,19.6439208984375,0.4866943359375,18.3043212890625,1.00787353515625,17.0557861328125C1.529296875,15.8067626953125,2.29449462890625,14.6732177734375,3.25689697265625,13.7215576171875L3.31842041015625,13.6634521484375L4.23614501953125,12.8533935546875C4.869873046875,12.2933349609375,5.83807373046875,12.3529052734375,6.39801025390625,12.9866943359375C6.9573974609375,13.6204833984375,6.89654541015625,14.5870361328125,6.26300048828125,15.1468505859375L5.38458251953125,15.9244384765625C4.72210693359375,16.5860595703125,4.1953125,17.3707275390625,3.83453369140625,18.2349853515625C3.46923828125,19.1099853515625,3.28094482421875,20.0487060546875,3.28082275390625,20.9967041015625C3.28082275390625,21.9451904296875,3.4691162109375,22.8848876953125,3.83453369140625,23.7601318359375C4.19970703125,24.6346435546875,4.7347412109375,25.4281005859375,5.40850830078125,26.0946044921875C6.78265380859375,27.4522705078125,8.6378173828125,28.2154541015625,10.56964111328125,28.2154541015625C12.50115966796875,28.2152099609375,14.3551025390625,27.4520263671875,15.72906494140625,26.0946044921875C16.33062744140625,25.5008544921875,17.30010986328125,25.5069580078125,17.894287109375,26.1082763671875C18.48876953125,26.7098388671875,18.4822998046875,27.6790771484375,17.880615234375,28.2735595703125C15.9334716796875,30.1973876953125,13.30694580078125,31.2777099609375,10.56964111328125,31.2779541015625C8.0029296875,31.2779541015625,5.53277587890625,30.3280029296875,3.62945556640625,28.6239013671875L3.25689697265625,28.2735595703125C2.29449462890625,27.3218994140625,1.529296875,26.1883544921875,1.00787353515625,24.9393310546875C0.486572265625,23.6905517578125,0.21832275390625,22.3499755859375,0.21832275390625,20.9967041015625Z" style="fill: rgb(108, 117, 125); fill-opacity: 1;"/></g></g><g id="shape-4c967303-938e-8070-8006-e2bbb3463287"><g class="fills" id="fills-4c967303-938e-8070-8006-e2bbb3463287"><path d="M33.25,26.4688720703125C34.09564208984375,26.4688720703125,34.78125,27.1544189453125,34.78125,28.0001220703125C34.78125,28.8458251953125,34.09564208984375,29.5313720703125,33.25,29.5313720703125L22.75,29.5313720703125C21.90435791015625,29.5313720703125,21.21875,28.8458251953125,21.21875,28.0001220703125C21.21875,27.1544189453125,21.90435791015625,26.4688720703125,22.75,26.4688720703125L33.25,26.4688720703125Z" style="fill: rgb(108, 117, 125); fill-opacity: 1;"/></g></g><g id="shape-4c967303-938e-8070-8006-e2bbb3463288"><g class="fills" id="fills-4c967303-938e-8070-8006-e2bbb3463288"><path d="M26.46875,33.2501220703125L26.46875,22.7501220703125C26.46875,21.9044189453125,27.15435791015625,21.2188720703125,28,21.2188720703125C28.84564208984375,21.2188720703125,29.53125,21.9044189453125,29.53125,22.7501220703125L29.53125,33.2501220703125C29.53125,34.0958251953125,28.84564208984375,34.7813720703125,28,34.7813720703125C27.15435791015625,34.7813720703125,26.46875,34.0958251953125,26.46875,33.2501220703125Z" style="fill: rgb(108, 117, 125); fill-opacity: 1;"/></g></g></g></svg>