<svg width="18.359" xmlns="http://www.w3.org/2000/svg" height="19.89" id="screenshot-41488682-d773-80fe-8006-dabacaa42eaa" viewBox="1568 204.555 18.359 19.89" xmlns:xlink="http://www.w3.org/1999/xlink" fill="none" version="1.1"><g id="shape-41488682-d773-80fe-8006-dabacaa42eaa"><g class="fills" id="fills-41488682-d773-80fe-8006-dabacaa42eaa"><path d="M1584.5740966796875,220.87478637695312L1569.7860107421875,220.87478637695312C1569.1715087890625,220.87478637695312,1568.6080322265625,220.565185546875,1568.2791748046875,220.04598999023438C1567.9500732421875,219.52688598632812,1567.9093017578125,218.88577270507812,1568.1710205078125,218.32989501953125L1569.5301513671875,215.59527587890625L1569.5301513671875,212.39907836914062C1569.5301513671875,208.19717407226562,1572.7283935546875,204.75570678710938,1576.8114013671875,204.56344604492188C1578.9283447265625,204.46755981445312,1580.9322509765625,205.21163940429688,1582.4595947265625,206.66873168945312C1583.9886474609375,208.12680053710938,1584.8302001953125,210.09286499023438,1584.8302001953125,212.20477294921875L1584.8302001953125,215.59527587890625L1586.1815185546875,218.31509399414062C1586.4503173828125,218.88577270507812,1586.4100341796875,219.52737426757812,1586.0811767578125,220.04647827148438C1585.7520751953125,220.56570434570312,1585.1885986328125,220.87478637695312,1584.5740966796875,220.87478637695312ZM1574.1658935546875,221.89480590820312C1574.4097900390625,223.33956909179688,1575.6663818359375,224.44479370117188,1577.1800537109375,224.44479370117188C1578.6937255859375,224.44479370117188,1579.9498291015625,223.33956909179688,1580.1942138671875,221.89480590820312L1574.1658935546875,221.89480590820312Z" style="fill: rgb(73, 80, 87); fill-opacity: 1;"/></g></g></svg>