<svg width="27.596" xmlns="http://www.w3.org/2000/svg" height="35" id="screenshot-4c967303-938e-8070-8006-e2ba6da9ce83" viewBox="0 0 27.596 35" xmlns:xlink="http://www.w3.org/1999/xlink" fill="none" version="1.1"><g id="shape-4c967303-938e-8070-8006-e2ba6da9ce83" width="16" height="20" rx="0" ry="0" style="fill: rgb(0, 0, 0);"><g id="shape-4c967303-938e-8070-8006-e2ba6db20730" style="display: none;"><g class="fills" id="fills-4c967303-938e-8070-8006-e2ba6db20730"><rect width="27.59615384615381" height="35" x="0" transform="matrix(1.000000, 0.000000, 0.000000, 1.000000, 0.000000, 0.000000)" style="fill: none;" ry="0" fill="none" rx="0" y="0"/></g></g><g id="shape-4c967303-938e-8070-8006-e2ba6db5bea3"><g class="fills" id="fills-4c967303-938e-8070-8006-e2ba6db5bea3"><path d="M15.7384033203125,8.7501220703125L15.7384033203125,1.7501220703125C15.7384033203125,0.9044189453125,16.41412353515625,0.2188720703125,17.24761962890625,0.2188720703125C18.0810546875,0.2188720703125,18.75677490234375,0.9044189453125,18.75677490234375,1.7501220703125L18.75677490234375,8.7501220703125C18.75677490234375,8.8079833984375,18.7786865234375,8.8646240234375,18.81903076171875,8.9056396484375C18.85955810546875,8.9466552734375,18.91510009765625,8.9688720703125,18.97235107421875,8.9688720703125L25.87139892578125,8.9688720703125C26.704833984375,8.9688720703125,27.38055419921875,9.6544189453125,27.38055419921875,10.5001220703125C27.38055419921875,11.3458251953125,26.704833984375,12.0313720703125,25.87139892578125,12.0313720703125L18.97235107421875,12.0313720703125C18.1146240234375,12.0313720703125,17.2916259765625,11.6861572265625,16.68505859375,11.0709228515625C16.07855224609375,10.4554443359375,15.7384033203125,9.6202392578125,15.7384033203125,8.7501220703125Z" style="fill: rgb(108, 117, 125); fill-opacity: 1;"/></g></g><g id="shape-4c967303-938e-8070-8006-e2ba6db923ec"><g class="fills" id="fills-4c967303-938e-8070-8006-e2ba6db923ec"><path d="M0.215576171875,29.7501220703125L0.215576171875,5.2501220703125C0.215576171875,3.9156494140625,0.737548828125,2.6356201171875,1.66748046875,1.6920166015625C2.597412109375,0.7484130859375,3.859130859375,0.2188720703125,5.17425537109375,0.2188720703125L17.24761962890625,0.2188720703125C17.64788818359375,0.2188720703125,18.0323486328125,0.3795166015625,18.3154296875,0.6666259765625L26.939208984375,9.4166259765625C27.22222900390625,9.7037353515625,27.38055419921875,10.0938720703125,27.38055419921875,10.5001220703125L27.38055419921875,29.7501220703125C27.38055419921875,31.0845947265625,26.858642578125,32.3646240234375,25.92864990234375,33.3082275390625C24.9986572265625,34.2518310546875,23.73699951171875,34.7813720703125,22.421875,34.7813720703125L5.17425537109375,34.7813720703125C3.859130859375,34.7813720703125,2.597412109375,34.2518310546875,1.66748046875,33.3082275390625C0.737548828125,32.3646240234375,0.215576171875,31.0845947265625,0.215576171875,29.7501220703125ZM3.23394775390625,29.7501220703125L3.2440185546875,29.9449462890625C3.2882080078125,30.3953857421875,3.48321533203125,30.8199462890625,3.801513671875,31.1429443359375C4.1654052734375,31.5120849609375,4.65966796875,31.7188720703125,5.17425537109375,31.7188720703125L22.421875,31.7188720703125C22.9365234375,31.7188720703125,23.4306640625,31.5120849609375,23.79461669921875,31.1429443359375C24.15850830078125,30.7735595703125,24.36224365234375,30.2723388671875,24.36224365234375,29.7501220703125L24.36224365234375,11.1358642578125L16.62103271484375,3.2813720703125L5.17425537109375,3.2813720703125C4.65966796875,3.2813720703125,4.1654052734375,3.4879150390625,3.801513671875,3.8572998046875C3.43768310546875,4.2264404296875,3.23394775390625,4.7279052734375,3.23394775390625,5.2501220703125L3.23394775390625,29.7501220703125Z" style="fill: rgb(108, 117, 125); fill-opacity: 1;"/></g></g><g id="shape-4c967303-938e-8070-8006-e2ba6dbafc43"><g class="fills" id="fills-4c967303-938e-8070-8006-e2ba6dbafc43"><path d="M7.1146240234375,26.2501220703125L7.1146240234375,17.5001220703125C7.1146240234375,16.6544189453125,7.790283203125,15.9688720703125,8.623779296875,15.9688720703125C9.457275390625,15.9688720703125,10.1329345703125,16.6544189453125,10.1329345703125,17.5001220703125L10.1329345703125,26.2501220703125C10.1329345703125,27.0958251953125,9.457275390625,27.7813720703125,8.623779296875,27.7813720703125C7.790283203125,27.7813720703125,7.1146240234375,27.0958251953125,7.1146240234375,26.2501220703125Z" style="fill: rgb(108, 117, 125); fill-opacity: 1;"/></g></g><g id="shape-4c967303-938e-8070-8006-e2ba6dbc549d"><g class="fills" id="fills-4c967303-938e-8070-8006-e2ba6dbc549d"><path d="M12.2889404296875,26.2501220703125L12.2889404296875,24.5001220703125C12.2889404296875,23.6544189453125,12.964599609375,22.9688720703125,13.798095703125,22.9688720703125C14.631591796875,22.9688720703125,15.3072509765625,23.6544189453125,15.3072509765625,24.5001220703125L15.3072509765625,26.2501220703125C15.3072509765625,27.0958251953125,14.631591796875,27.7813720703125,13.798095703125,27.7813720703125C12.964599609375,27.7813720703125,12.2889404296875,27.0958251953125,12.2889404296875,26.2501220703125Z" style="fill: rgb(108, 117, 125); fill-opacity: 1;"/></g></g><g id="shape-4c967303-938e-8070-8006-e2ba6dbe15bd"><g class="fills" id="fills-4c967303-938e-8070-8006-e2ba6dbe15bd"><path d="M17.46319580078125,26.2501220703125L17.46319580078125,21.0001220703125C17.46319580078125,20.1544189453125,18.138916015625,19.4688720703125,18.97235107421875,19.4688720703125C19.8057861328125,19.4688720703125,20.48150634765625,20.1544189453125,20.48150634765625,21.0001220703125L20.48150634765625,26.2501220703125C20.48150634765625,27.0958251953125,19.8057861328125,27.7813720703125,18.97235107421875,27.7813720703125C18.138916015625,27.7813720703125,17.46319580078125,27.0958251953125,17.46319580078125,26.2501220703125Z" style="fill: rgb(108, 117, 125); fill-opacity: 1;"/></g></g></g></svg>