<svg width="14" xmlns="http://www.w3.org/2000/svg" height="14" id="screenshot-77c951b0-c077-80bc-8006-e26bb124c4e7" viewBox="0 0 14 14" xmlns:xlink="http://www.w3.org/1999/xlink" fill="none" version="1.1"><g id="shape-77c951b0-c077-80bc-8006-e26bb124c4e7" width="18" height="18" rx="0" ry="0" style="fill: rgb(0, 0, 0);"><g id="shape-77c951b0-c077-80bc-8006-e26bb124c4e8" style="display: none;"><g class="fills" id="fills-77c951b0-c077-80bc-8006-e26bb124c4e8"><rect width="14" height="14.00000000000091" x="0" transform="matrix(1.000000, 0.000000, 0.000000, 1.000000, 0.000000, 0.000000)" style="fill: none;" ry="0" fill="none" rx="0" y="0"/></g></g><g id="shape-77c951b0-c077-80bc-8006-e26bb124c4e9"><g class="fills" id="fills-77c951b0-c077-80bc-8006-e26bb124c4e9"><path d="M10.888949394226074,0.1943231076002121C11.662386894226074,0.1943231076002121,12.404086112976074,0.5019403100013733,12.950961112976074,1.0488152503967285C13.498080253601074,1.5959343910217285,13.805697441101074,2.3373894691467285,13.805697441101074,3.1110711097717285C13.805697441101074,3.1218132972717285,13.805209159851074,3.1323113441467285,13.804720878601074,3.1430535316467285C13.722933769226074,4.6403679847717285,13.199252128601074,6.0805535316467285,12.299349784851074,7.2802605628967285C11.476595878601074,8.376940727233887,10.372591972351074,9.226550102233887,9.108431816101074,9.745104789733887C9.026644706726074,10.498766899108887,8.784701347351074,11.227526664733887,8.393099784851074,11.880114555358887C7.933871269226074,12.645495414733887,7.287142753601074,13.281481742858887,6.513705253601074,13.727282524108887C6.344027519226074,13.825182914733887,6.136019706726074,13.831774711608887,5.960726737976074,13.744128227233887C5.785677909851074,13.656237602233887,5.666049003601074,13.486071586608887,5.642611503601074,13.291247367858887C5.493441581726074,12.034411430358887,4.926058769226074,10.864001274108887,4.030795097351074,9.968981742858887C3.135775566101074,9.074206352233887,1.9653652906417847,8.506823539733887,0.7085293531417847,8.357409477233887C0.5141934156417847,8.334216117858887,0.34378325939178467,8.214343070983887,0.25589263439178467,8.039050102233887C0.16824616491794586,7.8637566566467285,0.17483796179294586,7.6557488441467285,0.27249419689178467,7.4860711097717285C0.7185391187667847,6.7128777503967285,1.3545254468917847,6.0663933753967285,2.119906425476074,5.6069207191467285C2.772494316101074,5.2153191566467285,3.500765800476074,4.9726433753967285,4.254183769226074,4.8906121253967285C4.772494316101074,3.6266961097717285,5.623080253601074,2.5231804847717285,6.719515800476074,1.7006707191467285C7.919466972351074,0.8007684350013733,9.359408378601074,0.2768426239490509,10.856966972351074,0.1952996701002121L10.888949394226074,0.1943231076002121ZM10.901888847351074,1.3610711097717285C9.641390800476074,1.4333367347717285,8.430209159851074,1.8764519691467285,7.419955253601074,2.6340203285217285C6.404818534851074,3.3954949378967285,5.637728691101074,4.4411492347717285,5.216586112976074,5.6381707191467285C5.136752128601074,5.8647332191467285,4.926058769226074,6.0197625160217285,4.685580253601074,6.0278191566467285C3.991732597351074,6.0507683753967285,3.315218925476074,6.2502312660217285,2.719759941101074,6.6074090003967285C2.370150566101074,6.8171257972717285,2.056429862976074,7.0781121253967285,1.7856777906417847,7.3788933753967285C2.941439628601074,7.6850457191467285,4.002230644226074,8.290759086608887,4.855746269226074,9.144274711608887C5.708773612976074,9.997302055358887,6.313998222351074,11.058093070983887,6.620150566101074,12.213610649108887C6.921175956726074,11.942858695983887,7.182650566101074,11.629870414733887,7.392611503601074,11.280016899108887C7.750033378601074,10.684802055358887,7.949252128601074,10.008288383483887,7.972201347351074,9.314440727233887L7.982211112976074,9.225573539733887C8.020052909851074,9.022936820983887,8.163607597351074,8.853259086608887,8.361849784851074,8.783434867858887C9.559115409851074,8.362292289733887,10.604525566101074,7.5952019691467285,11.366000175476074,6.5800652503967285C12.123568534851074,5.5695672035217285,12.565951347351074,4.3581414222717285,12.637972831726074,3.0973992347717285C12.634554862976074,2.6381707191467285,12.451205253601074,2.1987175941467285,12.126254081726074,1.8737664222717285C11.801058769226074,1.5488152503967285,11.361117362976074,1.3644890785217285,10.901888847351074,1.3610711097717285Z" style="fill: rgb(161, 164, 186);"/></g></g><g id="shape-77c951b0-c077-80bc-8006-e26bb124c4ea"><g class="fills" id="fills-77c951b0-c077-80bc-8006-e26bb124c4ea"><path d="M2.824496269226074,8.047350883483887C3.104769706726074,7.8891472816467285,3.460482597351074,7.9882683753967285,3.618929862976074,8.268542289733887C3.777377128601074,8.549059867858887,3.678500175476074,8.905261039733887,3.397982597351074,9.063708305358887C2.689730644226074,9.463610649108887,2.117220878601074,10.065661430358887,1.7534512281417847,10.793200492858887C1.4604824781417847,11.378893852233887,1.3161953687667847,12.024401664733887,1.3252285718917847,12.674548149108887C1.9753750562667847,12.683581352233887,2.620638847351074,12.539782524108887,3.206576347351074,12.247057914733887C3.933871269226074,11.883044242858887,4.536898612976074,11.310046195983887,4.936800956726074,10.601794242858887C5.095248222351074,10.321520805358887,5.450716972351074,10.222643852233887,5.731234550476074,10.380846977233887C6.011752128601074,10.539050102233887,6.110629081726074,10.895495414733887,5.952181816101074,11.176012992858887C5.438021659851074,12.086413383483887,4.663607597351074,12.822985649108887,3.728304862976074,13.290514945983887C2.793002128601074,13.758288383483887,1.7390469312667847,13.936022758483887,0.7021816968917847,13.801012992858887C0.43997466564178467,13.766833305358887,0.23367585241794586,13.559802055358887,0.19949616491794586,13.297350883483887C0.06424225121736526,12.260485649108887,0.24222077429294586,11.206774711608887,0.7099941968917847,10.271471977233887C1.1775234937667847,9.335925102233887,1.9138516187667847,8.561511039733887,2.824496269226074,8.047350883483887Z" style="fill: rgb(161, 164, 186);"/></g></g><g id="shape-77c951b0-c077-80bc-8006-e26bb124c4eb"><g class="fills" id="fills-77c951b0-c077-80bc-8006-e26bb124c4eb"><path d="M9.527865409851074,4.6667351722717285C9.527865409851074,4.6149773597717285,9.507113456726074,4.5656609535217285,9.470736503601074,4.5292840003967285C9.443392753601074,4.5019402503967285,9.408724784851074,4.4833855628967285,9.371127128601074,4.4760613441467285L9.333529472351074,4.4721550941467285C9.281771659851074,4.4721550941467285,9.232455253601074,4.4926629066467285,9.195834159851074,4.5292840003967285C9.159213066101074,4.5656609535217285,9.138949394226074,4.6149773597717285,9.138949394226074,4.6667351722717285C9.138949394226074,4.7182488441467285,9.159213066101074,4.7675652503967285,9.195834159851074,4.8041863441467285C9.232455253601074,4.8405632972717285,9.281771659851074,4.8610711097717285,9.333529472351074,4.8610711097717285C9.384799003601074,4.8610711097717285,9.434359550476074,4.8405632972717285,9.470736503601074,4.8041863441467285C9.507113456726074,4.7675652503967285,9.527865409851074,4.7182488441467285,9.527865409851074,4.6667351722717285ZM10.694613456726074,4.6667351722717285C10.694613456726074,5.0275750160217285,10.551058769226074,5.3737664222717285,10.295687675476074,5.6288933753967285C10.040316581726074,5.8842644691467285,9.694369316101074,6.0278191566467285,9.333529472351074,6.0278191566467285C8.972201347351074,6.0278191566467285,8.626254081726074,5.8842644691467285,8.371127128601074,5.6288933753967285C8.115756034851074,5.3737664222717285,7.972201347351074,5.0275750160217285,7.972201347351074,4.6667351722717285C7.972201347351074,4.3056511878967285,8.115756034851074,3.9594597816467285,8.371127128601074,3.7043328285217285C8.626254081726074,3.4492058753967285,8.972201347351074,3.3056511878967285,9.333529472351074,3.3056511878967285L9.467562675476074,3.3124871253967285C9.779574394226074,3.3432488441467285,10.072299003601074,3.4809441566467285,10.295687675476074,3.7043328285217285C10.551058769226074,3.9594597816467285,10.694613456726074,4.3056511878967285,10.694613456726074,4.6667351722717285Z" style="fill: rgb(161, 164, 186);"/></g></g></g></svg>