<svg width="16" xmlns="http://www.w3.org/2000/svg" height="16" id="screenshot-77c951b0-c077-80bc-8006-e26b18209401" viewBox="0 0 16 16" xmlns:xlink="http://www.w3.org/1999/xlink" fill="none" version="1.1"><g id="shape-77c951b0-c077-80bc-8006-e26b18209401" width="18" height="18" rx="0" ry="0" style="fill: rgb(0, 0, 0);"><g id="shape-77c951b0-c077-80bc-8006-e26b18209402" style="display: none;"><g class="fills" id="fills-77c951b0-c077-80bc-8006-e26b18209402"><rect width="16" height="16" x="0" transform="matrix(1.000000, 0.000000, 0.000000, 1.000000, 0.000000, 0.000000)" style="fill: none;" ry="0" fill="none" rx="0" y="0"/></g></g><g id="shape-77c951b0-c077-80bc-8006-e26b18209403"><g class="fills" id="fills-77c951b0-c077-80bc-8006-e26b18209403"><path d="M12.4443359375,0.22216796875C13.328369140625,0.22216796875,14.176025390625,0.573486328125,14.80126953125,1.19873046875C15.42626953125,1.823974609375,15.77783203125,2.67138671875,15.77783203125,3.5556640625C15.77783203125,3.567626953125,15.777587890625,3.579833984375,15.77685546875,3.592041015625C15.68359375,5.303466796875,15.084716796875,6.94921875,14.056396484375,8.3203125C13.1162109375,9.57373046875,11.8544921875,10.544677734375,10.40966796875,11.13720703125C10.316162109375,11.99853515625,10.03955078125,12.831298828125,9.592041015625,13.5771484375C9.067138671875,14.4521484375,8.328125,15.1787109375,7.4443359375,15.6884765625C7.25048828125,15.800048828125,7.0126953125,15.8076171875,6.8125,15.70751953125C6.6123046875,15.607177734375,6.47509765625,15.41259765625,6.44873046875,15.190185546875C6.278076171875,13.753662109375,5.62939453125,12.416015625,4.606689453125,11.393310546875C3.583984375,10.370361328125,2.246337890625,9.721923828125,0.809814453125,9.55126953125C0.58740234375,9.524658203125,0.392822265625,9.3876953125,0.29248046875,9.1875C0.192138671875,8.9873046875,0.19970703125,8.74951171875,0.3115234375,8.5556640625C0.821044921875,7.671875,1.5478515625,6.932861328125,2.422607421875,6.407958984375C3.16845703125,5.96044921875,4.0009765625,5.682861328125,4.86181640625,5.58935546875C5.454345703125,4.144775390625,6.42626953125,2.8837890625,7.6796875,1.943603515625C9.05078125,0.9150390625,10.696533203125,0.31640625,12.407958984375,0.22314453125L12.4443359375,0.22216796875ZM12.459228515625,1.5556640625C11.0185546875,1.63818359375,9.634521484375,2.14453125,8.47998046875,3.010498046875C7.31982421875,3.880615234375,6.443115234375,5.075439453125,5.961669921875,6.443603515625C5.87060546875,6.70263671875,5.629638671875,6.8798828125,5.35498046875,6.888916015625C4.56201171875,6.9150390625,3.788818359375,7.14306640625,3.1083984375,7.55126953125C2.708740234375,7.791015625,2.35009765625,8.089111328125,2.040771484375,8.43310546875C3.361572265625,8.782958984375,4.57421875,9.475341796875,5.54931640625,10.450439453125C6.5244140625,11.425537109375,7.216064453125,12.6376953125,7.56591796875,13.958251953125C7.90966796875,13.649169921875,8.208984375,13.291259765625,8.44873046875,12.8916015625C8.85693359375,12.211181640625,9.0849609375,11.43798828125,9.111083984375,10.64501953125L9.122314453125,10.54345703125C9.165771484375,10.31201171875,9.32958984375,10.1181640625,9.556396484375,10.0380859375C10.924560546875,9.556884765625,12.119384765625,8.680419921875,12.989501953125,7.52001953125C13.855712890625,6.365234375,14.36083984375,4.980712890625,14.443603515625,3.5400390625C14.439453125,3.01513671875,14.22998046875,2.5126953125,13.8583984375,2.1416015625C13.48681640625,1.77001953125,12.984130859375,1.5595703125,12.459228515625,1.5556640625Z" style="fill: rgb(255, 255, 255); fill-opacity: 1;"/></g></g><g id="shape-77c951b0-c077-80bc-8006-e26b18209404"><g class="fills" id="fills-77c951b0-c077-80bc-8006-e26b18209404"><path d="M3.227783203125,9.197021484375C3.54833984375,9.016357421875,3.95458984375,9.12939453125,4.1357421875,9.44970703125C4.31689453125,9.7705078125,4.203857421875,10.177490234375,3.88330078125,10.3583984375C3.07373046875,10.8154296875,2.41943359375,11.503662109375,2.00390625,12.3349609375C1.669189453125,13.004638671875,1.504150390625,13.7421875,1.51416015625,14.4853515625C2.25732421875,14.495361328125,2.994873046875,14.3310546875,3.66455078125,13.99658203125C4.495849609375,13.580810546875,5.184814453125,12.92578125,5.641845703125,12.1162109375C5.822998046875,11.7958984375,6.2294921875,11.682861328125,6.5498046875,11.86376953125C6.87060546875,12.044677734375,6.9833984375,12.4521484375,6.802490234375,12.7724609375C6.21484375,13.813232421875,5.32958984375,14.655029296875,4.2607421875,15.189208984375C3.19189453125,15.7236328125,1.987548828125,15.9267578125,0.802490234375,15.7724609375C0.502685546875,15.7333984375,0.266845703125,15.4970703125,0.227783203125,15.197021484375C0.073486328125,14.011962890625,0.276611328125,12.8076171875,0.81103515625,11.73876953125C1.345703125,10.669677734375,2.18701171875,9.78466796875,3.227783203125,9.197021484375Z" style="fill: rgb(255, 255, 255); fill-opacity: 1;"/></g></g><g id="shape-77c951b0-c077-80bc-8006-e26b18209405"><g class="fills" id="fills-77c951b0-c077-80bc-8006-e26b18209405"><path d="M10.888916015625,5.333251953125C10.888916015625,5.2744140625,10.865478515625,5.2177734375,10.82373046875,5.17626953125C10.79248046875,5.14501953125,10.752685546875,5.1240234375,10.7099609375,5.115478515625L10.66650390625,5.111083984375C10.607666015625,5.111083984375,10.55126953125,5.134521484375,10.509521484375,5.17626953125C10.4677734375,5.2177734375,10.4443359375,5.2744140625,10.4443359375,5.333251953125C10.4443359375,5.392333984375,10.4677734375,5.44873046875,10.509521484375,5.490478515625C10.55126953125,5.5322265625,10.607666015625,5.5556640625,10.66650390625,5.5556640625C10.7255859375,5.5556640625,10.781982421875,5.5322265625,10.82373046875,5.490478515625C10.865478515625,5.44873046875,10.888916015625,5.392333984375,10.888916015625,5.333251953125ZM12.22216796875,5.333251953125C12.22216796875,5.745849609375,12.05810546875,6.1416015625,11.766357421875,6.43310546875C11.474853515625,6.724853515625,11.0791015625,6.888916015625,10.66650390625,6.888916015625C10.25390625,6.888916015625,9.858642578125,6.724853515625,9.56689453125,6.43310546875C9.275146484375,6.1416015625,9.111083984375,5.745849609375,9.111083984375,5.333251953125C9.111083984375,4.9208984375,9.275146484375,4.525146484375,9.56689453125,4.2333984375C9.858642578125,3.94189453125,10.25390625,3.77783203125,10.66650390625,3.77783203125L10.8203125,3.78564453125C11.17626953125,3.821044921875,11.51123046875,3.978271484375,11.766357421875,4.2333984375C12.05810546875,4.525146484375,12.22216796875,4.9208984375,12.22216796875,5.333251953125Z" style="fill: rgb(255, 255, 255); fill-opacity: 1;"/></g></g></g></svg>