<svg width="14" xmlns="http://www.w3.org/2000/svg" height="14" id="screenshot-77c951b0-c077-80bc-8006-e26bb124c4f8" viewBox="0 0 14 14" xmlns:xlink="http://www.w3.org/1999/xlink" fill="none" version="1.1"><g id="shape-77c951b0-c077-80bc-8006-e26bb124c4f8" width="20" height="20" rx="0" ry="0" style="fill: rgb(0, 0, 0);"><g id="shape-77c951b0-c077-80bc-8006-e26bb124c4f9" style="display: none;"><g class="fills" id="fills-77c951b0-c077-80bc-8006-e26bb124c4f9"><rect width="14" height="14" x="0" transform="matrix(1.000000, 0.000000, 0.000000, 1.000000, 0.000000, 0.000000)" style="fill: none;" ry="0" fill="none" rx="0" y="0"/></g></g><g id="shape-77c951b0-c077-80bc-8006-e26bb124c4fa"><g class="fills" id="fills-77c951b0-c077-80bc-8006-e26bb124c4fa"><path d="M3.937533378601074,3.850003480911255C3.937533378601074,3.826565980911255,3.928744316101074,3.804105043411255,3.912386894226074,3.787747621536255C3.895785331726074,3.771390199661255,3.873324394226074,3.762356996536255,3.850131034851074,3.762356996536255C3.826937675476074,3.762356996536255,3.804232597351074,3.771390199661255,3.787875175476074,3.787747621536255C3.771517753601074,3.804105043411255,3.762484550476074,3.826565980911255,3.762484550476074,3.850003480911255C3.762484550476074,3.873196840286255,3.771517753601074,3.895657777786255,3.787875175476074,3.912015199661255C3.804232597351074,3.928616762161255,3.826937675476074,3.937405824661255,3.850131034851074,3.937405824661255C3.873324394226074,3.937405824661255,3.895785331726074,3.928616762161255,3.912386894226074,3.912015199661255C3.928744316101074,3.895657777786255,3.937533378601074,3.873196840286255,3.937533378601074,3.850003480911255ZM5.162631034851074,3.850003480911255C5.162631034851074,4.198147773742676,5.024691581726074,4.532132148742676,4.778353691101074,4.778225898742676C4.532259941101074,5.024319648742676,4.198275566101074,5.162503242492676,3.850131034851074,5.162503242492676C3.501986503601074,5.162503242492676,3.168002128601074,5.024319648742676,2.921664237976074,4.778225898742676C2.675570487976074,4.532132148742676,2.537631034851074,4.198147773742676,2.537631034851074,3.850003480911255C2.537631034851074,3.501858949661255,2.675570487976074,3.167630434036255,2.921664237976074,2.921536684036255C3.168002128601074,2.675442934036255,3.501986503601074,2.537503480911255,3.850131034851074,2.537503480911255C4.198275566101074,2.537503480911255,4.532259941101074,2.675442934036255,4.778353691101074,2.921536684036255C5.024691581726074,3.167630434036255,5.162631034851074,3.501858949661255,5.162631034851074,3.850003480911255Z" style="fill: rgb(161, 164, 186);"/></g></g><g id="shape-77c951b0-c077-80bc-8006-e26bb124c4fb"><g class="fills" id="fills-77c951b0-c077-80bc-8006-e26bb124c4fb"><path d="M0.08767975121736526,6.420315742492676L0.08767975121736526,2.799954652786255C0.08767975121736526,2.080472230911255,0.37332427501678467,1.3905308246612549,0.8818691968917847,0.8817417025566101C1.3906582593917847,0.3729526698589325,2.080599784851074,0.0873081311583519,2.800082206726074,0.0873081311583519L6.420443534851074,0.0873081311583519C6.954134941101074,0.0875522717833519,7.465609550476074,0.2999546229839325,7.843050956726074,0.6773959994316101L7.843539237976074,0.6766635775566101L13.240511894226074,6.074368476867676L13.319125175476074,6.156399726867676C13.701205253601074,6.578030586242676,13.913851737976074,7.128079414367676,13.913851737976074,7.699856758117676C13.913851737976074,8.309720039367676,13.671664237976074,8.894436836242676,13.240511894226074,9.325589179992676L9.325716972351074,13.240384101867676C8.894564628601074,13.671536445617676,8.309847831726074,13.913723945617676,7.699984550476074,13.913723945617676C7.090365409851074,13.913723945617676,6.505648612976074,13.671536445617676,6.074496269226074,13.240384101867676L0.6767910718917847,7.843411445617676C0.29959380626678467,7.466214179992676,0.08767975121736526,6.954007148742676,0.08767975121736526,6.420315742492676ZM1.3125332593917847,6.420315742492676L1.3166836500167847,6.498196601867676C1.3320645093917847,6.652737617492676,1.3926113843917847,6.799221992492676,1.4910000562667847,6.919339179992676L1.5437344312667847,6.976712226867676L6.939974784851074,12.373684883117676C7.141390800476074,12.575100898742676,7.415072441101074,12.688870429992676,7.699984550476074,12.688870429992676C7.985140800476074,12.688870429992676,8.258090019226074,12.575100898742676,8.459506034851074,12.373684883117676L12.373812675476074,8.459378242492676C12.575228691101074,8.257962226867676,12.688998222351074,7.984768867492676,12.688998222351074,7.699856758117676C12.688998222351074,7.414944648742676,12.575228691101074,7.141995429992676,12.373812675476074,6.940335273742676L6.976840019226074,1.5433628559112549C6.847689628601074,1.4142124652862549,6.678500175476074,1.3343784809112549,6.498324394226074,1.3165562152862549L6.420443534851074,1.3124058246612549L2.800082206726074,1.3124058246612549C2.405550956726074,1.3124058246612549,2.027132987976074,1.4688999652862549,1.7480801343917847,1.7479526996612549C1.4690274000167847,2.026761293411255,1.3125332593917847,2.405423402786255,1.3125332593917847,2.799954652786255L1.3125332593917847,6.420315742492676Z" style="fill: rgb(161, 164, 186);"/></g></g></g></svg>