<svg width="15" xmlns="http://www.w3.org/2000/svg" height="15" id="screenshot-77c951b0-c077-80bc-8006-e26bb124844b" viewBox="0 0 15 15" xmlns:xlink="http://www.w3.org/1999/xlink" fill="none" version="1.1"><g id="shape-77c951b0-c077-80bc-8006-e26bb124844b" width="20" height="20" rx="0" ry="0" style="fill: rgb(0, 0, 0);"><g id="shape-77c951b0-c077-80bc-8006-e26bb124844d" style="display: none;"><g class="fills" id="fills-77c951b0-c077-80bc-8006-e26bb124844d"><rect width="15" height="14.992653631748908" x="0" transform="matrix(1.000000, 0.000000, 0.000000, 1.000000, 0.000000, 0.000000)" style="fill: none;" ry="0" fill="none" rx="0" y="0"/></g></g><g id="shape-77c951b0-c077-80bc-8006-e26bb124844e"><g class="fills" id="fills-77c951b0-c077-80bc-8006-e26bb124844e"><path d="M0.00003326693331473507,7.503567695617676L0.00003326693331473507,7.496243476867676C0.00003326693331473507,7.082180976867676,0.33572661876678467,6.746487617492676,0.7500332593917847,6.746487617492676C1.1640957593917847,6.746487617492676,1.5000332593917847,7.082180976867676,1.5000332593917847,7.496243476867676L1.5000332593917847,7.503567695617676C1.5000332593917847,7.917386054992676,1.1640957593917847,8.253323554992676,0.7500332593917847,8.253323554992676C0.33572661876678467,8.253323554992676,0.00003326693331473507,7.917386054992676,0.00003326693331473507,7.503567695617676Z" style="fill: rgb(161, 164, 186); fill-opacity: 1;"/></g></g><g id="shape-77c951b0-c077-80bc-8006-e26bb124c4db"><g class="fills" id="fills-77c951b0-c077-80bc-8006-e26bb124c4db"><path d="M13.500033378601074,7.503567695617676L13.500033378601074,7.496243476867676C13.500033378601074,7.082180976867676,13.835970878601074,6.746487617492676,14.250033378601074,6.746487617492676C14.664340019226074,6.746487617492676,15.000033378601074,7.082180976867676,15.000033378601074,7.496243476867676L15.000033378601074,7.503567695617676C15.000033378601074,7.917386054992676,14.664340019226074,8.253323554992676,14.250033378601074,8.253323554992676C13.835970878601074,8.253323554992676,13.500033378601074,7.917386054992676,13.500033378601074,7.503567695617676Z" style="fill: rgb(161, 164, 186); fill-opacity: 1;"/></g></g><g id="shape-77c951b0-c077-80bc-8006-e26bb124c4dc"><g class="fills" id="fills-77c951b0-c077-80bc-8006-e26bb124c4dc"><path d="M6.750033378601074,14.250149726867676L6.750033378601074,14.242825508117676C6.750033378601074,13.829007148742676,7.085970878601074,13.493557929992676,7.500033378601074,13.493557929992676C7.914095878601074,13.493557929992676,8.250033378601074,13.829007148742676,8.250033378601074,14.242825508117676L8.250033378601074,14.250149726867676C8.250033378601074,14.664212226867676,7.914095878601074,14.999905586242676,7.500033378601074,14.999905586242676C7.085970878601074,14.999905586242676,6.750033378601074,14.664212226867676,6.750033378601074,14.250149726867676Z" style="fill: rgb(161, 164, 186); fill-opacity: 1;"/></g></g><g id="shape-77c951b0-c077-80bc-8006-e26bb124c4dd"><g class="fills" id="fills-77c951b0-c077-80bc-8006-e26bb124c4dd"><path d="M3.375033378601074,1.6563999652862549L3.375033378601074,1.6490757465362549C3.375033378601074,1.2350132465362549,3.710970878601074,0.8995639681816101,4.125033378601074,0.8995639681816101C4.539095878601074,0.8995639681816101,4.875033378601074,1.2350132465362549,4.875033378601074,1.6490757465362549L4.875033378601074,1.6563999652862549C4.875033378601074,2.070462465286255,4.539095878601074,2.405911684036255,4.125033378601074,2.405911684036255C3.710970878601074,2.405911684036255,3.375033378601074,2.070462465286255,3.375033378601074,1.6563999652862549Z" style="fill: rgb(161, 164, 186); fill-opacity: 1;"/></g></g><g id="shape-77c951b0-c077-80bc-8006-e26bb124c4de"><g class="fills" id="fills-77c951b0-c077-80bc-8006-e26bb124c4de"><path d="M10.125033378601074,13.350735664367676L10.125033378601074,13.343411445617676C10.125033378601074,12.929593086242676,10.460970878601074,12.593899726867676,10.875033378601074,12.593899726867676C11.289095878601074,12.593899726867676,11.625033378601074,12.929593086242676,11.625033378601074,13.343411445617676L11.625033378601074,13.350735664367676C11.625033378601074,13.764798164367676,11.289095878601074,14.100247383117676,10.875033378601074,14.100247383117676C10.460970878601074,14.100247383117676,10.125033378601074,13.764798164367676,10.125033378601074,13.350735664367676Z" style="fill: rgb(161, 164, 186); fill-opacity: 1;"/></g></g><g id="shape-77c951b0-c077-80bc-8006-e26bb124c4df"><g class="fills" id="fills-77c951b0-c077-80bc-8006-e26bb124c4df"><path d="M3.375033378601074,13.350735664367676L3.375033378601074,13.343411445617676C3.375033378601074,12.929593086242676,3.710970878601074,12.593899726867676,4.125033378601074,12.593899726867676C4.539095878601074,12.593899726867676,4.875033378601074,12.929593086242676,4.875033378601074,13.343411445617676L4.875033378601074,13.350735664367676C4.875033378601074,13.764798164367676,4.539095878601074,14.100247383117676,4.125033378601074,14.100247383117676C3.710970878601074,14.100247383117676,3.375033378601074,13.764798164367676,3.375033378601074,13.350735664367676Z" style="fill: rgb(161, 164, 186); fill-opacity: 1;"/></g></g><g id="shape-77c951b0-c077-80bc-8006-e26bb124c4e0"><g class="fills" id="fills-77c951b0-c077-80bc-8006-e26bb124c4e0"><path d="M0.8999356031417847,10.877102851867676L0.8999356031417847,10.869778633117676C0.8999356031417847,10.455471992492676,1.2358731031417847,10.120022773742676,1.6499356031417847,10.120022773742676C2.063998222351074,10.120022773742676,2.399935722351074,10.455471992492676,2.399935722351074,10.869778633117676L2.399935722351074,10.877102851867676C2.399935722351074,11.290921211242676,2.063998222351074,11.626370429992676,1.6499356031417847,11.626370429992676C1.2358731031417847,11.626370429992676,0.8999356031417847,11.290921211242676,0.8999356031417847,10.877102851867676Z" style="fill: rgb(161, 164, 186); fill-opacity: 1;"/></g></g><g id="shape-77c951b0-c077-80bc-8006-e26bb124c4e1"><g class="fills" id="fills-77c951b0-c077-80bc-8006-e26bb124c4e1"><path d="M12.600131034851074,10.877102851867676L12.600131034851074,10.869778633117676C12.600131034851074,10.455471992492676,12.936068534851074,10.120022773742676,13.350131034851074,10.120022773742676C13.764193534851074,10.120022773742676,14.100131034851074,10.455471992492676,14.100131034851074,10.869778633117676L14.100131034851074,10.877102851867676C14.100131034851074,11.290921211242676,13.764193534851074,11.626370429992676,13.350131034851074,11.626370429992676C12.936068534851074,11.626370429992676,12.600131034851074,11.290921211242676,12.600131034851074,10.877102851867676Z" style="fill: rgb(161, 164, 186); fill-opacity: 1;"/></g></g><g id="shape-77c951b0-c077-80bc-8006-e26bb124c4e2"><g class="fills" id="fills-77c951b0-c077-80bc-8006-e26bb124c4e2"><path d="M0.8999356031417847,4.130032539367676L0.8999356031417847,4.122708320617676C0.8999356031417847,3.708890199661255,1.2358731031417847,3.373440980911255,1.6499356031417847,3.373440980911255C2.063998222351074,3.373440980911255,2.399935722351074,3.708890199661255,2.399935722351074,4.122708320617676L2.399935722351074,4.130032539367676C2.399935722351074,4.544339179992676,2.063998222351074,4.879788398742676,1.6499356031417847,4.879788398742676C1.2358731031417847,4.879788398742676,0.8999356031417847,4.544339179992676,0.8999356031417847,4.130032539367676Z" style="fill: rgb(161, 164, 186); fill-opacity: 1;"/></g></g><g id="shape-77c951b0-c077-80bc-8006-e26bb124c4e3"><g class="fills" id="fills-77c951b0-c077-80bc-8006-e26bb124c4e3"><path d="M7.500033378601074,0.00014993009972386062C8.821078300476074,-0.0008266324293799698,10.118685722351074,0.3482944667339325,11.261752128601074,1.0104038715362549C12.404818534851074,1.6725132465362549,13.352084159851074,2.624661684036255,14.008334159851074,3.770901918411255C14.213900566101074,4.130032539367676,14.089388847351074,4.587796211242676,13.730013847351074,4.793606758117676C13.370638847351074,4.998929023742676,12.912631034851074,4.874417304992676,12.707064628601074,4.515286445617676C12.181918144226074,3.598538637161255,11.423617362976074,2.837064027786255,10.509799003601074,2.307278871536255C9.595248222351074,1.7779819965362549,8.556918144226074,1.4986851215362549,7.500033378601074,1.4991734027862549C7.085970878601074,1.4991734027862549,6.750033378601074,1.1637241840362549,6.750033378601074,0.7496616244316101C6.750033378601074,0.3360874354839325,7.085970878601074,0.00014993009972386062,7.500033378601074,0.00014993009972386062Z" style="fill: rgb(161, 164, 186); fill-opacity: 1;"/></g></g></g></svg>