<svg width="14" xmlns="http://www.w3.org/2000/svg" height="14" id="screenshot-77c951b0-c077-80bc-8006-e26bb124c4ed" viewBox="0 0 14 14" xmlns:xlink="http://www.w3.org/1999/xlink" fill="none" version="1.1"><g id="shape-77c951b0-c077-80bc-8006-e26bb124c4ed"><g class="frame-container-wrapper"><g class="frame-container-blur"><g class="frame-container-shadows"><g fill="none"><g class="fills" id="fills-77c951b0-c077-80bc-8006-e26bb124c4ed"><rect rx="0" ry="0" x="0" y="0" width="14" height="14" transform="matrix(1.000000, 0.000000, 0.000000, 1.000000, 0.000000, 0.000000)" class="frame-background"/></g><g class="frame-children"><g id="shape-77c951b0-c077-80bc-8006-e26bb124c4ee" width="18" height="18" rx="0" ry="0" style="fill: rgb(0, 0, 0);"><g id="shape-77c951b0-c077-80bc-8006-e26bb124c4ef"><g class="fills" id="fills-77c951b0-c077-80bc-8006-e26bb124c4ef"><path d="M12.541537284851074,2.3333206176757812C12.541537284851074,2.1011428833007812,12.449740409851074,1.8782423734664917,12.285677909851074,1.7141798734664917C12.142123222351074,1.5706251859664917,11.953646659851074,1.4827345609664917,11.753451347351074,1.4627150297164917L11.666537284851074,1.4583204984664917L2.333285331726074,1.4583204984664917C2.101107597351074,1.4583204984664917,1.8784512281417847,1.5501173734664917,1.7143887281417847,1.7141798734664917C1.5503262281417847,1.8782423734664917,1.4582852125167847,2.1011428833007812,1.4582852125167847,2.3333206176757812L1.4582852125167847,11.666572570800781L1.4629238843917847,11.753242492675781C1.4826992750167847,11.953437805175781,1.5708340406417847,12.141914367675781,1.7143887281417847,12.285469055175781C1.8784512281417847,12.449775695800781,2.101107597351074,12.541572570800781,2.333285331726074,12.541572570800781L11.666537284851074,12.541572570800781C11.898715019226074,12.541572570800781,12.121615409851074,12.449775695800781,12.285677909851074,12.285469055175781C12.449740409851074,12.121406555175781,12.541537284851074,11.898750305175781,12.541537284851074,11.666572570800781L12.541537284851074,2.3333206176757812ZM13.902865409851074,11.666572570800781C13.902865409851074,12.259590148925781,13.667513847351074,12.828437805175781,13.248080253601074,13.247871398925781C12.828646659851074,13.667304992675781,12.259554862976074,13.902656555175781,11.666537284851074,13.902656555175781L2.333285331726074,13.902656555175781C1.7402676343917847,13.902656555175781,1.1714199781417847,13.667304992675781,0.7519863843917847,13.247871398925781C0.33255279064178467,12.828437805175781,0.09720123559236526,12.259590148925781,0.09720123559236526,11.666572570800781L0.09720123559236526,2.3333206176757812C0.09720123559236526,1.7403029203414917,0.33255279064178467,1.1712111234664917,0.7519863843917847,0.7517775297164917C1.1714199781417847,0.3323439359664917,1.7402676343917847,0.0969923809170723,2.333285331726074,0.0969923809170723L11.666537284851074,0.0969923809170723C12.259554862976074,0.0969923809170723,12.828646659851074,0.3323439359664917,13.248080253601074,0.7517775297164917C13.667513847351074,1.1712111234664917,13.902865409851074,1.7403029203414917,13.902865409851074,2.3333206176757812L13.902865409851074,11.666572570800781Z" style="fill: rgb(161, 164, 186); fill-opacity: 1;"/></g></g><g id="shape-77c951b0-c077-80bc-8006-e26bb124c4f0"><g class="fills" id="fills-77c951b0-c077-80bc-8006-e26bb124c4f0"><path d="M3.208285331726074,13.221992492675781L3.208285331726074,0.7776564359664917C3.208285331726074,0.4019240140914917,3.512972831726074,0.0969923809170723,3.888705253601074,0.0969923809170723C4.264681816101074,0.0969923809170723,4.569369316101074,0.4019240140914917,4.569369316101074,0.7776564359664917L4.569369316101074,13.221992492675781C4.569369316101074,13.597724914550781,4.264681816101074,13.902656555175781,3.888705253601074,13.902656555175781C3.512972831726074,13.902656555175781,3.208285331726074,13.597724914550781,3.208285331726074,13.221992492675781Z" style="fill: rgb(161, 164, 186); fill-opacity: 1;"/></g></g><g id="shape-77c951b0-c077-80bc-8006-e26bb124c4f1"><g class="fills" id="fills-77c951b0-c077-80bc-8006-e26bb124c4f1"><path d="M9.430697441101074,13.221992492675781L9.430697441101074,0.7776564359664917C9.430697441101074,0.4019240140914917,9.735384941101074,0.0969923809170723,10.111117362976074,0.0969923809170723C10.486849784851074,0.0969923809170723,10.791537284851074,0.4019240140914917,10.791537284851074,0.7776564359664917L10.791537284851074,13.221992492675781C10.791537284851074,13.597724914550781,10.486849784851074,13.902656555175781,10.111117362976074,13.902656555175781C9.735384941101074,13.902656555175781,9.430697441101074,13.597724914550781,9.430697441101074,13.221992492675781Z" style="fill: rgb(161, 164, 186); fill-opacity: 1;"/></g></g><g id="shape-77c951b0-c077-80bc-8006-e26bb124c4f2"><g class="fills" id="fills-77c951b0-c077-80bc-8006-e26bb124c4f2"><path d="M3.888705253601074,3.2083206176757812C4.264681816101074,3.2083206176757812,4.569369316101074,3.5127639770507812,4.569369316101074,3.8887405395507812C4.569369316101074,4.264472961425781,4.264681816101074,4.569160461425781,3.888705253601074,4.569160461425781L0.7778652906417847,4.569160461425781C0.40188872814178467,4.569160461425781,0.09720123559236526,4.264472961425781,0.09720123559236526,3.8887405395507812C0.09720123559236526,3.5127639770507812,0.40188872814178467,3.2083206176757812,0.7778652906417847,3.2083206176757812L3.888705253601074,3.2083206176757812Z" style="fill: rgb(161, 164, 186); fill-opacity: 1;"/></g></g><g id="shape-77c951b0-c077-80bc-8006-e26bb124c4f3"><g class="fills" id="fills-77c951b0-c077-80bc-8006-e26bb124c4f3"><path d="M3.888705253601074,9.430488586425781C4.264681816101074,9.430488586425781,4.569369316101074,9.735176086425781,4.569369316101074,10.111152648925781C4.569369316101074,10.486885070800781,4.264681816101074,10.791572570800781,3.888705253601074,10.791572570800781L0.7778652906417847,10.791572570800781C0.40188872814178467,10.791572570800781,0.09720123559236526,10.486885070800781,0.09720123559236526,10.111152648925781C0.09720123559236526,9.735176086425781,0.40188872814178467,9.430488586425781,0.7778652906417847,9.430488586425781L3.888705253601074,9.430488586425781Z" style="fill: rgb(161, 164, 186); fill-opacity: 1;"/></g></g><g id="shape-77c951b0-c077-80bc-8006-e26bb124c4f4"><g class="fills" id="fills-77c951b0-c077-80bc-8006-e26bb124c4f4"><path d="M13.222201347351074,6.319160461425781C13.597933769226074,6.319160461425781,13.902865409851074,6.624092102050781,13.902865409851074,6.999824523925781C13.902865409851074,7.375801086425781,13.597933769226074,7.680488586425781,13.222201347351074,7.680488586425781L0.7778652906417847,7.680488586425781C0.40188872814178467,7.680488586425781,0.09720123559236526,7.375801086425781,0.09720123559236526,6.999824523925781C0.09720123559236526,6.624092102050781,0.40188872814178467,6.319160461425781,0.7778652906417847,6.319160461425781L13.222201347351074,6.319160461425781Z" style="fill: rgb(161, 164, 186); fill-opacity: 1;"/></g></g><g id="shape-77c951b0-c077-80bc-8006-e26bb124c4f5"><g class="fills" id="fills-77c951b0-c077-80bc-8006-e26bb124c4f5"><path d="M13.222201347351074,3.2083206176757812C13.597933769226074,3.2083206176757812,13.902865409851074,3.5127639770507812,13.902865409851074,3.8887405395507812C13.902865409851074,4.264472961425781,13.597933769226074,4.569160461425781,13.222201347351074,4.569160461425781L10.111117362976074,4.569160461425781C9.735384941101074,4.569160461425781,9.430697441101074,4.264472961425781,9.430697441101074,3.8887405395507812C9.430697441101074,3.5127639770507812,9.735384941101074,3.2083206176757812,10.111117362976074,3.2083206176757812L13.222201347351074,3.2083206176757812Z" style="fill: rgb(161, 164, 186); fill-opacity: 1;"/></g></g><g id="shape-77c951b0-c077-80bc-8006-e26bb124c4f6"><g class="fills" id="fills-77c951b0-c077-80bc-8006-e26bb124c4f6"><path d="M13.222201347351074,9.430488586425781C13.597933769226074,9.430488586425781,13.902865409851074,9.735176086425781,13.902865409851074,10.111152648925781C13.902865409851074,10.486885070800781,13.597933769226074,10.791572570800781,13.222201347351074,10.791572570800781L10.111117362976074,10.791572570800781C9.735384941101074,10.791572570800781,9.430697441101074,10.486885070800781,9.430697441101074,10.111152648925781C9.430697441101074,9.735176086425781,9.735384941101074,9.430488586425781,10.111117362976074,9.430488586425781L13.222201347351074,9.430488586425781Z" style="fill: rgb(161, 164, 186); fill-opacity: 1;"/></g></g></g></g></g></g></g></g></g></svg>