<svg width="369" height="95" viewBox="0 0 369 95" fill="none" xmlns="http://www.w3.org/2000/svg">
<path d="M328.76 94.27C326.919 94.27 325.192 94.1223 323.578 93.8268C321.987 93.5541 320.669 93.2018 319.624 92.77L322.897 81.9291C324.601 82.4518 326.135 82.7359 327.499 82.7814C328.885 82.8268 330.078 82.5087 331.078 81.8268C332.101 81.145 332.931 79.9859 333.567 78.3496L334.419 76.1337L315.635 22.27H330.908L341.749 60.7246H342.294L353.237 22.27H368.612L348.26 80.2927C347.283 83.1109 345.953 85.5655 344.272 87.6564C342.612 89.77 340.51 91.395 337.965 92.5314C335.419 93.6905 332.351 94.27 328.76 94.27Z" fill="#495057"/>
<path d="M314.762 22.27V33.1791H282.444V22.27H314.762ZM289.842 74.6336V18.4859C289.842 14.6905 290.58 11.5427 292.057 9.04272C293.557 6.54272 295.603 4.66772 298.194 3.41772C300.785 2.16772 303.728 1.54272 307.023 1.54272C309.251 1.54272 311.285 1.71318 313.126 2.05409C314.989 2.395 316.376 2.70182 317.285 2.97454L314.694 13.8836C314.126 13.7018 313.421 13.5314 312.58 13.3723C311.762 13.2132 310.921 13.1336 310.057 13.1336C307.921 13.1336 306.432 13.6336 305.592 14.6336C304.751 15.6109 304.33 16.9859 304.33 18.7586V74.6336H289.842Z" fill="#495057"/>
<path d="M229.684 74.6336V4.81543H244.207V31.0654H244.65C245.287 29.6563 246.207 28.2245 247.412 26.77C248.639 25.2927 250.23 24.0654 252.184 23.0882C254.162 22.0882 256.616 21.5882 259.548 21.5882C263.366 21.5882 266.889 22.5882 270.116 24.5882C273.344 26.5654 275.923 29.5541 277.855 33.5541C279.787 37.5313 280.753 42.52 280.753 48.52C280.753 54.3609 279.809 59.2927 277.923 63.3154C276.059 67.3154 273.514 70.3495 270.287 72.4177C267.082 74.4632 263.491 75.4859 259.514 75.4859C256.696 75.4859 254.298 75.02 252.321 74.0882C250.366 73.1563 248.764 71.9859 247.514 70.5768C246.264 69.145 245.309 67.7018 244.65 66.2472H244.003V74.6336H229.684ZM243.9 48.4518C243.9 51.5654 244.332 54.2813 245.196 56.5995C246.059 58.9177 247.309 60.7245 248.946 62.02C250.582 63.2927 252.571 63.9291 254.912 63.9291C257.275 63.9291 259.275 63.2813 260.912 61.9859C262.548 60.6677 263.787 58.8495 264.628 56.5313C265.491 54.1904 265.923 51.4973 265.923 48.4518C265.923 45.4291 265.503 42.77 264.662 40.4745C263.821 38.1791 262.582 36.3836 260.946 35.0882C259.309 33.7927 257.298 33.145 254.912 33.145C252.548 33.145 250.548 33.77 248.912 35.02C247.298 36.27 246.059 38.0427 245.196 40.3382C244.332 42.6336 243.9 45.3382 243.9 48.4518Z" fill="#495057"/>
<path d="M207.096 74.6337V22.2701H221.618V74.6337H207.096ZM214.391 15.5201C212.232 15.5201 210.38 14.8042 208.834 13.3724C207.311 11.9178 206.55 10.1792 206.55 8.15645C206.55 6.15645 207.311 4.44054 208.834 3.00873C210.38 1.55418 212.232 0.826904 214.391 0.826904C216.55 0.826904 218.391 1.55418 219.914 3.00873C221.459 4.44054 222.232 6.15645 222.232 8.15645C222.232 10.1792 221.459 11.9178 219.914 13.3724C218.391 14.8042 216.55 15.5201 214.391 15.5201Z" fill="#495057"/>
<path d="M171.654 74.6337V22.27H185.734V31.4064H186.279C187.234 28.1564 188.836 25.7018 191.086 24.0428C193.336 22.3609 195.927 21.52 198.859 21.52C199.586 21.52 200.37 21.5655 201.211 21.6564C202.052 21.7473 202.791 21.8723 203.427 22.0314V34.9177C202.745 34.7132 201.802 34.5314 200.597 34.3723C199.393 34.2132 198.291 34.1337 197.291 34.1337C195.154 34.1337 193.245 34.5996 191.563 35.5314C189.904 36.4405 188.586 37.7132 187.609 39.3496C186.654 40.9859 186.177 42.8723 186.177 45.0087V74.6337H171.654Z" fill="#495057"/>
<path d="M166.034 22.2701V33.1792H134.5V22.2701H166.034ZM141.659 9.72461H156.182V58.5428C156.182 59.8837 156.386 60.9292 156.795 61.6792C157.204 62.4064 157.773 62.9178 158.5 63.2132C159.25 63.5087 160.114 63.6564 161.091 63.6564C161.773 63.6564 162.454 63.5996 163.136 63.486C163.818 63.3496 164.341 63.2473 164.704 63.1792L166.989 73.986C166.261 74.2132 165.239 74.4746 163.92 74.7701C162.602 75.0882 161 75.2814 159.114 75.3496C155.614 75.486 152.545 75.0201 149.909 73.9519C147.295 72.8837 145.261 71.2246 143.807 68.9746C142.352 66.7246 141.636 63.8837 141.659 60.4519V9.72461Z" fill="#495057"/>
<path d="M131.684 37.2018L118.388 38.02C118.161 36.8836 117.672 35.8609 116.922 34.9518C116.172 34.02 115.184 33.2813 113.956 32.7359C112.752 32.1677 111.309 31.8836 109.627 31.8836C107.377 31.8836 105.479 32.3609 103.934 33.3154C102.388 34.2472 101.615 35.4972 101.615 37.0654C101.615 38.3154 102.115 39.3722 103.115 40.2359C104.115 41.0995 105.831 41.7927 108.263 42.3154L117.74 44.2245C122.831 45.27 126.627 46.9518 129.127 49.27C131.627 51.5881 132.877 54.6336 132.877 58.4063C132.877 61.8381 131.865 64.8495 129.843 67.4404C127.843 70.0313 125.093 72.054 121.593 73.5086C118.115 74.9404 114.104 75.6563 109.559 75.6563C102.627 75.6563 97.1041 74.2131 92.9904 71.3268C88.8995 68.4177 86.5018 64.4631 85.7972 59.4631L100.081 58.7131C100.513 60.8268 101.559 62.4404 103.218 63.554C104.877 64.645 107.002 65.1904 109.593 65.1904C112.138 65.1904 114.184 64.7018 115.729 63.7245C117.297 62.7245 118.093 61.4404 118.115 59.8722C118.093 58.554 117.536 57.4745 116.445 56.6336C115.354 55.77 113.672 55.1109 111.4 54.6563L102.331 52.8495C97.2177 51.8268 93.4109 50.054 90.9109 47.5313C88.4336 45.0086 87.195 41.7927 87.195 37.8836C87.195 34.52 88.1041 31.6222 89.9222 29.1904C91.7632 26.7586 94.3427 24.8836 97.6609 23.5654C101.002 22.2472 104.911 21.5881 109.388 21.5881C116.002 21.5881 121.206 22.9859 125.002 25.7813C128.82 28.5768 131.047 32.3836 131.684 37.2018Z" fill="#495057"/>
<path d="M65.7992 74.6337V22.2701H80.322V74.6337H65.7992ZM73.0947 15.5201C70.9356 15.5201 69.0833 14.8042 67.5379 13.3724C66.0151 11.9178 65.2538 10.1792 65.2538 8.15645C65.2538 6.15645 66.0151 4.44054 67.5379 3.00873C69.0833 1.55418 70.9356 0.826904 73.0947 0.826904C75.2538 0.826904 77.0947 1.55418 78.6174 3.00873C80.1629 4.44054 80.9356 6.15645 80.9356 8.15645C80.9356 10.1792 80.1629 11.9178 78.6174 13.3724C77.0947 14.8042 75.2538 15.5201 73.0947 15.5201Z" fill="#495057"/>
<path d="M24.8182 74.6336H0.0681763V4.81543H25.0227C32.0455 4.81543 38.0909 6.21316 43.1591 9.00861C48.2273 11.7813 52.125 15.77 54.8523 20.9745C57.6023 26.1791 58.9773 32.4063 58.9773 39.6563C58.9773 46.9291 57.6023 53.1791 54.8523 58.4063C52.125 63.6336 48.2045 67.645 43.0909 70.4404C38 73.2359 31.9091 74.6336 24.8182 74.6336ZM14.8295 61.9859H24.2045C28.5682 61.9859 32.2386 61.2132 35.2159 59.6677C38.2159 58.0995 40.4659 55.6791 41.9659 52.4063C43.4886 49.1109 44.25 44.8609 44.25 39.6563C44.25 34.4972 43.4886 30.2813 41.9659 27.0086C40.4659 23.7359 38.2273 21.3268 35.25 19.7813C32.2727 18.2359 28.6023 17.4632 24.2386 17.4632H14.8295V61.9859Z" fill="#495057"/>
</svg>
