<svg width="148.58" xmlns="http://www.w3.org/2000/svg" height="37.622" id="screenshot-a811047a-5e96-807e-8006-f3187eb53f55" viewBox="0 0 148.58 37.622" xmlns:xlink="http://www.w3.org/1999/xlink" fill="none" version="1.1"><style>/* cyrillic-ext */
@font-face {
  font-family: 'Inter';
  font-style: normal;
  font-weight: 400;
  font-display: block;
  src: url(http://localhost:6080/internal/gfonts/font/inter/v20/UcCO3FwrK3iLTeHuS_nVMrMxCp50SjIw2boKoduKmMEVuLyfAZJhiI2B.woff2) format('woff2');
  unicode-range: U+0460-052F, U+1C80-1C8A, U+20B4, U+2DE0-2DFF, U+A640-A69F, U+FE2E-FE2F;
}
/* cyrillic */
@font-face {
  font-family: 'Inter';
  font-style: normal;
  font-weight: 400;
  font-display: block;
  src: url(http://localhost:6080/internal/gfonts/font/inter/v20/UcCO3FwrK3iLTeHuS_nVMrMxCp50SjIw2boKoduKmMEVuLyfAZthiI2B.woff2) format('woff2');
  unicode-range: U+0301, U+0400-045F, U+0490-0491, U+04B0-04B1, U+2116;
}
/* greek-ext */
@font-face {
  font-family: 'Inter';
  font-style: normal;
  font-weight: 400;
  font-display: block;
  src: url(http://localhost:6080/internal/gfonts/font/inter/v20/UcCO3FwrK3iLTeHuS_nVMrMxCp50SjIw2boKoduKmMEVuLyfAZNhiI2B.woff2) format('woff2');
  unicode-range: U+1F00-1FFF;
}
/* greek */
@font-face {
  font-family: 'Inter';
  font-style: normal;
  font-weight: 400;
  font-display: block;
  src: url(http://localhost:6080/internal/gfonts/font/inter/v20/UcCO3FwrK3iLTeHuS_nVMrMxCp50SjIw2boKoduKmMEVuLyfAZxhiI2B.woff2) format('woff2');
  unicode-range: U+0370-0377, U+037A-037F, U+0384-038A, U+038C, U+038E-03A1, U+03A3-03FF;
}
/* vietnamese */
@font-face {
  font-family: 'Inter';
  font-style: normal;
  font-weight: 400;
  font-display: block;
  src: url(http://localhost:6080/internal/gfonts/font/inter/v20/UcCO3FwrK3iLTeHuS_nVMrMxCp50SjIw2boKoduKmMEVuLyfAZBhiI2B.woff2) format('woff2');
  unicode-range: U+0102-0103, U+0110-0111, U+0128-0129, U+0168-0169, U+01A0-01A1, U+01AF-01B0, U+0300-0301, U+0303-0304, U+0308-0309, U+0323, U+0329, U+1EA0-1EF9, U+20AB;
}
/* latin-ext */
@font-face {
  font-family: 'Inter';
  font-style: normal;
  font-weight: 400;
  font-display: block;
  src: url(http://localhost:6080/internal/gfonts/font/inter/v20/UcCO3FwrK3iLTeHuS_nVMrMxCp50SjIw2boKoduKmMEVuLyfAZFhiI2B.woff2) format('woff2');
  unicode-range: U+0100-02BA, U+02BD-02C5, U+02C7-02CC, U+02CE-02D7, U+02DD-02FF, U+0304, U+0308, U+0329, U+1D00-1DBF, U+1E00-1E9F, U+1EF2-1EFF, U+2020, U+20A0-20AB, U+20AD-20C0, U+2113, U+2C60-2C7F, U+A720-A7FF;
}
/* latin */
@font-face {
  font-family: 'Inter';
  font-style: normal;
  font-weight: 400;
  font-display: block;
  src: url(http://localhost:6080/internal/gfonts/font/inter/v20/UcCO3FwrK3iLTeHuS_nVMrMxCp50SjIw2boKoduKmMEVuLyfAZ9hiA.woff2) format('woff2');
  unicode-range: U+0000-00FF, U+0131, U+0152-0153, U+02BB-02BC, U+02C6, U+02DA, U+02DC, U+0304, U+0308, U+0329, U+2000-206F, U+20AC, U+2122, U+2191, U+2193, U+2212, U+2215, U+FEFF, U+FFFD;
}
</style><g id="shape-a811047a-5e96-807e-8006-f3187eb53f55" rx="0" ry="0"><g id="shape-a811047a-5e96-807e-8006-f3185d6f103b" width="251" height="44" rx="0" ry="0" style="fill: rgb(0, 0, 0);"><g id="shape-a811047a-5e96-807e-8006-f3185d6f103c" style="display: none;"><g class="fills" id="fills-a811047a-5e96-807e-8006-f3185d6f103c"><rect width="148" height="26" x="0" transform="matrix(1.000000, 0.000000, 0.000000, 1.000000, 0.000000, 0.000000)" style="fill: rgb(73, 80, 87); fill-opacity: 1;" ry="0" fill="none" rx="0" y="0"/></g></g><g id="shape-a811047a-5e96-807e-8006-f3185d6f103d"><g class="fills" id="fills-a811047a-5e96-807e-8006-f3185d6f103d"><path d="M10.42163372039795,0.10058697313070297L10.42163372039795,3.9898691177368164C10.1539945602417,3.9563302993774414,9.7023344039917,3.933976173400879,9.06665325164795,3.922806739807129C8.44214153289795,3.9004526138305664,8.00720500946045,4.040162086486816,7.761843204498291,4.341919898986816C7.527651309967041,4.632477760314941,7.410585880279541,4.956574440002441,7.410585880279541,5.314225196838379L7.410585880279541,6.856507301330566L10.53869915008545,6.856507301330566L10.53869915008545,10.226105690002441L7.410585880279541,10.226105690002441L7.410585880279541,24.96177864074707L2.65979266166687,24.96177864074707L2.65979266166687,10.226105690002441L0.000002544726157793775,10.226105690002441L0.000002544726157793775,6.856507301330566L2.60962176322937,6.856507301330566L2.60962176322937,5.683030128479004C2.60962176322937,3.727219581604004,2.93860125541687,2.3804941177368164,3.59656023979187,1.642884373664856C4.287966251373291,0.5476389527320862,5.955202579498291,0.0000010390988336439477,8.59826946258545,0.0000010390988336439477C8.89941692352295,0.0000010390988336439477,9.17261028289795,0.011170472949743271,9.4179105758667,0.03353985771536827C9.6632719039917,0.04470929130911827,9.9978666305542,0.06704815477132797,10.42163372039795,0.10058697313070297Z" style="fill: rgb(73, 80, 87); fill-opacity: 1;"/></g></g><g id="shape-a811047a-5e96-807e-8006-f3185d6f103e"><g class="fills" id="fills-a811047a-5e96-807e-8006-f3185d6f103e"><path d="M27.519166946411133,19.597261428833008C27.396455764770508,20.681352615356445,26.833284378051758,21.78215217590332,25.829591751098633,22.899797439575195C24.268281936645508,24.676774978637695,22.082490921020508,25.565279006958008,19.272157669067383,25.565279006958008C16.952516555786133,25.565279006958008,14.90613079071045,24.816469192504883,13.13293743133545,23.318880081176758C11.35974407196045,21.821260452270508,10.47314739227295,19.384889602661133,10.47314739227295,16.009737014770508C10.47314739227295,12.846894264221191,11.27051067352295,10.421692848205566,12.8652982711792,8.734101295471191C14.4711332321167,7.046540260314941,16.551088333129883,6.202713966369629,19.104860305786133,6.202713966369629C20.621583938598633,6.202713966369629,21.987672805786133,6.487702369689941,23.203279495239258,7.057709693908691C24.418886184692383,7.627686500549316,25.422578811645508,8.527344703674316,26.214357376098633,9.756745338439941C26.928102493286133,10.840821266174316,27.390901565551758,12.098084449768066,27.602785110473633,13.528626441955566C27.725465774536133,14.366837501525879,27.775636672973633,15.573884010314941,27.753297805786133,17.149660110473633L15.2741117477417,17.149660110473633C15.34106731414795,18.982545852661133,15.9153470993042,20.267824172973633,16.997133255004883,21.005403518676758C17.655092239379883,21.463655471801758,18.446962356567383,21.692750930786133,19.372560501098633,21.692750930786133C20.353883743286133,21.692750930786133,21.151247024536133,21.413362503051758,21.764680862426758,20.85453987121582C22.099245071411133,20.552827835083008,22.394777297973633,20.133699417114258,22.651247024536133,19.597261428833008L27.519166946411133,19.597261428833008ZM22.801790237426758,13.998047828674316C22.723726272583008,12.735169410705566,22.338991165161133,11.779603004455566,21.647584915161133,11.131379127502441C20.967287063598633,10.471985816955566,20.119752883911133,10.142304420471191,19.104860305786133,10.142304420471191C18.000795364379883,10.142304420471191,17.142091751098633,10.488755226135254,16.528749465942383,11.181641578674316C15.92651653289795,11.874543190002441,15.54736614227295,12.813385963439941,15.39123821258545,13.998047828674316L22.801790237426758,13.998047828674316Z" style="fill: rgb(73, 80, 87); fill-opacity: 1;"/></g></g><g id="shape-a811047a-5e96-807e-8006-f3185d6f103f"><g class="fills" id="fills-a811047a-5e96-807e-8006-f3185d6f103f"><path d="M42.17435073852539,7.527070045471191C43.601810455322266,8.443512916564941,44.42148208618164,10.019333839416504,44.63339614868164,12.254578590393066L39.865848541259766,12.254578590393066C39.79892349243164,11.639893531799316,39.626102447509766,11.153702735900879,39.347232818603516,10.796082496643066C38.823123931884766,10.147858619689941,37.930912017822266,9.823746681213379,36.67074966430664,9.823746681213379C35.63364028930664,9.823746681213379,34.892032623291016,9.985840797424316,34.445926666259766,10.309937477111816C34.010990142822266,10.634064674377441,33.793521881103516,11.014008522033691,33.793521881103516,11.449860572814941C33.793521881103516,11.997529029846191,34.02774429321289,12.394257545471191,34.496097564697266,12.640137672424316C34.96451187133789,12.897187232971191,36.62057876586914,13.338654518127441,39.464359283447266,13.964478492736816C41.360233306884766,14.411561012268066,42.78213882446289,15.087677955627441,43.730045318603516,15.992951393127441C44.666812896728516,16.909395217895508,45.13522720336914,18.054933547973633,45.13522720336914,19.429628372192383C45.13522720336914,21.240114212036133,44.460514068603516,22.72093391418457,43.11111831665039,23.872072219848633C41.77286148071289,25.012056350708008,39.698551177978516,25.582048416137695,36.888187408447266,25.582048416137695C34.02212905883789,25.582048416137695,31.903261184692383,24.97850227355957,30.531526565551758,23.771501541137695C29.170961380004883,22.553285598754883,28.490724563598633,21.005403518676758,28.490724563598633,19.127840042114258L33.325138092041016,19.127840042114258C33.425540924072266,19.97722053527832,33.643009185791016,20.580720901489258,33.97757339477539,20.938386917114258C34.568607330322266,21.575395584106445,35.661502838134766,21.893953323364258,37.25625991821289,21.893953323364258C38.19302749633789,21.893953323364258,38.934635162353516,21.75419807434082,39.481082916259766,21.474824905395508C40.03873062133789,21.195436477661133,40.317508697509766,20.776308059692383,40.317508697509766,20.217546463012695C40.317508697509766,19.681062698364258,40.094425201416016,19.273149490356445,39.648380279541016,18.993715286254883C39.20230484008789,18.714326858520508,37.54617691040039,18.233736038208008,34.680118560791016,17.552003860473633C32.61697769165039,17.037919998168945,31.161623001098633,16.395296096801758,30.314058303833008,15.624176979064941C29.466493606567383,14.864197731018066,29.042726516723633,13.768891334533691,29.042726516723633,12.338364601135254C29.042726516723633,10.650788307189941,29.700716018676758,9.203461647033691,31.016664505004883,7.996476173400879C32.34378433227539,6.778260231018066,34.20615005493164,6.169205665588379,36.603885650634766,6.169205665588379C38.878910064697266,6.169205665588379,40.735721588134766,6.621842384338379,42.17435073852539,7.527070045471191Z" style="fill: rgb(73, 80, 87); fill-opacity: 1;"/></g></g><g id="shape-a811047a-5e96-807e-8006-f3185d6f1040"><g class="fills" id="fills-a811047a-5e96-807e-8006-f3185d6f1040"><path d="M55.65854263305664,21.558671951293945L55.65854263305664,25.129411697387695L53.40024185180664,25.213197708129883C51.147525787353516,25.291444778442383,49.608524322509766,24.900270462036133,48.783267974853516,24.03972053527832C48.247989654541016,23.492128372192383,47.980350494384766,22.64830207824707,47.980350494384766,21.508333206176758L47.980350494384766,10.259659767150879L45.43765640258789,10.259659767150879L45.43765640258789,6.856507301330566L47.980350494384766,6.856507301330566L47.980350494384766,1.760224461555481L52.69766616821289,1.760224461555481L52.69766616821289,6.856507301330566L55.65854263305664,6.856507301330566L55.65854263305664,10.259659767150879L52.69766616821289,10.259659767150879L52.69766616821289,19.915773391723633C52.69766616821289,20.664567947387695,52.792484283447266,21.133928298950195,52.982059478759766,21.32396125793457C53.171634674072266,21.502779006958008,53.751529693603516,21.592164993286133,54.721805572509766,21.592164993286133C54.86673355102539,21.592164993286133,55.017337799072266,21.592164993286133,55.173465728759766,21.592164993286133C55.34073257446289,21.581010818481445,55.50241470336914,21.569841384887695,55.65854263305664,21.558671951293945Z" style="fill: rgb(73, 80, 87); fill-opacity: 1;"/></g></g><g id="shape-a811047a-5e96-807e-8006-f3185d6f1041"><g class="fills" id="fills-a811047a-5e96-807e-8006-f3185d6f1041"><path d="M67.92962646484375,11.718079566955566C67.52810668945312,10.835206031799316,66.74209594726562,10.393738746643066,65.57107543945312,10.393738746643066C64.210205078125,10.393738746643066,63.29623794555664,10.835206031799316,62.82748794555664,11.718079566955566C62.570987701416016,12.221009254455566,62.44302749633789,12.969803810119629,62.44302749633789,13.964478492736816L62.44302749633789,24.96177864074707L57.60837173461914,24.96177864074707L57.60837173461914,6.722413063049316L62.241947174072266,6.722413063049316L62.241947174072266,9.387894630432129C62.833377838134766,8.437958717346191,63.390567779541016,7.761780738830566,63.914798736572266,7.359421730041504C64.84051513671875,6.644196510314941,66.03924560546875,6.286561012268066,67.5115966796875,6.286561012268066C68.90548706054688,6.286561012268066,70.03170776367188,6.593903541564941,70.89080810546875,7.208558082580566C71.58187866210938,7.778534889221191,72.1060791015625,8.510560035705566,72.46279907226562,9.404664039611816C73.08724975585938,8.331757545471191,73.86260986328125,7.543839454650879,74.78836059570312,7.040925025939941C75.76953125,6.537995338439941,76.86270141601562,6.286561012268066,78.0667724609375,6.286561012268066C78.86984252929688,6.286561012268066,79.66172790527344,6.442994117736816,80.44239807128906,6.755921363830566C81.22309875488281,7.068879127502441,81.93125915527344,7.616456031799316,82.56687927246094,8.398835182189941C83.07987976074219,9.035828590393066,83.42539978027344,9.818192481994629,83.60404968261719,10.745789527893066C83.71549987792969,11.360474586486816,83.77091979980469,12.260132789611816,83.77091979980469,13.444840431213379L83.73789978027344,24.96177864074707L78.85333251953125,24.96177864074707L78.85333251953125,13.327485084533691C78.85333251953125,12.634522438049316,78.74188232421875,12.064591407775879,78.5184326171875,11.617524147033691C78.09506225585938,10.768128395080566,77.31436157226562,10.343445777893066,76.17636108398438,10.343445777893066C74.86087036132812,10.343445777893066,73.95166015625,10.891114234924316,73.44985961914062,11.986359596252441C73.193359375,12.567505836486816,73.0654296875,13.265961647033691,73.0654296875,14.081833839416504L73.0654296875,24.96177864074707L68.26397705078125,24.96177864074707L68.26397705078125,14.081833839416504C68.26397705078125,12.997757911682129,68.15252685546875,12.209839820861816,67.92962646484375,11.718079566955566Z" style="fill: rgb(73, 80, 87); fill-opacity: 1;"/></g></g><g id="shape-a811047a-5e96-807e-8006-f3185d6f1042"><g class="fills" id="fills-a811047a-5e96-807e-8006-f3185d6f1042"><path d="M97.80793762207031,22.380098342895508C97.76371765136719,22.435991287231445,97.65168762207031,22.603639602661133,97.47361755371094,22.883012771606445C97.29496765136719,23.16240119934082,97.08326721191406,23.408266067504883,96.83796691894531,23.620637893676758C96.09089660644531,24.291215896606445,95.36564636230469,24.749406814575195,94.66337585449219,24.995271682739258C93.97172546386719,25.241151809692383,93.15745544433594,25.36412239074707,92.22108459472656,25.36412239074707C89.52229309082031,25.36412239074707,87.70442199707031,24.391786575317383,86.76750183105469,22.447160720825195C86.24330139160156,21.374238967895508,85.98149108886719,19.792787551879883,85.98149108886719,17.70286750793457L85.98149108886719,6.688858985900879L90.86607360839844,6.688858985900879L90.86607360839844,17.70286750793457C90.86607360839844,18.742280960083008,90.98872375488281,19.52458381652832,91.23402404785156,20.049898147583008C91.66859436035156,20.977510452270508,92.52180480957031,21.441316604614258,93.79307556152344,21.441316604614258C95.42167663574219,21.441316604614258,96.53666687011719,20.781923294067383,97.13871765136719,19.463136672973633C97.45121765136719,18.747835159301758,97.60746765136719,17.803499221801758,97.60746765136719,16.630006790161133L97.60746765136719,6.688858985900879L102.44194030761719,6.688858985900879L102.44194030761719,24.96177864074707L97.80793762207031,24.96177864074707L97.80793762207031,22.380098342895508Z" style="fill: rgb(73, 80, 87); fill-opacity: 1;"/></g></g><g id="shape-a811047a-5e96-807e-8006-f3185d6f1043"><g class="fills" id="fills-a811047a-5e96-807e-8006-f3185d6f1043"><path d="M113.24238586425781,10.226105690002441C111.62498474121094,10.226105690002441,110.51530456542969,10.913453102111816,109.91328430175781,12.288071632385254C109.60075378417969,13.014527320861816,109.44511413574219,13.942139625549316,109.44511413574219,15.070954322814941L109.44511413574219,24.96177864074707L104.69435119628906,24.96177864074707L104.69435119628906,6.722413063049316L109.29414367675781,6.722413063049316L109.29414367675781,9.387894630432129C109.90797424316406,8.449112892150879,110.48759460449219,7.772934913635254,111.03416442871094,7.359421730041504C112.01536560058594,6.621842384338379,113.25889587402344,6.252991676330566,114.76426696777344,6.252991676330566C116.64933776855469,6.252991676330566,118.18833923339844,6.750367164611816,119.38114929199219,7.745057106018066C120.58580017089844,8.728486061096191,121.18778991699219,10.365784645080566,121.18778991699219,12.656922340393066L121.18778991699219,24.96177864074707L116.30320739746094,24.96177864074707L116.30320739746094,13.847138404846191C116.30320739746094,12.886017799377441,116.17527770996094,12.148377418518066,115.91880798339844,11.634278297424316C115.44999694824219,10.695527076721191,114.55784606933594,10.226105690002441,113.24238586425781,10.226105690002441Z" style="fill: rgb(73, 80, 87); fill-opacity: 1;"/></g></g><g id="shape-a811047a-5e96-807e-8006-f3185d6f1044"><g class="fills" id="fills-a811047a-5e96-807e-8006-f3185d6f1044"><path d="M140.8281707763672,0.28500470519065857L140.8281707763672,24.96177864074707L136.19480895996094,24.96177864074707L136.19480895996094,22.430376052856445C135.5143280029297,23.514467239379883,134.7389373779297,24.302385330200195,133.86924743652344,24.794130325317383C132.99949645996094,25.285890579223633,131.9175262451172,25.531770706176758,130.62388610839844,25.531770706176758C128.4940643310547,25.531770706176758,126.69859313964844,24.671175003051758,125.23747253417969,22.950075149536133C123.78752136230469,21.217775344848633,123.06285095214844,18.999330520629883,123.06285095214844,16.294740676879883C123.06285095214844,13.176560401916504,123.77696228027344,10.723450660705566,125.20384216308594,8.935257911682129C126.64256286621094,7.147095680236816,128.56065368652344,6.252991676330566,130.95872497558594,6.252991676330566C132.0625457763672,6.252991676330566,133.04429626464844,6.498871803283691,133.90281677246094,6.990632057189941C134.76133728027344,7.471222877502441,135.4582977294922,8.141785621643066,135.9936981201172,9.002320289611816L135.9936981201172,0.28500470519065857L140.8281707763672,0.28500470519065857ZM127.98106384277344,15.942673683166504C127.98106384277344,17.630250930786133,128.31541442871094,18.976991653442383,128.98460388183594,19.98283576965332C129.64268493652344,20.999849319458008,130.64622497558594,21.508333206176758,131.99595642089844,21.508333206176758C133.3450164794922,21.508333206176758,134.3710174560547,21.005403518676758,135.07383728027344,19.99955940246582C135.77610778808594,18.993715286254883,136.12754821777344,17.691713333129883,136.12754821777344,16.093523025512695C136.12754821777344,13.858353614807129,135.56443786621094,12.260132789611816,134.43821716308594,11.299012184143066C133.74656677246094,10.717850685119629,132.94346618652344,10.427308082580566,132.0289764404297,10.427308082580566C130.6350555419922,10.427308082580566,129.6090545654297,10.958115577697754,128.95103454589844,12.019867897033691C128.30418395996094,13.070435523986816,127.98106384277344,14.378006935119629,127.98106384277344,15.942673683166504Z" style="fill: rgb(73, 80, 87); fill-opacity: 1;"/></g></g><g id="shape-a811047a-5e96-807e-8006-f3185d6f1045"><g class="fills" id="fills-a811047a-5e96-807e-8006-f3185d6f1045"><path d="M147.68101501464844,6.688858985900879L147.68101501464844,24.96177864074707L142.84654235839844,24.96177864074707L142.84654235839844,6.688858985900879L147.68101501464844,6.688858985900879ZM147.68101501464844,0.10058697313070297L147.68101501464844,4.509552955627441L142.84654235839844,4.509552955627441L142.84654235839844,0.10058697313070297L147.68101501464844,0.10058697313070297Z" style="fill: rgb(73, 80, 87); fill-opacity: 1;"/></g></g></g><g id="shape-a811047a-5e96-807e-8006-f3185d6f103a"><g transform="matrix(1.000000, 0.000000, 0.000000, 1.000000, 0.000000, 0.000000)" class="text-container" x="43.58037355111435" y="26.6217650452391" width="105" height="11" rx="0" ry="0"><defs><pattern patternUnits="objectBoundingBox" width="104.72222900390625" height="11.11111068725586" id="fill-0-render-13-0"><g><rect width="104.72222900390625" height="11.11111068725586" style="fill: rgb(73, 80, 87); fill-opacity: 1;"/></g></pattern></defs><g class="fills" id="fills-a811047a-5e96-807e-8006-f3185d6f103a"><text x="43.58037355111435" y="36.62176456840194" dominant-baseline="ideographic" textLength="104.72222900390625" lengthAdjust="spacingAndGlyphs" style="text-transform: none; font-family: Inter; letter-spacing: normal; font-style: normal; font-weight: 400; white-space: pre; font-size: 9px; text-decoration: rgb(73, 80, 87); direction: ltr; fill: rgb(73, 80, 87); fill-opacity: 1;">simplify your distribution</text></g></g></g></g></svg>